<?xml version="1.0" standalone="no"?>
<!DOCTYPE svg PUBLIC "-//W3C//DTD SVG 20010904//EN"
 "http://www.w3.org/TR/2001/REC-SVG-20010904/DTD/svg10.dtd">
<svg version="1.0" xmlns="http://www.w3.org/2000/svg"
 width="512.000000pt" height="512.000000pt" viewBox="0 0 512.000000 512.000000"
 preserveAspectRatio="xMidYMid meet">
<metadata>
Created by potrace 1.16, written by Peter Selinger 2001-2019
</metadata>
<g transform="translate(0.000000,512.000000) scale(0.100000,-0.100000)"
fill="#000000" stroke="none">
<path d="M1963 4960 c-29 -12 -43 -40 -43 -88 0 -47 19 -95 68 -177 33 -55 36
-66 33 -123 -8 -164 101 -297 272 -332 33 -7 81 -9 110 -5 116 15 237 98 237
161 0 47 -9 63 -42 80 -37 19 -69 12 -117 -26 -48 -39 -115 -55 -168 -41 -44
12 -87 42 -103 71 -9 17 -7 18 28 8 99 -28 257 15 335 90 51 49 67 82 67 138
0 113 -117 194 -280 194 -84 0 -152 -20 -201 -59 -21 -17 -40 -31 -42 -31 -2
0 -14 27 -26 60 -30 81 -67 105 -128 80z"/>
<path d="M1062 4758 c-26 -13 -35 -40 -30 -89 3 -32 9 -37 83 -73 l80 -39 -48
-12 c-26 -7 -59 -21 -74 -30 -138 -91 -176 -331 -70 -451 42 -48 82 -64 162
-64 110 0 208 49 263 132 l27 41 9 -38 c6 -25 4 -66 -4 -122 -13 -79 -12 -85
7 -111 16 -21 30 -28 65 -30 39 -3 49 1 66 22 47 60 52 234 11 354 -23 67 -80
154 -120 182 -15 11 -41 50 -58 86 -37 78 -130 179 -201 218 -56 30 -134 42
-168 24z m221 -400 c22 -9 27 -17 27 -45 0 -78 -65 -143 -144 -143 -54 0 -71
51 -45 131 26 76 73 93 162 57z"/>
<path d="M4018 4629 c-66 -15 -160 -69 -214 -123 -28 -29 -76 -65 -106 -79
-151 -74 -258 -244 -258 -412 0 -71 15 -92 72 -101 55 -9 85 24 98 109 6 38
20 89 32 113 l21 45 17 -50 c76 -225 341 -298 457 -127 42 61 56 113 55 202
-1 111 -48 200 -125 234 l-41 18 35 6 c19 3 59 7 89 10 65 6 90 30 90 85 0 60
-30 81 -116 80 -38 -1 -86 -5 -106 -10z m-35 -346 c39 -20 50 -55 37 -117 -19
-88 -61 -109 -120 -60 -38 33 -60 74 -60 113 0 39 18 79 39 84 22 7 71 -3 104
-20z"/>
<path d="M2405 4149 c-302 -40 -605 -222 -758 -455 -17 -26 -29 -32 -86 -41
-178 -28 -362 -145 -534 -340 -99 -112 -268 -337 -354 -472 -223 -347 -312
-660 -257 -904 45 -200 137 -303 379 -424 162 -82 409 -161 630 -203 66 -13
121 -24 123 -25 1 -1 -11 -34 -28 -74 -97 -237 -169 -566 -150 -688 16 -97 74
-180 158 -226 75 -41 335 -93 609 -122 409 -43 835 -23 1239 60 221 45 287 83
345 196 42 84 42 177 -2 394 -22 108 -87 317 -125 404 -13 29 -24 55 -24 56 0
1 34 8 76 15 197 31 477 117 650 199 265 126 365 234 408 443 41 197 3 405
-119 653 -89 182 -224 388 -406 616 -210 264 -415 410 -621 443 -54 8 -69 15
-81 36 -37 62 -153 183 -231 242 -135 101 -286 168 -455 204 -94 19 -292 26
-386 13z m332 -175 c185 -38 350 -123 479 -248 41 -39 74 -76 74 -81 -1 -6
-22 -20 -48 -32 -63 -30 -136 -104 -170 -173 -24 -48 -27 -67 -27 -150 0 -84
3 -102 29 -154 34 -69 116 -158 273 -297 62 -56 113 -107 113 -114 0 -27 -101
-213 -153 -280 -62 -82 -165 -171 -257 -225 -411 -238 -958 -139 -1237 225
-52 67 -153 253 -153 280 0 7 51 58 113 114 157 139 239 228 273 297 26 52 29
70 29 154 0 83 -3 102 -27 150 -34 69 -107 143 -170 173 -26 12 -47 26 -48 30
0 15 94 108 159 156 122 89 242 143 391 175 89 20 264 20 357 0z m-962 -503
c116 -53 167 -160 119 -253 -33 -66 -79 -111 -412 -404 -395 -350 -429 -384
-473 -472 -29 -58 -34 -77 -34 -142 0 -94 26 -145 99 -194 91 -62 144 -71 346
-57 194 13 326 30 502 66 l116 24 79 -35 c279 -120 605 -120 887 1 l81 35 65
-16 c126 -29 375 -64 549 -75 158 -11 182 -10 236 5 89 26 158 75 186 133 35
71 34 179 -3 248 -46 86 -103 143 -473 472 -420 372 -445 401 -432 509 6 59
48 110 117 147 99 52 252 31 395 -53 229 -135 675 -743 778 -1061 73 -223 54
-443 -46 -541 -160 -157 -553 -303 -962 -358 -65 -9 -96 -18 -112 -33 -34 -30
-30 -83 11 -165 75 -149 141 -361 175 -560 22 -130 17 -169 -31 -218 -34 -36
-57 -44 -228 -78 -305 -61 -650 -86 -947 -68 -260 16 -586 63 -711 103 -42 14
-91 55 -104 88 -35 92 52 462 167 708 80 171 64 201 -114 227 -356 51 -705
172 -883 306 -81 61 -102 94 -128 195 -43 168 -12 343 103 574 152 308 526
777 702 881 131 77 289 103 380 61z m-230 -918 c42 -92 134 -222 215 -305 l76
-77 -66 -11 c-215 -38 -475 -57 -537 -41 -63 17 -88 42 -88 88 0 60 32 99 210
259 88 79 161 144 162 144 1 0 13 -26 28 -57z m2261 -124 c169 -151 206 -218
150 -274 -37 -37 -96 -48 -221 -40 -116 7 -275 26 -385 45 l-66 11 76 77 c81
83 173 213 216 306 l26 57 36 -32 c21 -18 96 -85 168 -150z"/>
</g>
</svg>
