<?xml version="1.0" standalone="no"?>
<!DOCTYPE svg PUBLIC "-//W3C//DTD SVG 20010904//EN"
 "http://www.w3.org/TR/2001/REC-SVG-20010904/DTD/svg10.dtd">
<svg version="1.0" xmlns="http://www.w3.org/2000/svg"
 width="512.000000pt" height="512.000000pt" viewBox="0 0 512.000000 512.000000"
 preserveAspectRatio="xMidYMid meet">
<metadata>
Created by potrace 1.16, written by Peter Selinger 2001-2019
</metadata>
<g transform="translate(0.000000,512.000000) scale(0.100000,-0.100000)"
fill="#000000" stroke="none">
<path d="M3433 4959 c-139 -18 -234 -133 -234 -283 0 -69 -2 -77 -34 -118 -78
-101 -125 -235 -125 -362 0 -63 4 -80 20 -96 39 -39 139 -16 140 33 4 110 41
238 82 290 l23 27 49 -25 c71 -36 181 -36 254 1 101 50 152 135 152 254 0 185
-139 303 -327 279z m123 -203 c28 -28 34 -42 34 -76 0 -34 -6 -48 -34 -76 -28
-28 -42 -34 -76 -34 -34 0 -48 6 -76 34 -28 28 -34 42 -34 76 0 34 6 48 34 76
28 28 42 34 76 34 34 0 48 -6 76 -34z"/>
<path d="M2207 4945 c-52 -20 -118 -69 -146 -110 -20 -29 -30 -35 -60 -35 -49
0 -132 -43 -172 -88 -55 -62 -71 -113 -67 -206 3 -71 7 -90 33 -131 37 -60
103 -112 161 -127 l44 -12 0 -177 0 -176 -31 -7 c-17 -3 -42 -6 -54 -6 -12 0
-34 -9 -49 -21 -21 -16 -26 -29 -26 -64 0 -42 3 -46 104 -142 l104 -98 -24
-120 c-30 -152 -30 -176 -1 -203 40 -38 81 -29 210 42 l115 63 119 -65 c65
-36 119 -66 121 -67 1 -1 -3 -36 -10 -78 l-12 -77 -687 0 -688 0 -18 -24 c-13
-16 -25 -63 -37 -143 l-18 -118 -199 -279 c-173 -243 -199 -284 -199 -317 0
-45 0 -45 178 -204 l142 -127 0 -574 c0 -550 1 -575 19 -593 23 -23 24 -23
376 -61 154 -17 290 -33 303 -35 22 -5 22 -7 22 -185 0 -167 1 -181 20 -200
20 -20 33 -20 940 -20 907 0 920 0 940 20 19 19 20 33 20 383 l0 363 64 255
c125 491 150 671 151 1086 l0 293 336 0 336 0 61 30 c113 57 172 154 171 280
0 41 -6 92 -13 113 -32 89 -113 168 -195 190 -38 10 -49 20 -83 74 -22 35 -56
78 -77 95 -20 18 -59 70 -85 115 -111 185 -288 331 -498 408 l-48 18 22 31
c42 59 140 145 207 180 l66 34 39 -45 c52 -60 103 -83 186 -83 144 0 240 96
240 240 0 101 -49 181 -135 221 -50 23 -151 25 -203 3 -49 -20 -100 -70 -122
-118 -15 -31 -28 -42 -74 -61 -138 -56 -277 -170 -356 -292 l-45 -70 -125 -6
c-73 -3 -160 -15 -209 -27 -227 -56 -445 -211 -568 -403 l-50 -77 -11 67 -12
68 105 100 c95 90 105 103 105 135 0 49 -23 78 -68 85 -20 4 -49 9 -64 11
l-28 6 0 183 0 183 44 26 c92 54 135 133 136 247 0 61 -5 85 -26 127 -42 85
-136 151 -215 152 -30 0 -40 6 -60 35 -29 43 -94 91 -150 110 -52 19 -171 18
-222 0z m191 -175 c18 -11 41 -34 50 -51 37 -67 51 -79 95 -79 65 0 113 -18
141 -51 53 -62 20 -156 -62 -179 -49 -13 -555 -13 -604 0 -51 14 -88 61 -88
110 0 73 65 120 167 120 44 0 58 12 95 79 24 43 74 71 128 71 28 0 58 -8 78
-20z m1972 -480 c11 -11 20 -33 20 -50 0 -17 -9 -39 -20 -50 -11 -11 -33 -20
-50 -20 -17 0 -39 9 -50 20 -11 11 -20 33 -20 50 0 17 9 39 20 50 11 11 33 20
50 20 17 0 39 -9 50 -20z m-1830 -222 l-1 -173 -63 132 c-64 131 -82 153 -128
153 -43 0 -70 -32 -128 -154 l-58 -121 -1 168 -1 167 190 0 190 0 0 -172z
m-160 -244 c27 -66 49 -83 121 -91 83 -9 86 -14 34 -58 -61 -49 -69 -73 -55
-153 6 -36 9 -66 7 -68 -2 -2 -28 9 -58 26 -68 37 -85 37 -159 0 -33 -16 -61
-30 -64 -30 -2 0 0 17 5 38 5 20 9 57 9 82 0 40 -5 49 -52 97 -57 58 -60 55
43 68 56 7 76 25 108 93 14 29 28 52 32 52 3 0 17 -25 29 -56z m1298 -90 c154
-31 295 -108 409 -223 l66 -66 -52 -6 c-29 -4 -65 -12 -81 -19 -28 -12 -32
-10 -81 34 -59 53 -167 109 -254 131 -33 8 -103 15 -160 15 -188 0 -321 -54
-451 -184 -92 -92 -156 -206 -177 -314 l-12 -62 -73 0 -74 0 7 43 c13 75 46
170 88 252 52 101 188 242 292 303 168 99 368 134 553 96z m-33 -316 c48 -12
140 -59 177 -90 l28 -23 -41 -63 -40 -63 -32 27 c-61 52 -124 74 -212 74 -67
0 -90 -5 -140 -29 -70 -33 -136 -101 -161 -167 l-17 -44 -74 0 -75 0 7 33 c13
64 67 159 125 218 119 121 289 169 455 127z m602 -164 c55 -20 116 -87 137
-152 20 -58 43 -76 114 -85 166 -21 179 -242 17 -286 -25 -7 -159 -11 -355
-11 -196 0 -330 4 -355 11 -98 27 -145 134 -95 216 25 42 60 64 112 70 72 9
93 26 116 90 32 88 92 142 179 162 42 10 69 6 130 -15z m-727 -416 c0 -85 71
-195 154 -238 55 -30 56 -32 56 -300 0 -363 -32 -595 -141 -1033 l-69 -278 0
-334 0 -335 -800 0 -800 0 0 180 c0 165 -2 182 -19 199 -24 24 -23 24 -371 61
-157 17 -295 33 -307 36 l-23 4 0 305 0 305 73 0 c179 1 290 35 373 115 51 48
57 85 23 129 -30 38 -87 36 -137 -4 -61 -49 -107 -63 -224 -68 l-108 -5 0 171
0 170 -139 124 c-77 67 -140 126 -140 130 -1 4 78 117 174 252 96 134 179 255
184 268 4 13 12 50 15 83 4 33 10 70 13 83 l5 22 1104 0 1104 0 0 -42z"/>
<path d="M1444 2520 c-29 -12 -54 -49 -54 -80 0 -68 116 -201 218 -248 51 -24
68 -27 172 -27 107 0 119 2 175 29 105 52 205 172 205 246 0 45 -15 67 -53 79
-45 15 -81 1 -102 -39 -26 -50 -87 -112 -130 -131 -96 -44 -228 -10 -283 72
-63 94 -100 119 -148 99z"/>
<path d="M1255 4381 c-87 -40 -135 -120 -135 -223 0 -78 23 -131 77 -179 54
-49 99 -62 189 -57 l74 5 30 -47 c61 -95 85 -175 106 -353 3 -28 14 -57 25
-68 27 -27 92 -26 120 2 20 20 21 29 16 123 -3 55 -12 128 -21 161 -21 76 -81
204 -122 263 -27 37 -31 49 -23 69 16 41 10 145 -10 188 -23 49 -74 99 -123
119 -52 22 -153 20 -203 -3z m155 -171 c11 -11 20 -33 20 -50 0 -17 -9 -39
-20 -50 -11 -11 -33 -20 -50 -20 -17 0 -39 9 -50 20 -11 11 -20 33 -20 50 0
17 9 39 20 50 11 11 33 20 50 20 17 0 39 -9 50 -20z"/>
<path d="M405 4196 c-83 -19 -144 -45 -155 -67 -17 -31 -12 -87 11 -110 24
-24 70 -23 174 5 33 9 100 16 151 16 77 0 93 3 112 20 28 27 30 88 3 121 -18
22 -27 24 -128 26 -63 1 -133 -3 -168 -11z"/>
<path d="M897 4068 c-9 -7 -21 -26 -26 -41 -16 -41 4 -77 72 -136 49 -43 65
-51 98 -51 50 0 79 27 79 76 0 48 -11 66 -76 119 -44 35 -64 45 -93 45 -20 0
-45 -6 -54 -12z"/>
<path d="M724 3741 c-59 -27 -109 -75 -138 -133 -21 -42 -26 -66 -26 -127 1
-120 51 -205 152 -255 74 -37 182 -37 256 0 57 28 116 90 134 141 7 18 18 33
26 33 8 0 42 -13 76 -30 61 -29 103 -64 163 -133 27 -31 37 -37 72 -37 77 0
106 72 60 146 -55 90 -209 192 -325 217 -52 11 -59 15 -89 63 -36 56 -81 95
-138 119 -52 21 -171 19 -223 -4z m192 -185 c28 -28 34 -42 34 -76 0 -34 -6
-48 -34 -76 -28 -28 -42 -34 -76 -34 -34 0 -48 6 -76 34 -73 73 -26 185 80
186 30 0 45 -7 72 -34z"/>
</g>
</svg>
