<?xml version="1.0" standalone="no"?>
<!DOCTYPE svg PUBLIC "-//W3C//DTD SVG 20010904//EN"
 "http://www.w3.org/TR/2001/REC-SVG-20010904/DTD/svg10.dtd">
<svg version="1.0" xmlns="http://www.w3.org/2000/svg"
 width="512.000000pt" height="512.000000pt" viewBox="0 0 512.000000 512.000000"
 preserveAspectRatio="xMidYMid meet">
<metadata>
Created by potrace 1.16, written by Peter Selinger 2001-2019
</metadata>
<g transform="translate(0.000000,512.000000) scale(0.100000,-0.100000)"
fill="#000000" stroke="none">
<path d="M1352 5105 c-57 -25 -107 -71 -138 -127 l-29 -53 -3 -780 -2 -779
-109 -111 c-138 -140 -156 -172 -156 -285 0 -76 3 -91 30 -139 37 -67 102
-117 177 -138 l58 -16 0 -248 0 -248 -217 -3 -218 -3 -53 -30 c-122 -67 -177
-202 -138 -337 20 -69 86 -147 154 -180 44 -21 61 -23 260 -26 l212 -4 0 -313
c0 -301 1 -313 21 -339 29 -37 89 -37 118 0 20 26 21 38 21 340 l0 313 353 3
352 3 50 27 c103 54 154 137 163 261 l5 79 184 -184 c101 -100 190 -192 196
-203 9 -14 13 -166 17 -545 l5 -525 30 -54 c71 -128 232 -183 369 -126 56 23
121 89 147 148 23 50 24 62 27 342 3 284 3 292 -18 318 -27 34 -89 38 -120 7
-19 -19 -20 -33 -20 -282 0 -149 -5 -279 -10 -300 -22 -78 -109 -117 -177 -78
-71 40 -67 9 -73 590 l-5 525 -23 45 c-15 29 -125 146 -300 323 -260 260 -279
277 -313 277 -24 0 -42 -7 -57 -22 -19 -21 -21 -36 -24 -200 -3 -160 -5 -179
-24 -205 -47 -65 -28 -63 -674 -63 -537 0 -588 1 -620 18 -41 20 -80 74 -80
111 0 40 33 92 71 113 31 17 68 18 527 18 l493 0 24 25 25 24 0 295 c0 184 4
305 11 323 5 15 147 165 315 334 273 274 304 308 304 337 0 22 -9 42 -25 58
l-25 25 -263 -3 c-249 -3 -265 -4 -312 -26 -38 -18 -113 -86 -320 -292 -302
-301 -306 -303 -384 -259 -63 35 -85 97 -57 162 18 41 632 652 669 666 19 7
200 11 523 11 424 0 500 -2 532 -15 24 -11 140 -118 342 -320 238 -237 316
-309 355 -327 49 -22 60 -23 440 -28 437 -6 431 -5 462 -77 21 -51 9 -100 -34
-140 l-34 -33 -471 0 -471 0 -171 169 c-167 165 -201 190 -243 177 -10 -3
-150 -138 -311 -299 -269 -270 -292 -295 -292 -327 0 -32 26 -60 340 -375 258
-258 343 -349 350 -375 6 -19 10 -110 10 -202 0 -155 2 -170 20 -188 33 -33
85 -30 118 7 23 26 24 28 20 227 -3 187 -5 204 -27 246 -15 29 -131 153 -329
352 l-307 308 215 215 214 214 132 -129 c94 -93 147 -137 185 -155 l54 -25
358 0 357 0 0 -1167 c0 -1092 -1 -1170 -18 -1202 -9 -19 -30 -44 -45 -55 -28
-21 -30 -21 -1310 -21 -1255 0 -1283 0 -1314 20 -59 35 -63 57 -63 319 0 222
-1 237 -20 256 -11 11 -30 22 -44 26 -32 8 -84 -20 -91 -49 -4 -13 -5 -138 -3
-278 l3 -254 30 -54 c33 -59 99 -115 154 -132 24 -7 464 -9 1361 -7 1257 3
1327 4 1361 21 51 26 108 84 133 137 21 45 21 47 24 1243 l2 1197 58 0 c156 0
284 147 269 309 -13 148 -134 261 -279 261 l-48 0 0 354 0 355 -24 27 c-31 37
-90 39 -117 5 -18 -22 -19 -46 -19 -382 l0 -359 -233 0 c-127 0 -248 4 -266
10 -26 7 -115 89 -350 323 -270 268 -323 317 -366 333 -47 18 -84 19 -595 19
-513 0 -548 -1 -595 -19 -40 -15 -81 -50 -197 -164 l-148 -146 0 668 c0 739
-2 718 64 754 29 16 123 17 1313 17 1280 0 1282 0 1310 -21 62 -45 63 -52 63
-456 0 -355 1 -369 20 -388 31 -31 93 -27 120 7 21 27 21 32 18 418 -3 373 -4
392 -24 435 -25 53 -82 111 -133 137 -34 17 -104 18 -1371 20 -1151 2 -1340 0
-1368 -12z m611 -2057 c-141 -143 -240 -250 -254 -278 -23 -44 -24 -54 -27
-317 l-3 -273 -170 0 -169 0 0 263 0 264 270 269 c149 148 285 277 303 287 25
14 57 17 157 17 l124 0 -231 -232z"/>
<path d="M3065 4748 c-165 -31 -306 -166 -350 -333 -82 -316 188 -615 511
-565 227 35 384 219 384 450 0 223 -143 400 -359 446 -74 15 -114 16 -186 2z
m211 -177 c61 -27 110 -76 144 -143 120 -241 -131 -506 -378 -398 -73 32 -147
114 -168 187 -69 238 176 453 402 354z"/>
</g>
</svg>
