<?xml version="1.0" standalone="no"?>
<!DOCTYPE svg PUBLIC "-//W3C//DTD SVG 20010904//EN"
 "http://www.w3.org/TR/2001/REC-SVG-20010904/DTD/svg10.dtd">
<svg version="1.0" xmlns="http://www.w3.org/2000/svg"
 width="512.000000pt" height="512.000000pt" viewBox="0 0 512.000000 512.000000"
 preserveAspectRatio="xMidYMid meet">
<metadata>
Created by potrace 1.16, written by Peter Selinger 2001-2019
</metadata>
<g transform="translate(0.000000,512.000000) scale(0.100000,-0.100000)"
fill="#000000" stroke="none">
<path d="M1986 5099 c-20 -16 -26 -29 -26 -58 0 -51 22 -69 89 -73 80 -5 103
-37 145 -209 37 -150 50 -180 98 -226 63 -60 176 -86 218 -48 51 46 29 118
-39 130 -47 8 -85 35 -107 76 -8 17 -27 83 -41 147 -14 64 -31 128 -38 142
-20 40 -87 104 -127 123 -52 24 -138 23 -172 -4z"/>
<path d="M3365 5045 c-31 -31 -31 -46 1 -101 39 -67 26 -95 -106 -225 -145
-142 -173 -202 -150 -316 15 -70 45 -103 95 -103 49 0 79 31 71 73 -19 99 -19
115 3 151 12 19 62 72 112 117 99 90 126 132 140 219 23 145 -85 267 -166 185z"/>
<path d="M605 4976 c-41 -44 -60 -109 -52 -187 8 -73 22 -102 95 -187 120
-142 143 -199 107 -262 -22 -39 -19 -86 7 -104 107 -75 208 115 140 265 -10
24 -51 82 -89 129 -120 145 -135 190 -83 255 36 45 38 74 7 103 -37 35 -92 30
-132 -12z"/>
<path d="M4465 4987 c-25 -6 -55 -26 -85 -57 -59 -61 -85 -135 -76 -218 3 -31
9 -101 12 -156 8 -116 -4 -150 -66 -185 -57 -32 -67 -75 -25 -116 59 -60 171
-2 224 115 24 52 26 97 10 235 -14 114 -6 188 21 215 11 11 37 24 60 30 45 12
61 38 53 82 -10 52 -59 73 -128 55z"/>
<path d="M2915 4973 c-57 -14 -88 -84 -62 -145 39 -93 187 -64 187 38 0 18 -5
44 -11 57 -16 36 -72 60 -114 50z"/>
<path d="M1652 4793 c-16 -6 -42 -56 -42 -81 0 -32 23 -52 74 -65 81 -20 90
-44 96 -253 5 -169 5 -171 35 -220 56 -90 168 -141 216 -98 51 46 43 102 -18
127 -78 31 -93 73 -93 261 0 127 -2 146 -24 191 -28 59 -76 108 -128 129 -36
16 -90 20 -116 9z"/>
<path d="M3814 4763 c-33 -6 -65 -47 -70 -90 -10 -75 49 -125 127 -108 54 12
85 90 58 148 -16 36 -70 59 -115 50z"/>
<path d="M226 4689 c-58 -69 -15 -169 73 -169 28 0 48 7 68 24 24 21 28 32 28
76 0 44 -4 55 -28 76 -20 17 -40 24 -72 24 -36 0 -47 -5 -69 -31z"/>
<path d="M4903 4535 c-54 -38 -46 -147 14 -174 43 -20 82 -13 114 18 39 40 41
109 4 146 -29 30 -97 34 -132 10z"/>
<path d="M2714 4460 c-68 -27 -73 -146 -7 -181 59 -32 135 0 148 62 19 86 -60
152 -141 119z"/>
<path d="M1187 4429 c-29 -17 -50 -68 -43 -107 8 -55 41 -82 97 -82 40 0 51 4
73 31 57 68 15 169 -71 169 -21 0 -46 -5 -56 -11z"/>
<path d="M133 4163 c-12 -2 -33 -16 -47 -30 l-26 -26 0 -326 0 -326 140 -213
140 -213 0 -655 0 -656 29 -29 c41 -41 101 -41 142 0 l29 29 0 356 0 356 45 0
45 0 0 -329 c0 -181 3 -342 6 -360 10 -48 49 -81 96 -81 50 0 74 13 93 50 13
25 15 118 15 667 l0 638 50 -78 50 -78 0 -655 0 -656 29 -29 c41 -41 101 -41
142 0 l29 29 0 361 0 361 45 0 44 0 3 -357 c3 -384 4 -389 55 -412 55 -25 116
-6 142 46 8 15 11 212 11 670 0 578 2 651 16 671 15 22 17 22 30 5 11 -15 13
-133 14 -665 0 -378 4 -657 9 -671 24 -62 101 -87 156 -51 42 27 45 58 45 420
l0 344 45 0 45 0 0 -361 0 -361 29 -29 c57 -56 149 -30 171 49 6 22 10 162 10
338 l0 300 -160 170 c-183 193 -215 236 -230 307 -12 60 -6 101 39 289 17 70
31 134 31 142 0 12 -10 16 -35 16 -19 0 -35 2 -35 5 0 3 10 21 23 41 18 29 27
34 48 30 23 -4 29 0 44 34 37 81 150 160 230 160 l25 0 0 186 0 186 -29 29
c-24 23 -38 29 -74 29 -75 0 -107 -48 -107 -161 0 -48 -1 -49 -30 -49 l-30 0
0 155 0 155 -28 31 c-53 59 -150 38 -171 -38 -6 -22 -11 -149 -11 -301 0 -231
-2 -268 -17 -293 -10 -16 -20 -29 -23 -29 -3 0 -13 13 -23 29 -15 26 -17 62
-17 300 0 308 -4 331 -64 356 -44 19 -88 10 -118 -22 -22 -23 -23 -33 -26
-184 l-3 -159 -34 0 c-18 0 -40 -3 -49 -6 -14 -6 -16 19 -16 238 0 269 -2 277
-64 303 -60 25 -127 -11 -140 -76 -3 -18 -6 -149 -6 -293 -1 -260 -1 -261 -25
-301 l-25 -40 0 246 0 246 -25 25 c-46 46 -110 44 -154 -3 -18 -19 -21 -35
-21 -101 l0 -78 -43 6 c-134 19 -248 -94 -234 -230 6 -64 38 -116 94 -154 32
-23 49 -27 110 -27 l73 0 0 -37 0 -38 -124 0 -124 0 -76 118 -76 117 0 282 0
283 -27 29 c-29 30 -61 41 -100 34z m999 -954 c24 -6 66 -9 93 -5 49 5 51 4
73 -29 12 -19 22 -37 22 -40 0 -3 -70 -4 -155 -3 l-155 3 -25 41 -24 41 25 37
25 37 39 -35 c21 -19 58 -40 82 -47z"/>
<path d="M4019 4075 c-43 -23 -49 -59 -49 -306 l0 -228 -50 2 -50 2 0 158 0
159 -29 29 c-41 41 -98 41 -143 0 l-33 -29 -3 -293 -3 -294 -25 -32 c-23 -31
-24 -36 -24 -217 0 -173 1 -187 20 -206 20 -20 20 -33 20 -667 0 -729 -3 -703
72 -731 33 -13 41 -12 75 4 21 11 43 30 50 44 9 18 13 116 13 373 l0 347 45 0
45 0 0 -354 0 -354 25 -30 c42 -50 125 -48 161 6 18 26 19 61 19 682 l0 655
48 70 47 70 1 -630 c1 -347 4 -641 8 -654 18 -65 120 -87 170 -37 l26 26 3
360 3 360 44 0 45 0 0 -350 c0 -240 4 -357 11 -374 7 -14 28 -33 47 -42 29
-14 41 -14 73 -5 78 23 74 -15 74 721 l0 655 140 209 140 209 0 324 0 325 -33
29 c-36 32 -77 37 -121 15 -48 -25 -51 -45 -51 -344 l0 -276 -77 -118 -78
-118 -124 0 c-108 0 -122 2 -117 16 3 9 6 26 6 39 0 21 4 23 58 23 67 0 96 10
141 47 45 39 71 94 71 155 0 127 -83 210 -210 210 l-60 0 0 49 c0 73 -10 108
-38 136 -45 46 -130 29 -161 -32 -7 -14 -11 -103 -11 -255 l0 -233 -25 37 -25
37 0 276 c0 229 -3 283 -15 310 -25 52 -91 70 -146 40z m91 -900 l22 -35 -29
-45 -28 -45 -158 0 -158 0 30 43 29 43 69 -4 c75 -4 128 14 167 57 26 28 31
27 56 -14z"/>
<path d="M3243 4044 c-18 -9 -43 -33 -55 -53 l-23 -36 -3 -539 -3 -540 -116
-178 -116 -178 -301 0 -301 0 -122 131 c-68 72 -123 139 -123 148 0 9 16 81
35 160 30 125 33 150 24 190 -27 119 -167 162 -257 78 -34 -31 -43 -59 -97
-285 -57 -240 -56 -251 29 -341 29 -31 146 -154 259 -274 l207 -219 0 -261 0
-262 -251 -305 c-138 -168 -259 -323 -270 -345 -46 -98 -28 -126 223 -357 115
-106 221 -199 235 -207 38 -19 115 -17 153 5 66 40 94 140 58 209 -9 17 -82
91 -162 164 -81 74 -145 137 -144 141 2 3 57 72 123 153 l120 146 183 1 182 0
0 -537 c0 -601 -2 -583 70 -631 49 -33 146 -28 186 8 57 54 54 -5 54 1082 l0
1004 201 304 c111 168 210 323 220 345 17 37 19 78 19 605 0 529 -2 568 -19
606 -25 54 -74 84 -137 84 -27 0 -64 -8 -81 -16z"/>
<path d="M2153 3993 c-12 -2 -34 -18 -48 -34 l-25 -31 0 -273 0 -273 32 -13
c18 -7 46 -26 64 -41 l32 -29 79 78 c43 43 97 87 121 98 l44 19 -4 104 c-3
104 -3 104 -37 134 -30 26 -39 30 -77 25 l-44 -5 0 67 c0 117 -24 162 -90 174
-14 3 -35 3 -47 0z"/>
<path d="M2839 3891 c-16 -16 -29 -38 -29 -49 0 -16 -6 -18 -53 -14 -46 4 -55
1 -78 -22 -33 -32 -39 -63 -39 -181 l0 -93 69 -12 c93 -15 180 -59 246 -121
l55 -52 0 257 0 258 -29 29 c-23 23 -38 29 -71 29 -33 0 -48 -6 -71 -29z"/>
<path d="M2553 3390 c-93 -20 -189 -92 -235 -177 -96 -176 -27 -395 154 -490
48 -25 62 -28 158 -28 101 0 108 1 168 34 102 56 163 142 182 257 34 205 -117
395 -322 409 -35 2 -82 0 -105 -5z"/>
<path d="M3377 2395 l-207 -315 0 -329 c0 -182 3 -332 8 -334 16 -10 63 6 87
30 l25 26 0 358 0 359 45 0 45 0 0 -340 c0 -384 2 -399 64 -425 46 -20 90 -10
121 27 l25 30 0 614 c0 338 -1 614 -3 614 -1 0 -95 -142 -210 -315z"/>
<path d="M2071 1840 l0 -305 39 45 39 45 1 218 0 218 -40 42 -39 42 0 -305z"/>
</g>
</svg>
