<?xml version="1.0" standalone="no"?>
<!DOCTYPE svg PUBLIC "-//W3C//DTD SVG 20010904//EN"
 "http://www.w3.org/TR/2001/REC-SVG-20010904/DTD/svg10.dtd">
<svg version="1.0" xmlns="http://www.w3.org/2000/svg"
 width="512.000000pt" height="512.000000pt" viewBox="0 0 512.000000 512.000000"
 preserveAspectRatio="xMidYMid meet">
<metadata>
Created by potrace 1.16, written by Peter Selinger 2001-2019
</metadata>
<g transform="translate(0.000000,512.000000) scale(0.100000,-0.100000)"
fill="#000000" stroke="none">
<path d="M1703 5090 c-39 -22 -61 -44 -83 -83 -29 -51 -30 -54 -30 -198 0
-167 5 -179 77 -179 67 0 77 20 81 164 3 106 6 124 25 144 20 22 59 28 92 16
44 -17 45 -29 45 -656 l0 -594 -80 1 -79 0 -3 341 c-3 320 -4 343 -22 363 -14
15 -31 21 -61 21 -71 0 -75 -11 -75 -197 0 -150 -1 -161 -21 -179 -35 -31
-146 -205 -183 -285 -83 -181 -114 -331 -124 -608 l-7 -204 -54 -14 c-173 -44
-296 -192 -308 -371 -14 -225 111 -447 316 -557 l74 -40 22 -90 c82 -325 274
-592 559 -776 49 -32 118 -70 153 -85 60 -26 64 -29 61 -56 -3 -27 -10 -32
-106 -68 -129 -49 -275 -125 -320 -167 -30 -28 -34 -37 -28 -65 16 -80 72 -89
178 -27 75 44 147 78 245 115 l63 24 21 -43 c123 -245 411 -338 658 -212 70
35 157 123 196 197 l31 57 105 -42 c126 -52 271 -136 371 -215 90 -73 239
-227 296 -310 l43 -62 -1271 0 -1271 0 40 58 c23 32 73 93 111 136 61 68 70
84 70 117 0 62 -62 97 -116 66 -55 -32 -203 -219 -280 -355 -49 -86 -53 -108
-23 -146 l20 -26 1449 0 1449 0 20 26 c29 37 26 59 -18 139 -97 174 -277 378
-446 504 -147 110 -255 169 -420 232 -93 35 -100 40 -103 67 -3 27 1 30 63 57
181 76 405 267 524 445 99 148 144 248 186 415 l22 90 74 40 c102 55 205 159
253 256 57 117 80 262 56 364 -17 74 -87 99 -136 50 -24 -24 -25 -29 -19 -103
17 -204 -99 -381 -297 -454 -33 -11 -63 -29 -69 -39 -5 -10 -16 -55 -25 -100
-52 -277 -225 -545 -454 -709 -70 -49 -261 -150 -286 -150 -6 0 -19 -9 -30
-21 -15 -17 -20 -42 -24 -133 -7 -133 -28 -185 -102 -258 -156 -152 -414 -101
-506 101 -21 45 -27 77 -31 162 -5 86 -10 111 -25 128 -11 12 -24 21 -29 21
-18 0 -195 88 -244 121 -219 148 -367 338 -456 586 -14 39 -33 108 -41 152 -9
45 -20 90 -26 101 -5 10 -32 26 -59 35 -64 21 -157 81 -198 128 -105 120 -141
293 -84 404 43 85 145 143 251 143 32 0 53 6 67 19 19 18 20 35 26 277 5 199
11 280 25 349 21 96 65 216 112 305 l29 55 1 -97 c0 -90 -2 -100 -29 -140 -39
-60 -51 -100 -51 -177 0 -79 12 -127 44 -173 20 -31 24 -49 28 -169 6 -149 18
-192 71 -248 87 -92 246 -96 339 -9 57 54 71 101 76 248 4 126 6 138 33 186
59 104 59 231 -1 327 l-30 48 0 319 0 319 29 15 c16 9 61 26 101 40 l73 24 24
-34 23 -35 0 -667 0 -667 24 -51 c84 -180 348 -180 432 0 l24 51 0 667 0 667
23 35 24 34 73 -24 c94 -32 130 -51 130 -69 0 -9 -13 -39 -30 -68 -60 -107
-61 -228 -3 -326 l28 -46 5 -440 c5 -437 5 -440 28 -484 46 -86 119 -130 215
-131 98 0 178 50 218 135 17 37 19 73 19 478 0 240 4 437 8 437 12 0 70 -120
98 -204 44 -128 55 -217 61 -485 5 -221 8 -256 23 -271 13 -13 43 -19 116 -24
98 -8 99 -7 121 19 46 53 20 118 -52 133 l-40 8 -7 204 c-4 113 -15 242 -23
289 -32 170 -94 329 -179 460 -34 52 -46 82 -46 109 0 54 -16 103 -50 153
l-30 44 0 368 c0 341 -1 370 -19 405 -44 87 -118 132 -214 132 -79 0 -125 -18
-177 -70 -63 -63 -70 -103 -70 -386 l0 -242 -85 27 c-59 18 -85 31 -85 42 0
32 -31 117 -55 153 -23 35 -25 45 -25 164 0 113 -3 133 -24 177 -44 93 -112
135 -218 135 -79 0 -133 -24 -179 -79 -49 -56 -59 -98 -59 -244 0 -75 -4 -128
-10 -132 -19 -12 -60 -104 -66 -148 l-6 -42 -84 -26 -84 -27 0 237 c0 130 -5
256 -11 281 -15 66 -52 116 -112 150 -44 25 -62 30 -122 30 -60 0 -78 -5 -122
-30z m916 -156 c16 -21 21 -41 21 -90 l0 -64 -80 0 -80 0 0 64 c0 82 23 116
80 116 30 0 43 -6 59 -26z m728 4 l23 -21 0 -303 0 -302 -80 -4 -80 -3 0 293
c0 347 3 359 84 361 18 1 39 -8 53 -21z m-707 -340 c75 -52 98 -125 61 -200
-28 -59 -79 -92 -141 -92 -62 0 -113 33 -141 92 -51 103 25 222 141 222 32 0
57 -7 80 -22z m0 -1055 l0 -604 -25 -24 c-32 -33 -78 -33 -110 0 l-25 24 0
604 0 603 80 0 80 0 0 -603z m747 579 c63 -45 83 -149 40 -213 -32 -49 -105
-83 -158 -74 -85 15 -151 112 -130 192 23 83 82 126 167 120 31 -2 62 -12 81
-25z m-17 -816 c0 -366 0 -370 -22 -393 -32 -34 -79 -31 -112 8 l-26 31 0 362
0 362 80 -1 80 0 0 -369z m-1487 230 c64 -27 114 -111 102 -170 -10 -48 -49
-101 -88 -119 -107 -51 -227 24 -227 141 0 112 113 191 213 148z m25 -528 c-4
-80 -31 -118 -83 -118 -51 0 -77 36 -82 117 l-5 68 87 0 87 0 -4 -67z"/>
<path d="M1177 2622 c-22 -24 -22 -95 -1 -113 24 -20 51 -79 58 -132 5 -29 16
-55 29 -67 28 -26 77 -26 106 2 49 45 10 220 -67 301 -32 33 -99 38 -125 9z"/>
<path d="M3810 2603 c-43 -48 -68 -107 -78 -181 -12 -90 11 -131 74 -132 43 0
71 31 80 87 7 53 34 112 58 132 10 8 16 29 16 56 0 53 -22 75 -77 75 -35 0
-46 -6 -73 -37z"/>
<path d="M1712 2364 c-17 -12 -22 -25 -22 -59 0 -39 5 -47 42 -80 127 -108
305 -130 462 -57 86 40 136 90 136 134 0 81 -77 103 -154 44 -110 -84 -241
-80 -349 10 -33 28 -82 31 -115 8z"/>
<path d="M2810 2358 c-12 -13 -20 -35 -20 -56 0 -44 50 -94 136 -134 157 -73
335 -51 462 57 36 31 42 42 42 76 0 75 -76 106 -137 55 -108 -90 -238 -95
-347 -11 -55 42 -104 47 -136 13z"/>
<path d="M2454 1701 c-28 -12 -54 -49 -54 -77 0 -12 9 -33 21 -48 20 -25 23
-26 139 -26 116 0 119 1 139 26 28 35 26 67 -3 101 -23 27 -29 28 -123 30 -54
2 -108 -1 -119 -6z"/>
</g>
</svg>
