<?xml version="1.0" standalone="no"?>
<!DOCTYPE svg PUBLIC "-//W3C//DTD SVG 20010904//EN"
 "http://www.w3.org/TR/2001/REC-SVG-20010904/DTD/svg10.dtd">
<svg version="1.0" xmlns="http://www.w3.org/2000/svg"
 width="512.000000pt" height="512.000000pt" viewBox="0 0 512.000000 512.000000"
 preserveAspectRatio="xMidYMid meet">
<metadata>
Created by potrace 1.16, written by Peter Selinger 2001-2019
</metadata>
<g transform="translate(0.000000,512.000000) scale(0.100000,-0.100000)"
fill="#000000" stroke="none">
<path d="M2480 5040 l0 -80 320 0 320 0 0 -80 0 -80 -280 0 -280 0 0 -80 0
-80 340 0 c327 0 341 1 360 20 19 19 20 33 20 220 0 187 -1 201 -20 220 -19
19 -33 20 -400 20 l-380 0 0 -80z"/>
<path d="M807 5024 c-179 -27 -344 -80 -445 -142 -183 -111 -307 -257 -347
-407 -19 -73 -19 -213 -1 -282 35 -130 133 -258 249 -323 32 -18 56 -35 54
-39 -89 -166 -104 -304 -47 -439 13 -33 23 -90 30 -187 39 -511 254 -965 568
-1197 62 -46 214 -128 237 -128 12 0 15 -14 15 -59 l0 -59 -47 -7 c-247 -37
-476 -204 -588 -430 -84 -169 -85 -175 -85 -767 0 -505 1 -519 20 -538 20 -20
33 -20 940 -20 907 0 920 0 940 20 19 19 20 33 20 537 0 492 -1 521 -21 603
l-21 86 180 360 180 360 -75 38 c-41 20 -77 36 -78 34 -2 -2 -71 -139 -154
-306 l-152 -303 -68 73 -69 73 118 236 118 235 -75 38 c-41 20 -77 36 -78 34
-2 -2 -53 -103 -114 -225 l-111 -222 -53 24 c-55 25 -195 65 -229 65 -15 0
-18 8 -18 58 l0 57 48 17 c172 62 378 245 505 449 154 247 267 628 267 900 0
41 8 73 27 115 24 51 28 74 31 176 4 123 -8 186 -49 254 -11 17 -19 34 -19 38
0 3 21 17 48 30 57 30 122 95 153 156 17 34 24 67 27 138 4 91 4 95 -33 169
-29 58 -59 98 -129 168 -50 51 -104 101 -121 113 l-30 20 22 24 c52 55 70 178
37 256 -20 49 -70 100 -119 123 -53 25 -156 25 -210 0 -49 -22 -109 -86 -125
-135 -6 -20 -13 -36 -15 -36 -2 0 -32 13 -67 28 -146 66 -340 122 -506 147
-122 19 -415 18 -535 -1z m599 -183 c113 -23 302 -86 409 -135 128 -60 399
-217 468 -273 67 -54 144 -141 174 -197 23 -45 14 -135 -19 -179 -31 -40 -110
-80 -218 -110 -74 -21 -90 -22 -845 -22 -864 0 -822 -3 -981 75 -100 49 -172
122 -204 208 -31 81 -25 205 13 279 36 70 134 173 218 229 214 142 638 196
985 125z m805 11 c50 -41 15 -122 -52 -122 -38 0 -69 32 -69 70 0 61 71 91
121 52z m-803 -1091 c619 0 827 -2 837 -11 8 -7 26 -36 41 -66 22 -45 26 -68
26 -132 0 -47 -7 -92 -17 -115 -15 -37 -90 -127 -105 -127 -4 0 -69 78 -145
173 -76 94 -145 178 -153 185 -25 19 -89 15 -112 -8 -18 -18 -20 -33 -20 -137
l0 -117 -138 137 c-134 132 -140 137 -180 137 -72 0 -82 -19 -82 -157 l0 -117
-138 137 c-134 132 -140 137 -180 137 -72 0 -82 -19 -82 -157 l0 -117 -138
137 c-134 132 -140 137 -180 137 -29 0 -48 -6 -62 -20 -18 -18 -20 -33 -20
-180 0 -88 -4 -160 -8 -160 -22 0 -94 77 -117 125 -24 48 -27 64 -23 127 4 79
22 126 67 175 26 29 31 31 67 22 22 -5 394 -9 862 -8z m-370 -641 c72 0 82 19
82 157 l0 117 138 -137 c134 -132 140 -137 180 -137 72 0 82 19 82 157 l0 117
138 -137 c134 -132 140 -137 180 -137 70 0 82 21 82 141 l0 101 91 -113 c50
-63 96 -117 102 -121 17 -11 71 -10 101 2 24 9 26 7 26 -15 0 -13 -9 -70 -20
-127 -97 -499 -377 -877 -715 -963 -76 -19 -214 -19 -290 0 -375 98 -660 525
-738 1107 l-5 36 45 -20 c25 -11 72 -22 103 -25 49 -5 60 -3 79 16 19 19 21
32 21 138 l0 117 138 -137 c134 -132 140 -137 180 -137z m402 -1380 c0 -116 9
-133 79 -144 37 -6 41 -9 30 -22 -32 -39 -71 -49 -189 -49 -118 0 -157 10
-189 49 -11 13 -7 16 30 22 70 11 79 28 79 144 l0 100 80 0 80 0 0 -100z
m-429 -240 c60 -89 154 -140 255 -140 l54 0 0 -78 c0 -64 5 -87 26 -130 44
-90 135 -152 219 -152 91 0 152 68 156 172 l2 46 67 4 c78 6 154 42 200 95
l30 33 35 -54 c73 -109 104 -252 105 -473 l0 -103 -120 0 -120 0 0 120 0 120
-80 0 -80 0 0 -400 0 -400 -400 0 -400 0 0 400 0 400 -80 0 -80 0 0 -120 0
-120 -122 0 -121 0 6 168 c4 101 13 190 23 226 35 131 118 260 220 339 49 39
148 97 164 97 4 0 22 -23 41 -50z m-211 -1140 l0 -200 -120 0 -120 0 0 200 0
200 120 0 120 0 0 -200z m1360 0 l0 -200 -120 0 -120 0 0 200 0 200 120 0 120
0 0 -200z"/>
<path d="M1060 2940 c-13 -13 -20 -33 -20 -60 0 -53 27 -80 80 -80 53 0 80 27
80 80 0 53 -27 80 -80 80 -27 0 -47 -7 -60 -20z"/>
<path d="M1540 2940 c-13 -13 -20 -33 -20 -60 0 -51 27 -80 74 -80 50 0 67 9
81 43 15 35 4 85 -22 105 -27 19 -90 15 -113 -8z"/>
<path d="M1228 2710 c-9 -6 -24 -35 -33 -66 -14 -47 -21 -58 -50 -70 -19 -8
-59 -14 -90 -14 -69 0 -95 -21 -95 -80 0 -67 22 -80 133 -80 67 0 103 5 132
19 46 21 112 89 121 126 8 32 20 32 28 0 9 -37 75 -105 121 -126 29 -14 65
-19 133 -19 110 0 132 13 132 80 0 59 -26 80 -95 80 -31 0 -71 6 -90 14 -29
12 -36 23 -50 70 -9 32 -24 60 -35 66 -32 17 -88 12 -110 -10 l-20 -20 -20 20
c-22 22 -82 27 -112 10z"/>
<path d="M3360 4880 l0 -80 800 0 800 0 0 -1240 0 -1240 -40 0 -40 0 0 -80 0
-80 100 0 c159 0 140 -188 140 1400 0 1347 0 1360 -20 1380 -20 20 -33 20
-880 20 l-860 0 0 -80z"/>
<path d="M3120 4223 l0 -178 -72 -72 -73 -73 63 -62 62 -63 50 50 50 49 50
-49 50 -50 62 63 63 62 -73 73 -72 72 0 178 0 177 -80 0 -80 0 0 -177z"/>
<path d="M4523 4046 c-37 -17 -41 -30 -73 -209 -26 -151 -47 -194 -126 -263
-46 -40 -73 -75 -95 -120 -28 -57 -31 -71 -27 -127 8 -96 53 -166 146 -226
137 -87 319 -74 419 31 72 75 113 221 94 338 -11 66 -208 528 -240 562 -23 24
-61 30 -98 14z m168 -594 c19 -88 -22 -197 -84 -223 -97 -41 -237 31 -237 122
0 15 27 49 81 102 57 56 89 96 110 140 16 34 29 69 30 77 1 23 88 -167 100
-218z"/>
<path d="M2992 3673 c-7 -3 -35 -49 -62 -102 l-48 -97 74 -37 c41 -20 76 -37
77 -37 2 0 16 27 32 60 l29 60 106 0 106 0 29 -60 c16 -33 30 -60 32 -60 1 0
36 17 77 37 l74 37 -48 97 c-27 53 -56 99 -65 103 -20 7 -394 7 -413 -1z"/>
<path d="M2828 3348 c-20 -16 -341 -419 -336 -422 1 -1 29 -23 61 -49 33 -26
63 -47 68 -47 5 0 75 83 156 185 l148 185 275 0 275 0 148 -185 c81 -102 151
-185 156 -185 5 0 35 21 68 47 32 26 60 48 61 49 5 3 -316 406 -336 422 -12 9
-102 12 -372 12 -270 0 -360 -3 -372 -12z"/>
<path d="M3015 3101 c-74 -35 -135 -120 -135 -191 l0 -30 84 0 c82 0 84 1 90
26 9 35 60 54 146 54 86 0 137 -19 146 -54 6 -25 8 -26 90 -26 l84 0 0 30 c0
71 -61 156 -135 191 -33 15 -65 19 -185 19 -120 0 -152 -4 -185 -19z"/>
<path d="M4168 3038 c-50 -54 -146 -208 -215 -344 l-66 -131 -106 -7 c-345
-23 -625 -155 -863 -405 -180 -188 -299 -426 -344 -681 -25 -144 -16 -365 20
-484 81 -271 268 -523 503 -679 202 -135 444 -218 678 -234 217 -14 356 90
355 266 -1 37 -7 93 -15 126 -23 93 -20 119 16 149 17 14 36 26 42 26 7 0 80
-135 162 -300 82 -165 151 -300 152 -300 2 0 36 17 77 37 l74 37 -134 269
c-75 148 -134 270 -132 271 2 2 32 8 68 15 36 6 77 14 92 17 26 6 30 1 189
-317 88 -178 162 -325 164 -327 1 -2 37 14 78 34 l75 38 -161 324 c-152 304
-161 325 -143 336 11 6 53 38 95 71 128 103 226 254 272 420 18 69 20 97 17
239 -4 148 -7 169 -36 256 -17 52 -53 133 -79 179 -81 143 -260 315 -441 421
-53 31 -71 47 -68 59 20 64 39 222 43 361 5 157 5 166 -15 183 -24 22 -262
107 -299 107 -15 0 -36 -12 -55 -32z m153 -175 l49 -18 0 -55 c0 -188 -67
-478 -160 -690 -34 -78 -419 -890 -427 -899 -2 -2 -5 -2 -7 0 -7 8 162 957
189 1053 51 189 145 395 251 556 26 38 49 70 52 70 2 0 26 -8 53 -17z m-501
-478 c0 -3 -11 -49 -25 -102 -22 -82 -125 -647 -125 -682 0 -6 -7 -11 -16 -11
-8 0 -39 -11 -69 -25 -211 -100 -293 -353 -184 -566 32 -64 111 -136 187 -172
62 -29 75 -32 167 -32 128 1 191 24 275 102 135 125 172 323 90 484 l-30 59
141 294 c77 162 157 340 178 395 l38 101 74 -48 c219 -143 352 -310 411 -518
33 -117 31 -270 -5 -379 -35 -103 -73 -168 -143 -245 -133 -143 -280 -206
-496 -214 -188 -7 -294 -62 -343 -180 -19 -45 -19 -147 0 -210 53 -174 -33
-227 -285 -176 -388 79 -674 291 -840 619 -109 217 -121 469 -34 729 135 406
508 717 926 771 80 11 108 12 108 6z m-205 -1093 c-13 -70 -14 -98 -6 -130 30
-109 142 -161 246 -113 49 22 64 39 103 116 l31 60 1 -45 c0 -35 -8 -59 -32
-100 -98 -160 -322 -149 -409 22 -23 46 -25 134 -3 186 14 35 73 106 81 98 3
-2 -3 -44 -12 -94z"/>
<path d="M3255 2061 c-87 -40 -135 -120 -135 -223 1 -142 97 -238 240 -238
144 0 240 96 240 240 0 104 -53 187 -142 224 -52 22 -153 20 -203 -3z m155
-171 c11 -11 20 -33 20 -50 0 -17 -9 -39 -20 -50 -11 -11 -33 -20 -50 -20 -17
0 -39 9 -50 20 -11 11 -20 33 -20 50 0 17 9 39 20 50 11 11 33 20 50 20 17 0
39 -9 50 -20z"/>
<path d="M4484 1821 c-59 -27 -109 -75 -138 -133 -21 -42 -26 -66 -26 -127 1
-120 51 -205 152 -255 74 -37 182 -37 256 0 101 50 151 135 152 255 0 61 -5
85 -26 127 -50 101 -135 152 -254 152 -52 0 -88 -6 -116 -19z m192 -185 c28
-28 34 -42 34 -76 0 -34 -6 -48 -34 -76 -28 -28 -42 -34 -76 -34 -34 0 -48 6
-76 34 -28 28 -34 42 -34 76 0 34 6 48 34 76 28 28 42 34 76 34 34 0 48 -6 76
-34z"/>
<path d="M2935 1581 c-87 -40 -135 -120 -135 -223 1 -142 97 -238 240 -238
144 0 240 96 240 240 0 104 -53 187 -142 224 -52 22 -153 20 -203 -3z m155
-171 c11 -11 20 -33 20 -50 0 -17 -9 -39 -20 -50 -11 -11 -33 -20 -50 -20 -17
0 -39 9 -50 20 -11 11 -20 33 -20 50 0 17 9 39 20 50 11 11 33 20 50 20 17 0
39 -9 50 -20z"/>
<path d="M3095 1021 c-87 -40 -135 -120 -135 -223 1 -142 97 -238 240 -238
144 0 240 96 240 240 0 104 -53 187 -142 224 -52 22 -153 20 -203 -3z m155
-171 c11 -11 20 -33 20 -50 0 -17 -9 -39 -20 -50 -43 -43 -120 -11 -120 50 0
38 32 70 70 70 17 0 39 -9 50 -20z"/>
<path d="M2240 2240 l0 -80 320 0 320 0 0 80 0 80 -320 0 -320 0 0 -80z"/>
</g>
</svg>
