<?xml version="1.0" standalone="no"?>
<!DOCTYPE svg PUBLIC "-//W3C//DTD SVG 20010904//EN"
 "http://www.w3.org/TR/2001/REC-SVG-20010904/DTD/svg10.dtd">
<svg version="1.0" xmlns="http://www.w3.org/2000/svg"
 width="512.000000pt" height="512.000000pt" viewBox="0 0 512.000000 512.000000"
 preserveAspectRatio="xMidYMid meet">
<metadata>
Created by potrace 1.16, written by Peter Selinger 2001-2019
</metadata>
<g transform="translate(0.000000,512.000000) scale(0.100000,-0.100000)"
fill="#000000" stroke="none">
<path d="M3844 5051 c-48 -12 -80 -41 -114 -103 -30 -55 -33 -58 -70 -58 -104
0 -180 -79 -180 -187 0 -28 -6 -35 -42 -54 -89 -45 -122 -100 -116 -193 3 -54
10 -71 61 -149 45 -69 61 -87 81 -87 23 0 24 3 28 88 5 95 20 135 72 190 36
40 87 68 139 77 20 4 37 9 37 12 0 2 -14 22 -32 44 -20 25 -28 43 -22 47 6 4
34 22 62 40 l51 34 53 -54 c29 -30 73 -66 98 -81 90 -52 124 -59 325 -66 214
-8 243 -16 305 -87 46 -53 60 -93 60 -174 l0 -70 29 0 c25 0 36 11 85 86 30
47 58 102 62 121 18 93 -22 173 -110 219 l-56 29 0 48 c0 94 -61 158 -159 165
l-57 4 -29 56 c-34 64 -65 89 -121 102 -58 13 -109 -4 -165 -57 l-49 -46 -44
41 c-23 22 -52 44 -62 50 -29 15 -86 21 -120 13z"/>
<path d="M525 5012 c-63 -27 -98 -48 -153 -91 -51 -41 -152 -172 -152 -198 0
-10 20 -13 84 -13 77 0 85 2 91 20 4 12 47 82 96 156 49 74 89 137 89 139 0 8
-13 5 -55 -13z"/>
<path d="M923 5017 c2 -6 41 -68 86 -137 45 -69 84 -135 87 -147 6 -22 11 -23
96 -23 l89 0 -28 53 c-44 83 -155 188 -244 231 -83 39 -94 42 -86 23z"/>
<path d="M657 4860 c-48 -71 -87 -134 -87 -140 0 -6 66 -10 180 -10 99 0 180
2 180 5 0 7 -179 275 -184 275 -1 0 -42 -58 -89 -130z"/>
<path d="M166 4538 c-7 -29 -7 -107 0 -135 6 -22 12 -23 90 -23 l84 0 0 90 0
90 -84 0 c-78 0 -84 -1 -90 -22z"/>
<path d="M496 4515 c-4 -25 -4 -65 0 -90 l6 -45 243 0 c276 0 255 -7 255 90 0
97 21 90 -255 90 l-243 0 -6 -45z"/>
<path d="M2320 4138 l0 -423 90 0 90 -1 0 423 0 423 -90 0 -90 0 0 -422z"/>
<path d="M3791 4436 c-152 -33 -143 -14 -139 -321 l3 -251 38 -76 c128 -260
468 -317 672 -113 60 60 100 135 115 214 14 76 13 427 -2 454 -22 42 -37 46
-180 47 -147 0 -260 17 -334 50 -55 24 -43 24 -173 -4z m169 -254 c27 -33 25
-68 -5 -97 -28 -29 -61 -32 -93 -9 -50 35 -44 106 11 129 38 16 62 9 87 -23z
m328 5 c13 -12 22 -32 22 -49 0 -36 -40 -78 -75 -78 -33 0 -75 41 -75 74 0 39
11 57 43 71 35 15 52 11 85 -18z m-43 -392 c-105 -90 -281 -83 -369 14 l-20
22 50 50 51 51 34 -21 c49 -30 119 -28 156 3 l28 25 55 -55 55 -55 -40 -34z"/>
<path d="M1370 4372 c-119 -31 -241 -124 -307 -234 -38 -62 -73 -189 -73 -262
1 -125 58 -263 148 -358 30 -32 58 -58 61 -58 3 0 21 32 40 70 l33 70 -37 41
c-48 53 -65 96 -65 161 0 58 24 119 62 159 22 24 201 149 212 149 7 0 89 -121
84 -124 -1 -2 -45 -31 -96 -65 -96 -64 -119 -93 -107 -138 3 -13 14 -32 25
-43 18 -18 34 -20 168 -20 206 0 294 27 397 122 l54 49 86 -20 c48 -12 91 -21
96 -21 5 0 9 112 9 270 l0 270 -362 -1 c-308 0 -373 -3 -428 -17z"/>
<path d="M2650 4021 l0 -359 53 -30 c123 -72 224 -206 261 -349 20 -76 20
-211 1 -283 -36 -136 -138 -273 -256 -347 l-59 -36 0 -104 c0 -121 -10 -116
116 -58 152 69 291 185 381 318 l50 72 -18 45 c-16 41 -18 90 -19 510 0 526
-3 550 -71 680 -68 132 -203 243 -348 287 -24 7 -55 13 -68 13 l-23 0 0 -359z"/>
<path d="M220 4216 c0 -32 107 -163 175 -214 63 -47 171 -100 182 -88 2 2 -36
65 -86 139 -49 75 -92 145 -96 157 -6 18 -14 20 -91 20 -65 0 -84 -3 -84 -14z"/>
<path d="M570 4220 c0 -19 173 -270 182 -264 10 7 166 238 175 259 4 13 -21
15 -176 15 -115 0 -181 -4 -181 -10z"/>
<path d="M3345 4035 c-18 -17 -25 -35 -25 -62 1 -66 39 -93 132 -93 l51 0 -7
31 c-3 17 -6 58 -6 90 l0 59 -60 0 c-51 0 -65 -4 -85 -25z"/>
<path d="M4640 3969 l0 -91 66 4 c58 4 70 8 90 32 26 30 30 62 13 99 -15 33
-49 47 -114 47 l-55 0 0 -91z"/>
<path d="M3320 3337 l0 -406 26 -20 c15 -12 39 -21 54 -21 25 0 27 4 39 65 16
91 45 159 98 233 48 68 118 129 182 159 33 15 42 26 53 63 7 25 13 48 13 51 0
4 -28 27 -61 53 -61 46 -127 122 -158 184 l-17 32 -92 0 c-50 0 -102 3 -114 6
l-23 6 0 -405z"/>
<path d="M4693 3731 l-102 -6 -39 -60 c-37 -57 -115 -137 -176 -180 l-29 -21
16 -49 c15 -44 23 -53 71 -78 124 -65 229 -212 262 -367 17 -77 18 -80 46 -80
17 0 39 10 53 25 l25 24 0 401 c0 314 -3 400 -12 398 -7 -1 -59 -4 -115 -7z"/>
<path d="M1942 3670 c-108 -73 -204 -101 -370 -108 l-133 -5 -24 -31 c-57 -74
-94 -202 -95 -321 -1 -69 -29 -125 -101 -200 -45 -47 -60 -69 -57 -87 3 -22 8
-23 81 -26 l77 -3 0 -84 0 -85 170 0 170 0 0 -32 c-1 -132 -42 -241 -125 -327
-61 -64 -61 -63 11 -99 65 -33 159 -46 234 -32 99 18 154 52 273 168 l107 106
0 60 0 61 -51 30 c-105 62 -203 183 -245 303 -10 28 -22 52 -25 52 -4 0 -20
-7 -35 -15 -40 -20 -80 -19 -130 6 -107 51 -120 200 -24 269 43 31 116 38 159
15 18 -9 34 -15 36 -13 1 2 10 26 19 53 38 115 125 227 232 296 35 23 64 48
64 55 0 7 -28 19 -69 28 -39 9 -71 16 -73 16 -2 -1 -36 -23 -76 -50z"/>
<path d="M2280 3542 c-70 -23 -124 -58 -176 -113 -85 -91 -119 -185 -112 -314
19 -358 458 -525 713 -270 205 205 142 554 -121 677 -86 40 -217 49 -304 20z
m223 -275 c95 -73 80 -215 -29 -268 -57 -27 -110 -22 -159 16 -94 71 -86 194
15 263 47 32 123 27 173 -11z"/>
<path d="M3920 3366 l-12 -39 53 -53 c52 -52 55 -54 109 -54 54 0 57 2 108 53
l52 53 -13 38 -13 38 -136 2 -136 1 -12 -39z"/>
<path d="M0 3310 l0 -90 170 0 170 0 0 90 0 90 -170 0 -170 0 0 -90z"/>
<path d="M490 3310 l0 -90 255 0 255 0 0 90 0 90 -255 0 -255 0 0 -90z"/>
<path d="M3744 3181 c-78 -56 -124 -128 -148 -231 l-14 -61 131 3 131 3 27
110 28 110 -47 48 c-25 26 -51 47 -58 47 -6 0 -29 -13 -50 -29z"/>
<path d="M4281 3166 l-43 -44 28 -116 28 -116 128 0 c117 0 128 2 128 18 0 37
-33 128 -63 176 -33 52 -118 126 -146 126 -9 0 -36 -20 -60 -44z"/>
<path d="M0 2975 l0 -85 420 0 420 0 0 85 0 85 -420 0 -420 0 0 -85z"/>
<path d="M4013 2935 l-31 -126 32 -122 c29 -114 33 -122 56 -122 23 0 26 7 54
123 l30 122 -30 123 c-27 113 -31 122 -55 125 -23 3 -26 -2 -56 -123z"/>
<path d="M3269 2678 l-52 -69 41 -87 c49 -104 67 -196 53 -280 -27 -162 -106
-274 -254 -356 l-66 -37 70 -66 c38 -37 89 -95 112 -130 23 -34 45 -63 49 -63
28 0 85 145 99 252 10 69 18 90 65 165 75 119 95 179 101 293 4 69 1 112 -11
160 -23 90 -114 277 -137 283 -14 4 -31 -12 -70 -65z"/>
<path d="M0 2645 l0 -85 420 0 420 0 0 85 0 85 -420 0 -420 0 0 -85z"/>
<path d="M2320 2498 c-1 -266 -153 -478 -410 -570 -40 -15 -91 -22 -190 -25
-173 -7 -209 2 -272 68 l-48 49 -75 -37 c-41 -21 -75 -40 -75 -43 0 -22 71
-107 118 -140 83 -60 129 -70 322 -70 191 0 271 15 386 73 150 76 257 181 334
329 51 97 78 200 86 333 l7 105 -92 0 -91 0 0 -72z"/>
<path d="M3079 2474 c-20 -24 -145 -107 -214 -141 -33 -17 -95 -43 -137 -58
l-78 -28 0 -73 0 -74 93 -70 c52 -38 99 -70 106 -70 26 0 178 84 214 118 21
21 50 60 65 87 36 70 38 195 3 273 -25 56 -31 61 -52 36z"/>
<path d="M0 2310 l0 -90 335 0 335 0 0 90 0 90 -335 0 -335 0 0 -90z"/>
<path d="M4893 2279 l-113 -101 -32 24 -33 23 -387 3 c-423 3 -418 4 -472 -55
-43 -46 -48 -100 -44 -473 3 -327 4 -347 24 -385 12 -24 37 -49 60 -62 38 -22
44 -23 422 -23 425 0 417 -1 469 67 l28 36 5 322 5 322 148 132 c81 73 147
136 147 141 0 9 -98 123 -109 127 -3 1 -57 -43 -118 -98z m-293 -260 c-25 -23
-97 -88 -161 -144 l-116 -104 -56 57 -57 57 -60 -60 c-33 -33 -60 -64 -60 -70
0 -12 211 -225 223 -225 8 0 175 145 300 259 l27 25 0 -207 0 -207 -325 0
-325 0 0 330 0 330 328 0 327 -1 -45 -40z"/>
<path d="M2434 1663 c-87 -153 -165 -290 -174 -306 l-17 -27 -88 147 c-48 82
-88 149 -89 150 -1 1 -39 -10 -86 -23 -47 -14 -127 -28 -177 -31 l-93 -6 -30
-46 c-130 -204 -190 -451 -190 -786 l0 -175 58 1 57 0 27 57 c56 117 171 214
298 253 66 20 68 21 74 59 7 46 48 98 93 116 24 11 91 14 262 14 l231 0 5 23
c3 12 16 90 30 173 32 195 65 284 122 336 18 17 21 15 71 -35 l52 -53 -25 -34
c-34 -47 -40 -68 -80 -310 -19 -118 -37 -225 -40 -237 l-5 -23 -285 0 -285 0
0 -171 0 -171 243 4 c230 4 246 6 324 32 193 63 339 208 411 408 23 64 26 88
26 198 0 109 -3 135 -27 206 -30 91 -87 184 -150 247 -47 47 -361 287 -375
287 -5 0 -81 -125 -168 -277z"/>
<path d="M160 1065 l0 -505 420 0 420 0 0 505 0 505 -420 0 -420 0 0 -505z
m516 210 c65 -50 84 -143 41 -206 -67 -99 -192 -106 -262 -15 -109 143 78 330
221 221z"/>
<path d="M4945 1164 c-33 -31 -83 -76 -111 -100 l-50 -43 -49 24 -48 25 -369
0 c-404 0 -412 -1 -461 -59 -45 -54 -48 -86 -45 -469 3 -353 3 -357 26 -394
13 -20 40 -47 60 -60 37 -23 41 -23 394 -26 383 -3 415 0 469 45 57 48 59 62
60 400 l0 308 149 130 c82 72 149 135 150 141 0 6 -26 39 -57 72 l-58 62 -60
-56z m-315 -278 c0 -3 -155 -143 -273 -246 l-38 -33 -55 54 -54 54 -62 -63
-63 -62 110 -110 c60 -60 114 -110 118 -110 10 0 37 22 206 173 l121 108 0
-205 0 -206 -325 0 -325 0 0 325 0 325 320 0 c176 0 320 -2 320 -4z"/>
<path d="M1923 700 c-57 -29 -143 -107 -143 -130 0 -6 42 -10 110 -10 l110 0
0 85 c0 47 -4 85 -8 85 -5 0 -36 -14 -69 -30z"/>
<path d="M160 320 l0 -90 920 0 920 0 0 90 0 90 -920 0 -920 0 0 -90z"/>
</g>
</svg>
