<?xml version="1.0" standalone="no"?>
<!DOCTYPE svg PUBLIC "-//W3C//DTD SVG 20010904//EN"
 "http://www.w3.org/TR/2001/REC-SVG-20010904/DTD/svg10.dtd">
<svg version="1.0" xmlns="http://www.w3.org/2000/svg"
 width="512.000000pt" height="512.000000pt" viewBox="0 0 512.000000 512.000000"
 preserveAspectRatio="xMidYMid meet">
<metadata>
Created by potrace 1.16, written by Peter Selinger 2001-2019
</metadata>
<g transform="translate(0.000000,512.000000) scale(0.100000,-0.100000)"
fill="#000000" stroke="none">
<path d="M765 4866 c-147 -47 -267 -178 -290 -317 -6 -37 -11 -42 -69 -68 -74
-34 -138 -101 -156 -166 -18 -63 -7 -248 19 -350 30 -115 117 -285 196 -382
55 -69 211 -209 245 -221 6 -2 10 40 10 104 l0 107 -60 63 c-72 74 -91 116
-91 194 -1 76 26 135 82 182 24 21 52 45 62 53 10 9 17 29 17 53 0 126 95 282
221 363 58 37 155 69 210 69 25 0 44 6 54 18 8 9 32 37 53 61 45 54 96 78 185
87 l67 7 0 -82 0 -81 -60 0 c-75 0 -100 -20 -100 -80 0 -27 7 -47 20 -60 18
-18 33 -20 153 -20 149 0 187 12 244 71 44 47 63 97 63 169 0 101 -49 181
-135 221 -37 17 -72 19 -470 18 -319 0 -440 -4 -470 -13z"/>
<path d="M4560 3920 l0 -960 160 0 160 0 0 960 0 960 -160 0 -160 0 0 -960z"/>
<path d="M1072 4379 c-71 -28 -144 -101 -171 -174 -17 -45 -21 -79 -21 -170
l0 -115 -60 0 c-78 0 -100 -19 -100 -88 0 -46 2 -50 80 -127 l80 -80 0 -436 0
-437 109 -81 c59 -45 110 -81 113 -81 3 0 26 31 52 70 l46 70 0 215 c0 177 2
215 14 215 8 0 58 -9 111 -20 125 -26 195 -26 245 0 41 21 82 67 99 113 l11
27 -68 0 c-91 0 -186 17 -234 41 -86 44 -154 139 -165 230 l-6 49 77 0 76 0 0
-27 c0 -38 33 -89 72 -113 28 -17 51 -20 141 -20 l107 0 0 132 0 132 68 69 67
68 -23 37 c-63 101 -102 218 -102 302 0 25 -4 50 -8 56 -4 7 -56 10 -142 10
-91 -1 -148 4 -174 13 -45 16 -111 72 -132 113 -13 25 -20 28 -62 27 -26 0
-71 -9 -100 -20z m418 -329 c11 -11 20 -33 20 -50 0 -17 -9 -39 -20 -50 -11
-11 -33 -20 -50 -20 -17 0 -39 9 -50 20 -11 11 -20 33 -20 50 0 17 9 39 20 50
11 11 33 20 50 20 17 0 39 -9 50 -20z"/>
<path d="M3760 3680 l0 -720 160 0 160 0 0 720 0 720 -160 0 -160 0 0 -720z"/>
<path d="M2960 3440 l0 -480 160 0 160 0 0 480 0 480 -160 0 -160 0 0 -480z"/>
<path d="M2160 3200 l0 -240 160 0 160 0 0 240 0 240 -160 0 -160 0 0 -240z"/>
<path d="M3695 2781 c-16 -10 -57 -46 -90 -80 l-60 -61 108 -107 107 -108 66
65 c79 78 94 105 94 165 0 91 -54 145 -145 145 -32 0 -61 -7 -80 -19z"/>
<path d="M727 2625 c-27 -7 -50 -15 -52 -17 -2 -2 44 -61 102 -131 l107 -128
58 58 c32 31 58 60 58 64 0 7 -214 170 -221 168 -2 0 -26 -7 -52 -14z"/>
<path d="M1292 2608 c-11 -18 -30 -47 -42 -65 l-21 -32 73 -38 c40 -21 76 -39
79 -41 8 -3 45 186 38 192 -2 2 -27 7 -55 11 -50 6 -52 6 -72 -27z"/>
<path d="M1534 2415 c-21 -107 -42 -195 -46 -195 -5 0 -85 39 -180 86 l-171
86 -131 -131 -131 -130 -174 210 c-96 116 -179 213 -183 215 -26 16 -158 -95
-210 -176 -61 -95 -68 -143 -68 -444 0 -302 4 -327 67 -448 65 -124 197 -229
342 -272 41 -12 98 -16 223 -16 l168 0 0 159 0 158 -142 5 c-161 5 -208 19
-265 79 -54 58 -66 98 -71 257 l-5 142 82 0 81 0 0 -140 c0 -193 -19 -180 259
-180 l219 0 4 178 c3 155 5 181 23 211 26 44 62 70 111 81 51 12 797 12 848 0
98 -22 128 -73 135 -233 l6 -121 47 -27 c25 -15 79 -40 120 -55 68 -27 83 -28
228 -29 143 0 160 2 228 27 134 48 174 80 447 350 l260 257 -107 108 -108 107
-222 -220 c-202 -201 -230 -225 -302 -260 -70 -34 -88 -39 -173 -42 -117 -5
-199 15 -281 68 -31 20 -137 107 -235 193 -98 86 -203 172 -233 192 -103 69
-222 112 -385 139 l-36 6 -39 -195z"/>
<path d="M3920 2080 l0 -80 160 0 160 0 0 80 0 80 -160 0 -160 0 0 -80z"/>
<path d="M4400 2080 l0 -80 240 0 240 0 0 80 0 80 -240 0 -240 0 0 -80z"/>
<path d="M1360 1835 l0 -165 38 0 c53 0 135 -42 187 -96 l46 -47 22 20 c35 32
62 43 109 43 150 0 204 -200 76 -281 -33 -20 -110 -23 -149 -5 -13 5 -20 -5
-38 -53 -38 -104 -137 -186 -242 -198 l-49 -6 0 -83 0 -84 400 0 400 0 0 560
0 560 -400 0 -400 0 0 -165z"/>
<path d="M3760 1760 l0 -80 560 0 560 0 0 80 0 80 -560 0 -560 0 0 -80z"/>
<path d="M1200 1360 l0 -160 108 0 c121 0 156 13 192 72 27 45 27 131 0 176
-36 59 -71 72 -192 72 l-108 0 0 -160z"/>
<path d="M3760 1440 l0 -80 560 0 560 0 0 80 0 80 -560 0 -560 0 0 -80z"/>
<path d="M2967 1179 c-202 -69 -326 -241 -327 -452 0 -88 15 -177 30 -177 5 0
89 46 187 103 l178 103 3 222 c1 122 -1 222 -5 222 -5 -1 -34 -10 -66 -21z"/>
<path d="M3202 978 l3 -222 178 -103 c98 -57 182 -103 187 -103 15 0 30 88 30
175 0 228 -148 415 -373 469 l-27 6 2 -222z"/>
<path d="M3920 1120 l0 -80 80 0 80 0 0 80 0 80 -80 0 -80 0 0 -80z"/>
<path d="M4240 1120 l0 -80 400 0 400 0 0 80 0 80 -400 0 -400 0 0 -80z"/>
<path d="M720 966 l0 -86 240 0 240 0 0 80 0 80 -187 0 c-104 0 -212 3 -240 6
l-53 7 0 -87z"/>
<path d="M3920 800 l0 -80 80 0 80 0 0 80 0 80 -80 0 -80 0 0 -80z"/>
<path d="M4240 800 l0 -80 400 0 400 0 0 80 0 80 -400 0 -400 0 0 -80z"/>
<path d="M720 480 l0 -240 240 0 240 0 0 160 0 160 80 0 80 0 0 -160 0 -160
240 0 240 0 0 240 0 240 -560 0 -560 0 0 -240z"/>
<path d="M2936 530 c-93 -55 -174 -104 -179 -109 -14 -14 31 -63 99 -107 81
-52 159 -74 264 -74 136 0 261 50 345 139 25 27 27 33 15 45 -24 21 -350 206
-363 205 -7 0 -88 -45 -181 -99z"/>
<path d="M3920 480 l0 -80 80 0 80 0 0 80 0 80 -80 0 -80 0 0 -80z"/>
<path d="M4240 480 l0 -80 400 0 400 0 0 80 0 80 -400 0 -400 0 0 -80z"/>
<path d="M3920 160 l0 -80 80 0 80 0 0 80 0 80 -80 0 -80 0 0 -80z"/>
<path d="M4240 160 l0 -80 400 0 400 0 0 80 0 80 -400 0 -400 0 0 -80z"/>
</g>
</svg>
