<?xml version="1.0" standalone="no"?>
<!DOCTYPE svg PUBLIC "-//W3C//DTD SVG 20010904//EN"
 "http://www.w3.org/TR/2001/REC-SVG-20010904/DTD/svg10.dtd">
<svg version="1.0" xmlns="http://www.w3.org/2000/svg"
 width="512.000000pt" height="512.000000pt" viewBox="0 0 512.000000 512.000000"
 preserveAspectRatio="xMidYMid meet">
<metadata>
Created by potrace 1.16, written by Peter Selinger 2001-2019
</metadata>
<g transform="translate(0.000000,512.000000) scale(0.100000,-0.100000)"
fill="#000000" stroke="none">
<path d="M720 4960 l0 -80 80 0 80 0 0 80 0 80 -80 0 -80 0 0 -80z"/>
<path d="M1335 5021 c-49 -23 -99 -74 -119 -123 -22 -51 -20 -153 3 -203 18
-41 75 -98 117 -117 l24 -11 0 -404 0 -403 80 0 80 0 1 403 0 402 47 30 c73
47 106 102 110 185 2 38 -1 84 -8 105 -16 50 -75 114 -125 136 -54 25 -157 25
-210 0z"/>
<path d="M2000 4960 l0 -80 80 0 80 0 0 80 0 80 -80 0 -80 0 0 -80z"/>
<path d="M720 4560 l0 -160 240 0 240 0 0 80 0 80 -160 0 -160 0 0 80 0 80
-80 0 -80 0 0 -160z"/>
<path d="M2000 4640 l0 -80 -160 0 -160 0 0 -400 0 -400 80 0 80 0 0 320 0
320 80 0 80 0 0 -240 0 -240 240 0 240 0 0 80 0 80 -160 0 -160 0 0 160 0 160
243 -1 242 0 30 -47 c47 -73 102 -106 185 -110 84 -5 130 9 183 57 55 49 77
101 77 181 0 80 -22 132 -77 181 -53 48 -99 62 -183 57 -83 -4 -138 -37 -185
-110 l-30 -47 -242 0 -243 -1 0 80 0 80 -80 0 -80 0 0 -80z"/>
<path d="M4080 4465 c-108 -30 -215 -91 -293 -168 -40 -40 -80 -87 -90 -105
l-18 -32 273 0 c283 0 334 -6 377 -38 49 -36 64 -76 69 -183 l5 -99 240 0 240
0 -6 69 c-11 127 -72 265 -165 371 -54 62 -171 141 -253 170 -84 30 -294 38
-379 15z"/>
<path d="M215 4381 c-87 -40 -135 -120 -135 -223 1 -102 54 -186 142 -222 51
-22 153 -20 203 3 41 18 98 75 117 117 l11 24 244 0 243 0 0 -160 0 -160 80 0
80 0 0 240 0 240 -323 0 -324 0 -11 24 c-19 42 -76 99 -117 117 -54 25 -157
25 -210 0z"/>
<path d="M2640 4000 l0 -80 80 0 80 0 0 80 0 80 -80 0 -80 0 0 -80z"/>
<path d="M3280 3920 l0 -80 480 0 480 0 0 80 0 80 -480 0 -480 0 0 -80z"/>
<path d="M3535 3627 c-47 -107 -95 -305 -95 -394 l0 -33 80 0 80 0 0 -70 c0
-82 17 -130 63 -179 61 -64 89 -71 305 -71 l192 0 0 -80 0 -80 -80 0 -80 0 0
-139 0 -138 158 45 c86 24 158 45 158 46 1 0 -16 120 -37 266 l-38 265 80 81
c76 78 79 84 79 128 0 66 -23 86 -100 86 l-60 0 0 160 0 160 -341 0 -340 0
-24 -53z m195 -137 c11 -11 20 -33 20 -50 0 -17 -9 -39 -20 -50 -11 -11 -33
-20 -50 -20 -17 0 -39 9 -50 20 -11 11 -20 33 -20 50 0 17 9 39 20 50 11 11
33 20 50 20 17 0 39 -9 50 -20z"/>
<path d="M4400 3590 c0 -87 1 -90 28 -104 39 -21 89 -75 106 -118 22 -52 20
-143 -4 -196 -11 -24 -45 -69 -75 -101 l-56 -59 7 -53 c12 -97 10 -96 94 -38
211 148 356 385 375 616 3 37 8 85 11 106 l4 37 -245 0 -245 0 0 -90z"/>
<path d="M1332 3383 c-6 -32 -18 -108 -28 -169 l-17 -110 -64 -23 -63 -23
-134 96 c-74 53 -139 96 -143 96 -11 0 -133 -123 -133 -133 0 -5 43 -68 95
-142 l96 -134 -22 -64 -23 -64 -160 -26 c-89 -15 -164 -27 -168 -27 -5 0 -8
-44 -8 -98 l0 -99 123 -21 c67 -12 142 -25 167 -28 l46 -6 22 -65 23 -64 -41
-57 -40 -57 290 -3 c159 -1 421 -1 580 0 l290 3 -40 57 -41 57 22 64 23 64
110 17 c61 10 137 22 169 28 l57 10 0 98 0 98 -57 10 c-32 6 -108 18 -169 28
l-110 17 -23 64 -22 64 96 134 c52 74 95 138 95 142 0 11 -123 133 -133 133
-5 0 -68 -43 -142 -95 l-134 -96 -64 22 -64 23 -17 110 c-10 61 -22 137 -28
169 l-10 57 -98 0 -98 0 -10 -57z m271 -466 c74 -34 160 -119 195 -194 24 -52
27 -70 27 -163 0 -93 -3 -111 -27 -163 -35 -74 -121 -160 -195 -195 -52 -24
-70 -27 -163 -27 -93 0 -111 3 -163 27 -74 35 -160 121 -195 195 -24 52 -27
70 -27 163 0 93 3 111 26 160 48 101 130 176 232 212 78 28 213 21 290 -15z"/>
<path d="M1335 2781 c-87 -40 -135 -120 -135 -223 1 -142 97 -238 240 -238
144 0 240 96 240 240 0 104 -53 187 -142 224 -52 22 -153 20 -203 -3z"/>
<path d="M2265 3048 c-27 -40 -70 -100 -94 -135 -25 -35 -42 -65 -40 -67 2 -3
74 -17 159 -31 85 -14 163 -28 173 -31 15 -5 17 -24 17 -224 0 -200 -2 -219
-17 -224 -10 -3 -88 -17 -173 -31 -85 -14 -156 -28 -159 -31 -2 -2 13 -29 34
-59 l37 -55 219 0 219 0 0 480 0 480 -162 0 -163 -1 -50 -71z"/>
<path d="M490 3065 c-163 -88 -250 -236 -250 -426 0 -144 48 -258 148 -351 61
-56 103 -81 179 -107 95 -32 105 -29 148 34 21 30 36 57 33 60 -3 3 -72 17
-154 31 -82 13 -159 26 -171 29 -23 5 -23 5 -23 225 0 220 0 220 23 225 12 2
78 14 147 25 181 30 182 30 176 46 -12 30 -170 244 -180 244 -6 0 -40 -16 -76
-35z"/>
<path d="M4176 2340 c-157 -47 -216 -69 -216 -81 0 -8 57 -128 66 -137 3 -4
304 246 304 253 0 9 -24 3 -154 -35z"/>
<path d="M4215 2085 c-126 -107 -232 -194 -235 -195 -3 0 -38 65 -78 145 -39
80 -77 145 -83 145 -22 0 -157 -147 -197 -215 -22 -38 -53 -106 -68 -150 -26
-74 -28 -94 -32 -267 l-4 -188 181 0 181 0 107 214 107 214 60 -30 c34 -17 63
-32 65 -34 6 -6 -198 -415 -226 -452 -50 -67 -46 -67 -480 -70 l-393 -3 0
-160 0 -159 421 0 c351 0 431 3 482 16 122 31 233 104 311 203 64 82 159 268
192 376 27 86 28 99 29 310 0 184 -3 231 -18 285 -22 78 -76 210 -85 209 -4 0
-110 -88 -237 -194z"/>
<path d="M2800 2205 l0 -45 80 0 80 0 0 -139 0 -138 203 -58 c111 -32 207 -59
213 -62 6 -2 16 20 22 49 7 28 33 94 57 146 25 53 44 96 43 97 -6 3 -683 195
-691 195 -4 0 -7 -20 -7 -45z"/>
<path d="M240 1428 c0 -696 2 -801 16 -849 43 -148 168 -274 315 -320 55 -17
96 -19 425 -19 l364 0 0 400 0 400 160 0 160 0 0 400 0 400 320 0 320 0 0
-400 0 -400 84 0 83 0 6 49 c15 129 128 243 257 258 l50 6 0 323 0 324 -1027
0 c-570 0 -1064 4 -1109 9 -146 17 -266 71 -373 167 l-51 46 0 -794z m1280
172 l0 -80 -400 0 -400 0 0 80 0 80 400 0 400 0 0 -80z m0 -320 l0 -80 -400 0
-400 0 0 80 0 80 400 0 400 0 0 -80z m-320 -320 l0 -80 -240 0 -240 0 0 80 0
80 240 0 240 0 0 -80z m0 -320 l0 -80 -240 0 -240 0 0 80 0 80 240 0 240 0 0
-80z"/>
<path d="M1840 1360 l0 -320 160 0 160 0 0 320 0 320 -160 0 -160 0 0 -320z"/>
<path d="M2712 1180 c-48 -30 -72 -75 -72 -140 0 -65 24 -110 72 -140 28 -17
51 -20 141 -20 l107 0 0 160 0 160 -107 0 c-90 0 -113 -3 -141 -20z"/>
<path d="M4505 1089 c-73 -118 -188 -224 -307 -282 -134 -66 -204 -78 -460
-85 l-218 -5 0 -238 0 -239 520 0 520 0 0 465 c0 256 -1 465 -2 465 -2 0 -25
-37 -53 -81z"/>
<path d="M1520 560 l0 -320 640 0 640 0 0 245 0 245 -30 0 c-53 0 -135 38
-184 86 -25 25 -46 50 -46 55 0 5 -214 9 -510 9 l-510 0 0 -320z m320 -80 l0
-80 -80 0 -80 0 0 80 0 80 80 0 80 0 0 -80z m320 0 l0 -80 -80 0 -80 0 0 80 0
80 80 0 80 0 0 -80z m320 0 l0 -80 -80 0 -80 0 0 80 0 80 80 0 80 0 0 -80z"/>
</g>
</svg>
