<?xml version="1.0" standalone="no"?>
<!DOCTYPE svg PUBLIC "-//W3C//DTD SVG 20010904//EN"
 "http://www.w3.org/TR/2001/REC-SVG-20010904/DTD/svg10.dtd">
<svg version="1.0" xmlns="http://www.w3.org/2000/svg"
 width="512.000000pt" height="512.000000pt" viewBox="0 0 512.000000 512.000000"
 preserveAspectRatio="xMidYMid meet">
<metadata>
Created by potrace 1.16, written by Peter Selinger 2001-2019
</metadata>
<g transform="translate(0.000000,512.000000) scale(0.100000,-0.100000)"
fill="#000000" stroke="none">
<path d="M2441 4863 c-29 -10 -66 -38 -105 -77 l-61 -61 142 -3 c79 -1 207 -1
286 0 l142 3 -60 61 c-43 42 -76 66 -110 77 -61 21 -175 21 -234 0z"/>
<path d="M2240 4525 c0 -94 78 -208 175 -255 72 -36 189 -40 268 -10 107 40
197 162 197 265 l0 35 -320 0 -320 0 0 -35z"/>
<path d="M4215 4541 c-22 -10 -46 -25 -53 -33 -11 -14 -8 -19 21 -37 45 -28
117 -105 149 -161 31 -54 58 -140 58 -187 0 -31 2 -34 23 -28 36 11 86 53 115
97 31 48 42 152 22 213 -16 50 -75 114 -125 136 -53 25 -157 25 -210 0z"/>
<path d="M1081 4383 c-29 -10 -66 -38 -105 -77 l-61 -61 142 -3 c79 -1 207 -1
285 0 l143 3 -60 61 c-43 42 -76 66 -110 77 -61 21 -175 21 -234 0z"/>
<path d="M3801 4383 c-29 -10 -66 -38 -105 -77 l-61 -61 143 -3 c78 -1 206 -1
285 0 l142 3 -60 61 c-43 42 -76 66 -110 77 -61 21 -175 21 -234 0z"/>
<path d="M880 4045 c0 -94 78 -208 175 -255 72 -36 189 -40 268 -10 107 40
197 162 197 265 l0 35 -320 0 -320 0 0 -35z"/>
<path d="M2400 4053 c0 -73 73 -133 160 -133 87 0 160 60 160 133 l0 27 -160
0 -160 0 0 -27z"/>
<path d="M3600 4045 c0 -94 78 -208 175 -255 72 -36 189 -40 268 -10 107 40
197 162 197 265 l0 35 -320 0 -320 0 0 -35z"/>
<path d="M2180 3994 c-26 -25 -58 -66 -70 -91 -23 -49 -38 -113 -26 -113 4 0
28 11 54 24 26 13 75 34 110 46 34 12 62 25 62 28 0 2 -9 19 -19 36 -11 17
-25 50 -32 74 -7 23 -16 42 -21 42 -5 0 -31 -21 -58 -46z"/>
<path d="M2861 3998 c-7 -24 -21 -57 -32 -74 -10 -17 -19 -34 -19 -36 0 -3 28
-16 63 -28 34 -12 83 -33 109 -46 26 -13 50 -24 54 -24 12 0 -3 64 -26 113
-20 43 -108 137 -128 137 -5 0 -14 -19 -21 -42z"/>
<path d="M2360 3740 c-222 -58 -415 -213 -515 -415 -85 -170 -85 -171 -85
-803 0 -439 3 -553 13 -549 49 18 140 39 247 56 80 13 133 27 150 39 28 21 70
79 70 96 -1 6 -26 29 -57 51 -71 50 -151 146 -191 228 -55 114 -63 161 -69
419 l-6 236 59 12 c230 45 330 89 435 191 l69 66 0 117 0 116 80 0 80 0 0
-116 0 -117 68 -66 c104 -102 189 -139 436 -191 l59 -12 -6 -242 c-5 -262 -13
-312 -67 -421 -41 -85 -110 -168 -183 -221 -34 -25 -63 -49 -65 -53 -4 -12 40
-72 68 -92 16 -12 78 -28 170 -43 80 -14 165 -32 189 -40 24 -9 48 -16 53 -16
6 0 8 201 6 552 -5 527 -6 557 -26 633 -79 291 -301 513 -586 585 -107 27
-290 27 -396 0z"/>
<path d="M1040 3573 c0 -73 73 -133 160 -133 87 0 160 60 160 133 l0 27 -160
0 -160 0 0 -27z"/>
<path d="M3760 3573 c0 -73 73 -133 160 -133 87 0 160 60 160 133 l0 27 -160
0 -160 0 0 -27z"/>
<path d="M1501 3518 c-7 -24 -22 -58 -33 -76 -11 -18 -19 -34 -17 -35 2 -2 29
-14 59 -27 30 -14 74 -40 97 -57 52 -39 61 -41 69 -8 8 32 -19 111 -56 159
-27 35 -86 86 -100 86 -4 0 -12 -19 -19 -42z"/>
<path d="M3561 3536 c-43 -32 -87 -93 -107 -147 -12 -36 -13 -52 -3 -86 6 -24
14 -43 16 -43 3 0 23 15 46 34 23 18 69 48 102 67 33 18 61 34 63 35 2 1 -8
19 -21 41 -14 21 -31 57 -38 81 -7 23 -15 42 -19 42 -3 0 -21 -11 -39 -24z"/>
<path d="M4213 3498 c-23 -67 -22 -78 7 -78 10 0 51 -12 90 -26 40 -14 74 -23
77 -20 12 12 -41 97 -87 140 -27 25 -53 46 -57 46 -4 0 -18 -28 -30 -62z"/>
<path d="M580 3260 c-19 -19 -20 -32 -20 -273 0 -269 7 -323 52 -410 21 -41
22 -41 29 -17 4 14 7 39 8 55 1 17 16 55 34 85 47 78 99 103 265 128 144 22
180 37 221 98 13 18 25 51 28 73 l6 41 75 0 75 0 -6 -59 -7 -59 53 -30 c104
-59 183 -176 196 -291 4 -34 9 47 13 209 3 146 9 273 13 282 10 25 -88 118
-162 155 l-58 28 -397 3 c-389 3 -398 2 -418 -18z"/>
<path d="M3755 3262 c-78 -27 -135 -65 -194 -127 l-54 -57 7 -90 c3 -50 7
-170 7 -267 1 -122 4 -159 9 -120 15 117 93 233 197 291 l53 30 -7 59 -6 59
75 0 75 0 6 -41 c3 -22 15 -55 28 -73 41 -60 77 -76 216 -97 145 -22 188 -37
236 -86 41 -40 63 -90 72 -158 6 -46 8 -48 21 -30 8 10 24 44 36 74 19 47 22
76 23 186 0 126 -1 132 -32 198 -45 95 -127 178 -222 225 l-75 37 -210 3
c-181 2 -218 0 -261 -16z"/>
<path d="M2480 3164 c-108 -92 -218 -145 -372 -178 l-28 -6 0 -176 c0 -150 3
-183 21 -237 43 -128 129 -224 257 -285 77 -37 77 -37 212 -37 132 0 136 1
201 32 120 59 207 156 249 278 17 50 20 84 20 241 l0 184 -27 5 c-70 15 -194
59 -248 90 -33 18 -93 61 -132 94 -40 34 -74 61 -75 60 -2 0 -37 -29 -78 -65z
m-7 -587 c45 -22 129 -22 174 0 20 9 47 33 62 53 l26 37 63 -31 c34 -16 62
-33 62 -36 0 -20 -66 -101 -104 -128 -62 -45 -117 -62 -196 -62 -79 0 -134 17
-196 62 -38 27 -104 108 -104 128 0 3 28 20 62 36 l62 31 27 -37 c15 -20 43
-44 62 -53z"/>
<path d="M1226 2772 c-34 -38 -122 -71 -232 -87 -149 -22 -152 -23 -174 -45
-18 -18 -20 -34 -20 -165 0 -172 16 -228 83 -298 63 -64 126 -91 222 -95 106
-5 177 21 245 88 74 75 90 128 90 303 0 117 -4 149 -19 182 -23 49 -74 99
-123 119 -47 20 -51 20 -72 -2z"/>
<path d="M3815 2771 c-22 -10 -54 -34 -72 -52 -54 -57 -63 -92 -63 -248 0
-167 16 -225 83 -294 63 -64 126 -91 222 -95 106 -5 177 21 245 88 74 75 90
128 90 305 0 192 10 181 -194 210 -109 15 -187 44 -232 86 -25 23 -29 23 -79
0z"/>
<path d="M2352 2056 c-38 -67 -100 -120 -164 -142 l-49 -16 62 -116 c34 -65
70 -132 81 -149 l20 -33 258 0 258 0 20 33 c11 17 47 84 81 149 l62 116 -50
17 c-63 21 -135 84 -166 145 l-24 48 -38 -9 c-50 -12 -218 -12 -268 1 -22 5
-43 10 -47 10 -3 0 -20 -24 -36 -54z"/>
<path d="M976 1915 c-11 -38 -6 -45 70 -95 l75 -51 66 43 c36 24 70 46 76 49
5 4 7 22 3 40 l-6 34 -139 0 c-132 0 -140 -1 -145 -20z"/>
<path d="M3856 1915 c-11 -38 -6 -45 70 -95 l75 -51 66 43 c36 24 70 46 76 49
5 4 7 22 3 40 l-6 34 -139 0 c-132 0 -140 -1 -145 -20z"/>
<path d="M1890 1854 c-229 -61 -414 -233 -496 -462 -26 -73 -28 -88 -32 -294
l-4 -218 165 0 164 0 6 138 c4 132 22 218 66 334 l10 27 58 -20 c32 -10 63
-21 70 -23 8 -3 2 -33 -19 -98 -27 -81 -31 -111 -35 -233 -6 -172 3 -218 92
-443 61 -152 65 -169 65 -243 l0 -79 240 0 240 0 0 357 0 356 -247 459 c-206
383 -250 458 -267 457 -12 0 -46 -7 -76 -15z"/>
<path d="M2887 1412 l-247 -459 0 -356 0 -357 240 0 240 0 0 80 c0 74 4 90 61
232 83 208 99 275 99 414 0 117 -14 207 -49 307 -15 43 -17 59 -8 62 7 3 38
14 70 24 l58 20 10 -27 c44 -116 62 -202 66 -334 l6 -138 163 0 164 0 0 194
c0 178 -2 201 -26 282 -59 207 -188 360 -379 450 -67 32 -170 64 -205 64 -12
0 -94 -143 -263 -458z"/>
<path d="M775 1743 c-32 -8 -61 -16 -63 -17 -8 -9 60 -126 73 -126 17 0 185
82 185 90 0 10 -105 70 -120 69 -8 -1 -42 -8 -75 -16z"/>
<path d="M4208 1729 c-27 -17 -48 -34 -48 -38 0 -7 165 -91 180 -91 11 0 74
120 66 127 -5 5 -122 32 -141 33 -5 0 -31 -14 -57 -31z"/>
<path d="M480 1659 c-107 -59 -185 -154 -221 -270 -18 -56 -19 -100 -19 -605
l0 -544 80 0 80 0 0 440 0 440 80 0 80 0 0 -440 0 -440 240 0 240 0 0 277 0
276 -241 449 c-133 246 -246 448 -253 448 -6 0 -36 -14 -66 -31z"/>
<path d="M4321 1242 l-241 -449 0 -276 0 -277 240 0 240 0 0 440 0 440 80 0
80 0 0 -440 0 -440 80 0 80 0 0 544 c0 505 -1 549 -19 605 -26 83 -60 137
-123 198 -49 45 -141 103 -166 103 -6 0 -118 -202 -251 -448z"/>
<path d="M1083 1579 l-31 -20 20 -59 20 -60 82 0 82 0 12 33 c7 18 12 36 12
40 0 6 -155 88 -162 86 -2 0 -17 -9 -35 -20z"/>
<path d="M3925 1559 c-38 -21 -74 -39 -79 -41 -5 -2 -3 -21 5 -41 l13 -37 82
0 82 0 21 62 c11 34 20 62 18 63 -6 6 -66 35 -69 34 -2 -1 -34 -19 -73 -40z"/>
<path d="M2392 1431 c9 -25 164 -311 168 -311 4 0 159 286 168 311 2 5 -68 9
-168 9 -100 0 -170 -4 -168 -9z"/>
<path d="M1051 1213 l-33 -67 49 -93 c26 -51 50 -93 53 -93 3 0 22 34 44 75
33 65 39 87 44 160 l5 85 -64 0 -65 0 -33 -67z"/>
<path d="M3912 1195 c5 -73 11 -95 44 -160 22 -41 41 -75 44 -75 3 0 27 43 55
95 l49 95 -32 65 -32 65 -66 0 -67 0 5 -85z"/>
<path d="M1207 803 c-4 -3 -7 -132 -7 -285 l0 -278 80 0 80 0 0 245 c0 240 0
245 -20 245 -30 0 -75 25 -98 55 -21 27 -25 29 -35 18z"/>
<path d="M3882 790 c-17 -27 -71 -60 -99 -60 l-23 0 0 -245 0 -245 80 0 80 0
-2 282 c-2 178 -7 283 -13 285 -6 2 -16 -6 -23 -17z"/>
<path d="M1520 480 l0 -240 160 0 160 0 0 80 c0 72 -5 92 -49 202 -26 68 -54
140 -60 161 l-13 37 -99 0 -99 0 0 -240z"/>
<path d="M3389 683 c-6 -21 -34 -93 -60 -161 -44 -110 -49 -130 -49 -202 l0
-80 160 0 160 0 0 240 0 240 -99 0 -99 0 -13 -37z"/>
</g>
</svg>
