<?xml version="1.0" standalone="no"?>
<!DOCTYPE svg PUBLIC "-//W3C//DTD SVG 20010904//EN"
 "http://www.w3.org/TR/2001/REC-SVG-20010904/DTD/svg10.dtd">
<svg version="1.0" xmlns="http://www.w3.org/2000/svg"
 width="512.000000pt" height="512.000000pt" viewBox="0 0 512.000000 512.000000"
 preserveAspectRatio="xMidYMid meet">
<metadata>
Created by potrace 1.16, written by Peter Selinger 2001-2019
</metadata>
<g transform="translate(0.000000,512.000000) scale(0.100000,-0.100000)"
fill="#000000" stroke="none">
<path d="M3715 5111 c-12 -21 -122 -52 -233 -65 -64 -8 -178 -22 -252 -31
-375 -46 -587 -164 -709 -395 -67 -127 -81 -335 -31 -482 31 -93 89 -190 123
-206 63 -30 127 24 127 108 0 48 29 180 52 239 66 167 183 299 351 395 l47 27
-51 -78 c-102 -157 -160 -298 -218 -535 -68 -278 -98 -465 -125 -778 -20 -224
-40 -718 -32 -763 8 -42 55 -101 98 -123 17 -9 54 -15 83 -15 86 0 131 32 180
131 46 91 94 161 158 227 l60 63 36 -33 c146 -132 361 -162 541 -75 101 49
185 141 339 373 73 110 128 201 123 203 -14 4 -163 111 -262 187 -158 121
-275 168 -420 168 -144 0 -239 -40 -340 -142 -74 -75 -110 -140 -110 -199 0
-63 18 -67 147 -38 136 32 245 41 359 31 l89 -8 -90 -13 c-251 -38 -443 -133
-623 -308 l-73 -71 6 105 c12 203 26 376 41 500 24 203 16 186 87 200 216 42
420 244 523 519 18 47 40 129 49 181 21 121 21 338 1 490 -9 63 -19 139 -22
168 -6 49 -16 63 -29 43z"/>
<path d="M2010 3634 c-94 -25 -189 -79 -345 -196 -83 -62 -163 -119 -178 -127
-15 -8 -27 -17 -27 -20 0 -4 17 -30 38 -58 20 -28 75 -111 122 -184 100 -156
217 -282 299 -324 157 -78 343 -67 496 30 136 86 184 229 108 323 -63 78 -301
178 -488 205 l-90 14 89 8 c152 13 333 -10 459 -60 50 -20 73 -19 97 5 27 27
25 71 -6 135 -63 127 -169 217 -299 251 -65 18 -205 17 -275 -2z"/>
<path d="M1680 2383 c-215 -14 -412 -83 -577 -204 -64 -46 -1095 -1053 -1101
-1074 -1 -5 245 -257 547 -559 l549 -549 184 276 183 276 935 3 935 3 70 24
c92 30 187 81 255 134 135 108 1431 1270 1445 1296 22 44 19 126 -5 167 -38
60 -167 114 -275 114 -76 0 -170 -26 -249 -68 -39 -21 -345 -239 -681 -485
l-609 -447 -361 0 -360 0 -85 85 -85 85 328 0 c191 0 358 5 400 11 145 23 269
106 324 218 24 49 28 68 28 146 0 78 -4 97 -28 147 -37 76 -117 148 -204 184
l-68 28 -370 7 c-203 4 -392 12 -419 18 -26 6 -87 27 -135 47 -221 93 -396
128 -571 117z"/>
</g>
</svg>
