<?xml version="1.0" standalone="no"?>
<!DOCTYPE svg PUBLIC "-//W3C//DTD SVG 20010904//EN"
 "http://www.w3.org/TR/2001/REC-SVG-20010904/DTD/svg10.dtd">
<svg version="1.0" xmlns="http://www.w3.org/2000/svg"
 width="512.000000pt" height="512.000000pt" viewBox="0 0 512.000000 512.000000"
 preserveAspectRatio="xMidYMid meet">
<metadata>
Created by potrace 1.16, written by Peter Selinger 2001-2019
</metadata>
<g transform="translate(0.000000,512.000000) scale(0.100000,-0.100000)"
fill="#000000" stroke="none">
<path d="M3295 5114 c-243 -34 -366 -62 -553 -126 -120 -41 -123 -43 -117 -68
4 -14 9 -55 12 -92 7 -87 -15 -152 -72 -216 -147 -163 -397 -125 -499 76 -10
19 -16 35 -14 37 2 1 35 19 74 38 l71 36 19 -40 c24 -55 66 -83 125 -83 82 0
133 52 133 135 0 57 -23 95 -75 122 -30 16 -57 18 -229 15 -181 -3 -198 -5
-242 -26 -68 -33 -134 -111 -154 -180 -32 -110 -5 -209 84 -304 l46 -49 -58
-57 -57 -57 -66 70 -65 70 -28 -32 c-18 -20 -33 -52 -40 -87 -24 -117 42 -229
152 -260 52 -14 376 -52 382 -45 2 2 6 25 9 50 l6 46 -49 31 c-34 21 -63 51
-90 93 -22 34 -40 65 -40 68 0 4 33 23 73 43 l73 36 23 -44 c13 -24 35 -51 50
-60 54 -36 96 -26 439 103 178 67 350 127 383 133 136 25 284 -22 399 -126
l39 -35 72 35 c88 44 129 52 180 37 61 -18 98 -58 146 -155 39 -81 44 -97 39
-139 -3 -27 -14 -62 -24 -79 -19 -30 -19 -31 1 -82 15 -37 21 -74 21 -136 0
-110 -27 -179 -96 -255 l-50 -55 43 -57 c84 -108 203 -191 343 -238 65 -22 81
-24 92 -13 44 45 242 338 279 413 85 175 119 354 104 559 -13 174 -78 356
-180 507 -55 82 -186 213 -268 268 -86 59 -229 125 -326 151 -68 19 -111 23
-285 25 -113 2 -218 1 -235 -1z"/>
<path d="M2990 4321 c-104 -35 -677 -254 -685 -262 -5 -6 -10 -49 -9 -97 0
-66 6 -98 22 -135 12 -27 25 -47 29 -45 515 253 932 465 930 473 -2 6 -30 23
-62 40 -46 24 -73 30 -129 32 -39 1 -82 -2 -96 -6z"/>
<path d="M2958 3904 c-368 -184 -668 -340 -668 -347 0 -14 140 -368 150 -380
4 -5 121 48 260 118 274 138 315 168 360 260 16 33 26 75 30 125 l5 74 307
176 c222 126 308 180 308 193 0 32 -49 117 -68 116 -9 0 -317 -151 -684 -335z"/>
<path d="M3470 3781 l-205 -118 -18 -69 c-25 -97 -73 -180 -142 -250 -53 -52
-88 -74 -272 -167 l-212 -107 26 -63 c42 -103 63 -138 117 -195 63 -68 133
-114 217 -143 51 -18 87 -22 179 -23 181 -1 281 37 403 154 l73 69 123 -205
122 -205 23 18 c135 105 241 169 349 208 36 14 47 22 42 34 -3 9 -31 79 -61
157 l-56 140 -68 18 c-91 23 -218 86 -302 147 -112 83 -197 187 -267 326 l-31
63 57 29 c67 34 106 71 127 123 25 58 19 179 -8 177 -6 0 -103 -53 -216 -118z"/>
<path d="M1700 3413 c-41 -19 -76 -36 -78 -37 -3 -3 147 -357 154 -365 5 -6
174 48 174 55 0 21 -155 384 -164 383 -6 0 -45 -16 -86 -36z"/>
<path d="M1317 3242 l-148 -65 34 -36 c69 -74 157 -213 157 -249 0 -6 4 -13 9
-16 7 -5 237 67 247 77 3 3 -141 346 -148 352 -2 2 -70 -27 -151 -63z"/>
<path d="M567 3165 c-142 -39 -271 -145 -337 -277 -22 -44 -40 -86 -40 -93 0
-6 78 -44 173 -84 l172 -71 353 0 352 0 0 35 c0 214 -177 433 -396 489 -74 19
-210 19 -277 1z"/>
<path d="M25 2600 c-14 -27 -25 -55 -25 -63 0 -8 196 -94 500 -221 478 -199
501 -208 515 -190 24 32 48 92 42 106 -5 14 -963 418 -991 418 -9 0 -27 -22
-41 -50z"/>
<path d="M4299 2527 c-249 -96 -450 -300 -539 -545 -53 -145 -60 -229 -60
-689 l0 -413 94 0 95 0 4 398 c3 392 4 398 30 487 44 154 104 269 202 388 56
67 167 167 216 193 27 13 27 13 64 -48 20 -34 37 -64 38 -68 1 -4 -33 -34 -75
-68 -97 -78 -165 -162 -222 -277 -82 -162 -80 -149 -84 -692 l-3 -483 -444 0
-445 0 0 -355 0 -356 563 3 562 3 64 24 c84 31 200 110 256 174 25 29 63 86
85 128 71 136 70 125 70 870 l0 665 -26 53 -27 53 57 56 57 57 20 -25 c33 -42
66 -112 78 -168 7 -36 11 -255 11 -686 0 -524 -3 -649 -15 -721 -28 -160 -104
-306 -220 -422 l-63 -63 239 0 239 0 0 889 c0 739 -2 901 -15 958 -66 314
-273 560 -570 678 -103 41 -135 41 -236 2z"/>
<path d="M950 2473 c0 -5 38 -23 85 -42 47 -19 100 -44 119 -57 42 -29 76 -97
76 -151 l0 -40 54 -7 c86 -10 224 -54 322 -102 263 -130 470 -367 567 -646 6
-16 21 -18 124 -18 120 0 218 -16 273 -45 38 -20 38 -14 0 100 -123 365 -392
676 -739 854 -122 63 -304 124 -430 145 -98 17 -451 23 -451 9z"/>
<path d="M22 2262 c-33 -86 -31 -94 34 -126 31 -15 60 -24 64 -19 16 18 60
147 53 154 -9 8 -109 49 -121 49 -4 0 -17 -26 -30 -58z"/>
<path d="M401 2148 c-5 -13 -18 -47 -30 -76 -12 -29 -21 -59 -21 -67 0 -15 88
-65 113 -65 12 0 77 144 77 171 0 9 -57 37 -107 53 -18 6 -25 3 -32 -16z"/>
<path d="M737 1927 c-20 -51 -37 -97 -37 -103 0 -9 101 -64 119 -64 7 0 30 50
88 196 3 9 -110 64 -130 64 -2 0 -20 -42 -40 -93z"/>
<path d="M0 1145 l0 -95 978 0 978 0 13 47 c6 26 25 69 41 95 l30 48 -1020 0
-1020 0 0 -95z"/>
<path d="M2261 1209 c-139 -73 -190 -247 -111 -375 49 -78 147 -134 235 -134
146 0 265 122 265 270 -1 152 -102 258 -255 268 -64 4 -75 1 -134 -29z m179
-184 c33 -35 31 -81 -4 -112 -61 -52 -148 -1 -131 78 13 60 92 80 135 34z"/>
<path d="M2820 355 l0 -355 95 0 95 0 0 355 0 355 -95 0 -95 0 0 -355z"/>
<path d="M520 440 l0 -90 270 0 270 0 0 90 0 90 -270 0 -270 0 0 -90z"/>
<path d="M2275 511 c-103 -47 -158 -133 -158 -246 0 -113 54 -200 153 -244 39
-18 66 -21 213 -21 l167 0 0 265 0 265 -167 0 c-141 0 -174 -3 -208 -19z"/>
<path d="M0 90 l0 -90 1020 0 1020 0 -29 45 c-16 24 -34 65 -41 90 l-13 45
-978 0 -979 0 0 -90z"/>
</g>
</svg>
