<?xml version="1.0" standalone="no"?>
<!DOCTYPE svg PUBLIC "-//W3C//DTD SVG 20010904//EN"
 "http://www.w3.org/TR/2001/REC-SVG-20010904/DTD/svg10.dtd">
<svg version="1.0" xmlns="http://www.w3.org/2000/svg"
 width="512.000000pt" height="512.000000pt" viewBox="0 0 512.000000 512.000000"
 preserveAspectRatio="xMidYMid meet">
<metadata>
Created by potrace 1.16, written by Peter Selinger 2001-2019
</metadata>
<g transform="translate(0.000000,512.000000) scale(0.100000,-0.100000)"
fill="#000000" stroke="none">
<path d="M2701 4760 c-292 -111 -589 -332 -771 -574 -42 -55 -43 -60 -26 -70
72 -43 138 -101 174 -156 60 -89 76 -152 70 -275 l-5 -100 71 -59 c97 -81 214
-156 343 -220 113 -56 249 -109 266 -103 6 2 -13 20 -40 40 -153 112 -279 296
-340 494 -24 80 -27 103 -27 258 -1 219 22 310 125 492 43 75 180 227 259 286
49 36 22 33 -99 -13z"/>
<path d="M3920 4773 c64 -51 160 -146 199 -197 59 -76 126 -209 157 -311 26
-84 28 -102 28 -265 0 -163 -2 -181 -28 -265 -61 -199 -177 -365 -356 -508
l-35 -28 30 6 c55 11 229 85 320 136 236 130 472 342 606 543 34 51 39 66 39
116 0 50 -5 65 -39 116 -134 201 -370 413 -606 543 -91 51 -265 125 -320 136
l-30 6 35 -28z"/>
<path d="M3185 4622 c-181 -54 -324 -174 -403 -337 -45 -92 -62 -169 -62 -285
0 -159 42 -284 136 -403 81 -104 219 -192 346 -222 81 -19 235 -19 317 0 166
39 329 167 408 320 55 107 73 181 73 305 0 123 -18 198 -71 301 -74 142 -201
253 -352 307 -96 35 -298 42 -392 14z m323 -347 c59 -32 101 -75 134 -138 19
-35 23 -58 23 -137 0 -87 -3 -100 -30 -149 -30 -54 -82 -103 -145 -137 -54
-29 -210 -27 -267 4 -106 56 -163 142 -171 256 -5 86 8 139 51 203 33 50 107
106 161 123 17 5 67 8 111 7 66 -3 89 -8 133 -32z"/>
<path d="M953 3984 c-290 -63 -548 -282 -653 -554 -45 -117 -60 -205 -60 -344
0 -250 86 -461 257 -634 61 -62 168 -143 208 -158 13 -5 15 11 15 117 l0 122
-60 63 c-33 35 -67 79 -76 99 -20 49 -20 142 1 191 18 45 67 99 108 120 22 12
27 21 27 52 0 71 21 167 48 215 45 84 131 143 223 154 l49 6 0 -77 0 -76 -27
0 c-38 0 -89 -33 -113 -72 -18 -29 -20 -51 -20 -180 l0 -148 -60 0 c-78 0
-100 -19 -100 -88 0 -46 2 -50 80 -127 l80 -80 0 -310 0 -311 67 -33 c37 -18
109 -59 160 -91 l93 -59 0 230 0 229 93 0 c106 0 143 14 192 74 l30 38 5 171
5 170 118 40 119 39 -7 37 c-12 67 -64 209 -115 315 -57 119 -95 156 -162 156
l-38 0 0 80 0 80 178 0 c196 0 224 7 294 69 59 52 88 121 88 211 0 90 -29 159
-88 211 -79 69 -74 69 -507 68 -288 -1 -406 -5 -452 -15z m329 -537 c5 -84 38
-166 93 -232 l34 -42 -54 -53 -53 -52 -42 53 c-81 103 -130 232 -130 343 l0
56 74 0 73 0 5 -73z"/>
<path d="M4080 2560 l0 -80 177 0 178 0 -417 -417 -418 -418 -200 200 -200
200 -647 -647 -646 -646 18 -88 c9 -49 19 -96 21 -104 3 -9 233 214 629 610
l625 625 200 -200 200 -200 623 623 622 622 -383 0 -382 0 0 -80z"/>
<path d="M4320 1040 l0 -880 160 0 160 0 0 880 0 880 -160 0 -160 0 0 -880z"/>
<path d="M694 1769 c-32 -23 -61 -43 -63 -45 -2 -2 1 -22 8 -45 15 -51 74
-117 126 -140 37 -17 115 -26 115 -14 0 3 -14 34 -32 68 -17 34 -45 97 -63
140 l-31 77 -60 -41z"/>
<path d="M940 1758 c0 -7 16 -47 36 -88 90 -189 244 -368 389 -454 73 -43 210
-95 221 -84 7 8 -108 173 -183 261 -108 128 -266 260 -425 356 -28 16 -38 19
-38 9z"/>
<path d="M484 1578 c-75 -81 -166 -257 -211 -403 l-27 -90 -4 -423 -3 -422
160 0 161 0 0 341 c0 233 -4 354 -12 381 -15 49 -78 123 -129 148 l-38 20 20
57 c10 32 21 64 24 71 8 21 118 -43 171 -100 58 -62 101 -154 114 -243 5 -38
10 -206 10 -372 l0 -303 555 0 555 0 0 28 c0 34 -27 249 -40 322 -16 88 -56
229 -87 305 l-28 70 -137 7 c-402 20 -713 129 -809 284 l-22 36 37 37 c20 20
36 40 36 43 0 4 -21 14 -47 22 -63 22 -136 76 -173 129 -61 88 -52 82 -76 55z"/>
<path d="M945 1320 c-38 -39 -38 -40 -19 -55 26 -19 150 -71 194 -80 l35 -7
-64 68 c-36 38 -74 79 -86 92 l-21 22 -39 -40z"/>
<path d="M3040 720 l0 -560 160 0 160 0 0 560 0 560 -160 0 -160 0 0 -560z"/>
<path d="M3680 720 l0 -560 160 0 160 0 0 560 0 560 -160 0 -160 0 0 -560z"/>
<path d="M2400 480 l0 -320 160 0 160 0 0 320 0 320 -160 0 -160 0 0 -320z"/>
</g>
</svg>
