<?xml version="1.0" standalone="no"?>
<!DOCTYPE svg PUBLIC "-//W3C//DTD SVG 20010904//EN"
 "http://www.w3.org/TR/2001/REC-SVG-20010904/DTD/svg10.dtd">
<svg version="1.0" xmlns="http://www.w3.org/2000/svg"
 width="512.000000pt" height="512.000000pt" viewBox="0 0 512.000000 512.000000"
 preserveAspectRatio="xMidYMid meet">
<metadata>
Created by potrace 1.16, written by Peter Selinger 2001-2019
</metadata>
<g transform="translate(0.000000,512.000000) scale(0.100000,-0.100000)"
fill="#000000" stroke="none">
<path d="M1203 5100 c-188 -67 -303 -231 -303 -430 0 -259 191 -450 450 -450
259 0 450 191 450 450 0 201 -117 365 -307 431 -75 25 -216 25 -290 -1z"/>
<path d="M2403 5100 c-134 -48 -237 -152 -284 -288 -17 -50 -19 -86 -19 -368
l0 -313 43 -30 c23 -16 114 -102 202 -190 88 -89 165 -161 172 -161 6 0 72 29
145 65 174 85 232 99 371 92 l109 -6 395 197 395 197 117 0 c112 0 119 -1 186
-34 92 -45 171 -124 216 -216 33 -67 34 -74 34 -185 0 -111 -1 -118 -34 -185
-21 -43 -57 -92 -91 -126 -50 -51 -91 -74 -427 -242 l-372 -187 -37 -72 c-57
-109 -162 -209 -289 -275 l-100 -53 811 0 c778 0 813 1 867 19 137 47 241 151
288 289 18 53 19 94 19 892 0 798 -1 839 -19 892 -47 138 -151 242 -288 289
-54 18 -92 19 -1207 18 -1095 0 -1154 -1 -1203 -19z"/>
<path d="M3571 3796 l-424 -213 -49 19 c-29 11 -74 18 -112 18 -62 0 -73 -4
-293 -114 l-228 -114 -240 238 c-191 190 -252 244 -295 264 l-55 26 -684 0
c-758 0 -739 1 -875 -67 -96 -48 -201 -153 -249 -249 -67 -133 -67 -132 -67
-730 l0 -539 24 -51 c49 -105 138 -165 257 -172 67 -4 87 0 182 32 59 20 114
39 122 42 13 5 15 -114 15 -977 l0 -984 24 -51 c52 -112 151 -174 276 -174
120 0 216 57 272 163 23 42 23 43 28 637 5 590 5 595 27 630 59 95 190 94 248
-2 19 -32 20 -55 25 -628 5 -594 5 -595 28 -637 56 -106 152 -163 272 -163
125 0 224 62 276 174 l24 51 0 1288 c0 708 2 1287 3 1287 2 0 56 -18 120 -40
92 -32 129 -40 186 -40 l70 0 348 174 c192 95 363 186 380 200 38 32 80 114
89 174 l7 43 427 214 c480 240 470 234 470 336 0 95 -55 149 -150 148 -51 0
-84 -15 -479 -213z"/>
</g>
</svg>
