<?xml version="1.0" standalone="no"?>
<!DOCTYPE svg PUBLIC "-//W3C//DTD SVG 20010904//EN"
 "http://www.w3.org/TR/2001/REC-SVG-20010904/DTD/svg10.dtd">
<svg version="1.0" xmlns="http://www.w3.org/2000/svg"
 width="512.000000pt" height="512.000000pt" viewBox="0 0 512.000000 512.000000"
 preserveAspectRatio="xMidYMid meet">
<metadata>
Created by potrace 1.16, written by Peter Selinger 2001-2019
</metadata>
<g transform="translate(0.000000,512.000000) scale(0.100000,-0.100000)"
fill="#000000" stroke="none">
<path d="M3433 4959 c-139 -18 -234 -133 -234 -283 0 -69 -2 -77 -34 -118 -78
-101 -125 -235 -125 -362 0 -63 4 -80 20 -96 39 -39 139 -16 140 33 4 110 41
238 82 290 l23 27 49 -25 c71 -36 181 -36 254 1 101 50 152 135 152 254 0 185
-139 303 -327 279z"/>
<path d="M2215 4861 c-43 -19 -109 -85 -120 -120 -5 -18 -14 -21 -62 -21 -116
0 -193 -81 -193 -201 0 -87 35 -146 109 -180 l50 -24 1 -257 0 -258 -40 -6
c-22 -4 -40 -9 -40 -13 0 -3 48 -51 107 -107 l107 -100 -27 -143 c-16 -79 -26
-146 -23 -149 6 -5 78 31 196 99 l65 37 90 -48 c50 -27 109 -59 132 -72 23
-12 44 -21 46 -18 3 3 -7 70 -22 149 l-28 143 82 79 c45 43 93 88 108 99 36
29 34 36 -13 44 l-40 6 0 269 0 270 29 20 c42 30 71 96 71 161 0 117 -79 200
-191 200 -50 0 -59 3 -64 21 -11 35 -77 101 -120 120 -26 12 -63 19 -105 19
-42 0 -79 -7 -105 -19z m325 -791 l0 -250 -24 0 c-31 0 -39 11 -106 159 -30
66 -57 121 -60 121 -4 0 -36 -63 -72 -140 -60 -127 -69 -140 -92 -140 l-26 0
0 250 0 250 190 0 190 0 0 -250z"/>
<path d="M4164 4483 c-17 -10 -38 -22 -46 -28 -23 -15 -68 -85 -68 -106 0 -10
-9 -20 -19 -24 -36 -11 -143 -86 -198 -138 -59 -56 -127 -146 -162 -214 -43
-86 -18 -153 57 -153 49 0 59 9 111 99 49 83 137 176 206 216 l46 28 27 -20
c72 -53 175 -56 244 -7 57 40 83 94 83 171 0 52 -5 68 -30 105 -55 79 -176
113 -251 71z"/>
<path d="M1261 4338 c-66 -32 -101 -94 -101 -177 0 -126 76 -201 206 -201 l69
0 42 -62 c72 -107 97 -183 119 -371 3 -28 14 -57 25 -68 27 -27 92 -26 120 2
20 20 21 29 17 128 -4 83 -12 126 -37 200 -32 94 -89 204 -137 261 -24 27 -27
40 -28 109 -1 66 -5 83 -28 118 -52 79 -174 107 -267 61z"/>
<path d="M405 4196 c-83 -19 -144 -45 -155 -67 -17 -31 -12 -87 11 -110 24
-24 70 -23 174 5 33 9 100 16 151 16 77 0 93 3 112 20 28 27 30 88 3 121 -18
22 -27 24 -128 26 -63 1 -133 -3 -168 -11z"/>
<path d="M897 4068 c-9 -7 -21 -26 -26 -41 -16 -41 4 -77 72 -136 49 -43 65
-51 98 -51 50 0 79 27 79 76 0 48 -11 66 -76 119 -44 35 -64 45 -93 45 -20 0
-45 -6 -54 -12z"/>
<path d="M3392 3749 c-309 -52 -563 -286 -642 -593 -31 -122 -34 -116 63 -116
l82 0 17 73 c54 225 231 401 463 462 76 20 222 20 300 0 85 -22 191 -76 253
-129 30 -25 57 -46 62 -46 4 0 27 7 50 15 23 8 60 15 81 15 26 0 39 5 39 13 0
20 -137 149 -202 191 -162 103 -376 146 -566 115z"/>
<path d="M735 3657 c-129 -73 -130 -276 -1 -352 91 -53 223 -24 275 61 29 49
44 52 129 30 88 -24 150 -67 229 -159 27 -31 37 -37 72 -37 90 0 110 82 41
169 -98 124 -269 210 -417 211 -35 0 -45 5 -62 29 -50 69 -185 94 -266 48z"/>
<path d="M3389 3426 c-160 -46 -307 -199 -334 -348 l-7 -38 85 0 85 0 26 55
c34 68 107 134 175 159 103 37 237 11 313 -61 19 -18 31 -22 42 -16 15 8 86
118 86 133 0 12 -87 70 -147 97 -50 23 -74 27 -168 30 -70 1 -127 -2 -156 -11z"/>
<path d="M4055 3261 c-54 -24 -109 -88 -130 -150 -19 -59 -45 -81 -95 -81 -47
0 -100 -29 -128 -71 -20 -29 -23 -44 -20 -97 4 -57 8 -66 41 -100 l37 -37 388
-3 c372 -2 388 -2 420 18 101 62 96 220 -8 272 -19 10 -51 18 -70 18 -51 0
-74 21 -99 88 -23 65 -77 123 -137 148 -47 20 -150 17 -199 -5z"/>
<path d="M1296 2853 c-3 -16 -10 -57 -15 -92 -12 -74 2 -51 -214 -354 -93
-131 -168 -239 -166 -240 2 -2 68 -60 145 -130 110 -98 143 -133 148 -158 3
-17 6 -95 6 -172 l0 -140 113 6 c123 6 166 18 227 67 49 39 91 40 119 4 29
-37 26 -58 -15 -104 -71 -78 -198 -120 -366 -120 l-78 0 0 -315 0 -315 23 -4
c12 -3 153 -19 312 -36 160 -17 305 -36 323 -42 53 -16 62 -51 62 -233 l0
-155 800 0 800 0 0 311 0 311 70 280 c113 452 138 622 147 984 3 138 3 280 -1
317 -7 57 -10 66 -30 71 -37 9 -119 89 -145 142 -13 26 -26 69 -29 96 l-5 48
-1112 0 -1113 0 -6 -27z m211 -346 c13 -7 38 -37 55 -67 46 -77 108 -113 200
-118 48 -3 82 1 113 12 45 18 107 78 137 134 23 43 60 57 97 37 50 -26 54 -67
12 -140 -16 -28 -50 -70 -76 -94 -190 -175 -500 -119 -621 113 -27 53 -28 58
-14 83 9 15 27 33 40 40 30 15 30 15 57 0z"/>
</g>
</svg>
