<?xml version="1.0" standalone="no"?>
<!DOCTYPE svg PUBLIC "-//W3C//DTD SVG 20010904//EN"
 "http://www.w3.org/TR/2001/REC-SVG-20010904/DTD/svg10.dtd">
<svg version="1.0" xmlns="http://www.w3.org/2000/svg"
 width="512.000000pt" height="512.000000pt" viewBox="0 0 512.000000 512.000000"
 preserveAspectRatio="xMidYMid meet">
<metadata>
Created by potrace 1.16, written by Peter Selinger 2001-2019
</metadata>
<g transform="translate(0.000000,512.000000) scale(0.100000,-0.100000)"
fill="#000000" stroke="none">
<path d="M519 4898 c-69 -137 -137 -205 -277 -276 -56 -29 -102 -55 -102 -57
0 -2 49 -29 109 -60 140 -71 199 -131 270 -273 28 -56 53 -102 56 -102 2 0 28
46 57 103 71 139 139 207 276 276 56 28 102 53 102 56 0 2 -46 28 -102 57 -75
38 -120 68 -164 112 -44 44 -74 89 -112 164 -29 56 -55 102 -57 102 -3 0 -28
-46 -56 -102z"/>
<path d="M2505 4886 c-76 -19 -135 -48 -197 -99 -46 -38 -68 -48 -117 -56 -71
-11 -107 -29 -149 -72 -50 -52 -66 -94 -70 -193 -4 -83 -3 -88 14 -81 11 4 54
10 96 13 l77 4 30 49 c20 32 46 57 78 75 33 19 57 42 78 78 34 57 101 104 165
116 129 24 260 -75 279 -211 9 -67 25 -97 54 -104 12 -2 74 -6 137 -8 63 -2
123 -7 133 -11 40 -18 10 142 -46 248 -104 196 -348 305 -562 252z"/>
<path d="M2489 4541 c-24 -25 -29 -38 -29 -79 l0 -50 -55 -4 c-40 -3 -62 -11
-80 -28 l-25 -23 0 -239 c0 -193 3 -246 16 -276 19 -46 58 -88 105 -112 l36
-19 6 -163 c3 -90 11 -181 17 -203 16 -55 61 -155 70 -155 9 0 54 99 70 155 7
22 14 113 17 203 l6 163 36 19 c20 10 48 31 63 47 52 54 58 86 58 290 l0 188
-36 20 c-72 39 -124 124 -124 204 0 44 -47 91 -90 91 -22 0 -41 -9 -61 -29z"/>
<path d="M3610 4490 l0 -80 -80 0 -80 0 0 -90 0 -90 80 0 80 0 0 -80 0 -80 90
0 90 0 0 80 0 80 80 0 80 0 0 90 0 90 -80 0 -80 0 0 80 0 80 -90 0 -90 0 0
-80z"/>
<path d="M1150 4160 l0 -80 -85 0 -85 0 0 -90 0 -90 85 0 85 0 0 -80 0 -80 85
0 85 0 0 80 0 80 85 0 85 0 0 90 0 90 -85 0 -85 0 0 80 0 80 -85 0 -85 0 0
-80z"/>
<path d="M1995 4215 c-17 -16 -25 -35 -25 -60 0 -58 35 -85 110 -85 l60 0 0
85 0 85 -60 0 c-51 0 -65 -4 -85 -25z"/>
<path d="M2960 4155 l0 -85 60 0 c75 0 110 27 110 85 0 58 -35 85 -110 85
l-60 0 0 -85z"/>
<path d="M4635 3998 c-70 -143 -134 -207 -279 -280 l-110 -55 103 -53 c147
-75 205 -133 276 -271 31 -60 59 -109 63 -109 4 0 29 44 56 98 37 72 66 114
115 163 49 49 91 78 163 115 54 27 98 52 98 56 0 4 -49 32 -109 63 -137 70
-193 127 -269 273 -29 56 -54 102 -56 102 -1 0 -24 -46 -51 -102z"/>
<path d="M1905 3930 c-15 -48 -108 -171 -179 -237 -71 -66 -100 -84 -329 -200
-197 -99 -261 -136 -297 -172 -90 -90 -133 -223 -112 -347 15 -92 52 -160 128
-235 l64 -63 -80 -82 c-85 -87 -105 -121 -116 -201 -14 -107 52 -225 154 -274
41 -21 65 -24 195 -27 l147 -4 0 -67 c0 -48 7 -80 24 -116 34 -74 115 -135
179 -135 22 0 25 7 57 178 18 97 41 210 50 250 l18 73 -197 149 c-214 162
-246 198 -277 304 -20 74 -13 147 22 226 21 47 63 95 247 278 179 178 233 226
277 246 36 16 118 36 237 55 99 17 184 31 187 31 3 0 6 12 6 26 0 17 -15 40
-48 72 -55 54 -102 142 -109 206 l-5 43 -78 6 c-42 3 -91 12 -108 21 -40 21
-49 20 -57 -4z"/>
<path d="M3137 3934 c-15 -8 -62 -18 -105 -22 l-76 -7 -8 -43 c-12 -71 -54
-149 -108 -202 -34 -33 -50 -57 -50 -74 0 -14 3 -26 8 -26 28 0 235 -42 272
-54 102 -36 203 -142 238 -250 11 -34 46 -207 77 -386 l59 -325 67 -71 c83
-88 104 -142 97 -248 -3 -46 -13 -86 -27 -115 -32 -62 -103 -126 -164 -150
-29 -11 -51 -23 -51 -28 1 -4 7 -43 14 -85 12 -72 15 -78 37 -78 63 0 148 63
182 135 15 32 21 64 21 114 l0 69 148 4 c129 3 153 6 194 27 90 43 158 150
158 246 0 78 -28 134 -112 221 l-80 83 61 68 c73 81 109 148 124 236 20 122
-23 258 -110 345 -39 39 -98 73 -301 176 -233 118 -259 134 -332 203 -73 68
-147 169 -170 228 -11 29 -24 30 -63 9z"/>
<path d="M2215 3353 c-56 -76 -78 -129 -78 -187 0 -60 11 -84 105 -224 l70
-104 -135 -203 c-142 -214 -181 -285 -217 -399 -20 -60 -161 -777 -155 -784 1
-2 49 7 106 18 324 66 594 213 834 454 72 72 153 165 181 206 66 96 145 237
147 259 0 10 -54 101 -121 202 -119 180 -123 186 -171 203 -135 48 -306 204
-379 343 -42 82 -82 198 -82 239 0 21 -5 24 -35 24 -30 0 -40 -7 -70 -47z"/>
<path d="M2780 3376 c0 -43 -41 -159 -85 -243 l-44 -83 63 -45 c35 -25 80 -52
100 -60 l36 -15 50 76 c87 133 88 190 4 319 -47 71 -51 75 -86 75 -33 0 -38
-3 -38 -24z"/>
<path d="M1965 3343 c-44 -13 -74 -38 -252 -216 -111 -110 -210 -216 -219
-235 -22 -47 -16 -151 12 -189 11 -16 96 -86 189 -156 l169 -128 47 83 48 83
-97 98 -97 97 53 52 52 53 83 -83 c45 -45 86 -82 89 -82 4 0 25 27 48 60 l40
59 -60 92 c-105 160 -114 243 -45 412 8 20 5 20 -60 0z"/>
<path d="M3106 3264 c32 -108 12 -196 -75 -332 l-60 -93 111 -167 c148 -225
211 -364 243 -536 6 -27 12 -36 27 -36 31 0 95 70 103 113 14 71 -1 105 -80
187 l-74 75 -66 365 c-56 305 -71 373 -94 414 -37 66 -54 71 -35 10z"/>
<path d="M160 2845 l0 -85 -80 0 -80 0 0 -85 0 -85 80 0 80 0 0 -85 0 -85 85
0 85 0 0 85 0 85 85 0 85 0 0 85 0 85 -85 0 -85 0 0 85 0 85 -85 0 -85 0 0
-85z"/>
<path d="M518 2098 c-71 -140 -138 -206 -276 -273 -56 -27 -102 -52 -102 -55
0 -3 48 -29 107 -59 140 -71 198 -130 275 -276 l56 -108 56 109 c73 145 132
203 272 276 57 29 104 55 104 58 0 3 -48 29 -106 59 -142 72 -194 124 -265
263 -30 60 -57 108 -61 108 -4 0 -31 -46 -60 -102z"/>
<path d="M3100 2120 c0 -5 -35 -55 -77 -112 -88 -116 -213 -246 -320 -332
l-73 -58 0 -418 0 -419 103 -3 c56 -2 104 -2 106 0 3 2 277 1317 281 1350 0 1
-4 2 -10 2 -5 0 -10 -4 -10 -10z"/>
<path d="M4770 1855 l0 -85 -85 0 -85 0 0 -85 0 -85 85 0 85 0 0 -85 0 -85 85
0 85 0 0 85 0 85 85 0 85 0 0 85 0 85 -85 0 -85 0 0 85 0 85 -85 0 -85 0 0
-85z"/>
<path d="M3217 1830 c-3 -8 -56 -261 -118 -563 l-111 -547 42 -46 c48 -52 77
-113 86 -178 l7 -46 279 0 c302 0 314 2 357 56 11 14 23 41 27 59 12 67 -2 91
-126 213 -230 227 -306 387 -385 801 -57 296 -51 269 -58 251z"/>
<path d="M835 875 c-242 -404 -441 -740 -443 -745 -3 -7 269 -10 792 -10 l796
0 0 23 c0 22 18 89 35 129 6 16 -17 17 -307 20 l-313 3 -67 33 c-103 50 -158
131 -166 243 -8 117 11 154 153 294 199 197 283 350 335 608 31 153 52 137
-177 137 l-198 -1 -440 -734z"/>
<path d="M3430 1590 c0 -41 49 -247 74 -315 62 -162 133 -265 291 -420 126
-124 145 -160 145 -271 0 -126 -92 -242 -220 -278 -48 -14 -126 -16 -514 -16
-432 0 -458 -1 -451 -17 17 -41 35 -108 35 -130 l0 -23 960 0 c528 0 960 3
960 7 0 4 -199 340 -442 745 l-443 738 -197 0 c-191 0 -198 -1 -198 -20z"/>
<path d="M2390 1475 c-36 -18 -109 -51 -162 -71 -72 -28 -98 -42 -98 -55 0 -9
29 -212 65 -449 36 -237 65 -436 65 -441 0 -5 47 -9 105 -9 l105 0 0 530 c0
292 -3 530 -7 530 -5 -1 -37 -16 -73 -35z"/>
<path d="M1890 1310 c-19 -4 -55 -11 -80 -14 -45 -6 -46 -7 -69 -69 -67 -175
-149 -297 -302 -450 -129 -128 -142 -154 -120 -227 12 -40 57 -86 94 -95 12
-3 173 -4 358 -3 l335 3 -63 415 c-34 228 -62 423 -63 433 0 19 -28 21 -90 7z"/>
<path d="M2630 535 l0 -85 171 0 171 0 -7 33 c-11 51 -44 96 -86 117 -31 16
-58 20 -144 20 l-105 0 0 -85z"/>
<path d="M2221 273 c-38 -19 -76 -73 -86 -120 l-7 -33 257 0 257 0 -7 33 c-11
50 -32 83 -67 109 -30 21 -45 23 -173 26 -115 2 -146 -1 -174 -15z"/>
</g>
</svg>
