<?xml version="1.0" standalone="no"?>
<!DOCTYPE svg PUBLIC "-//W3C//DTD SVG 20010904//EN"
 "http://www.w3.org/TR/2001/REC-SVG-20010904/DTD/svg10.dtd">
<svg version="1.0" xmlns="http://www.w3.org/2000/svg"
 width="512.000000pt" height="512.000000pt" viewBox="0 0 512.000000 512.000000"
 preserveAspectRatio="xMidYMid meet">
<metadata>
Created by potrace 1.16, written by Peter Selinger 2001-2019
</metadata>
<g transform="translate(0.000000,512.000000) scale(0.100000,-0.100000)"
fill="#000000" stroke="none">
<path d="M2999 5097 c-71 -47 -69 -29 -69 -639 l0 -548 850 0 c930 0 885 -3
928 58 11 15 23 44 27 64 14 76 4 91 -193 290 l-185 187 174 181 c96 100 182
195 192 213 23 41 17 115 -13 158 -45 62 -2 59 -878 59 l-799 0 -34 -23z"/>
<path d="M1443 4800 c-324 -115 -417 -534 -170 -768 91 -85 184 -122 312 -122
132 0 234 42 323 133 66 68 107 149 122 239 39 226 -91 444 -307 519 -74 25
-207 25 -280 -1z"/>
<path d="M835 3596 c-168 -41 -318 -165 -394 -326 -60 -127 -62 -151 -59 -720
l3 -515 24 -53 c29 -65 104 -134 168 -156 62 -21 141 -20 264 4 57 11 104 18
106 16 2 -2 -57 -347 -132 -767 -150 -837 -149 -828 -98 -922 56 -101 151
-157 268 -157 120 0 220 60 269 163 16 33 81 288 176 692 83 352 152 643 153
647 1 5 69 -277 151 -625 82 -347 158 -655 168 -683 55 -151 230 -231 389
-179 106 36 199 162 199 271 0 19 -67 414 -150 877 l-150 842 0 502 0 503 478
0 c541 0 536 -1 621 76 67 60 95 127 95 224 0 97 -28 164 -95 224 -90 81 -3
76 -1273 75 -854 0 -1143 -4 -1181 -13z"/>
<path d="M3195 2729 c-16 -5 -83 -12 -147 -15 l-118 -7 0 -1296 c0 -1214 1
-1298 18 -1331 54 -108 220 -108 274 0 17 33 18 118 18 1348 0 721 -3 1312 -7
1311 -5 0 -21 -5 -38 -10z"/>
</g>
</svg>
