<?xml version="1.0" standalone="no"?>
<!DOCTYPE svg PUBLIC "-//W3C//DTD SVG 20010904//EN"
 "http://www.w3.org/TR/2001/REC-SVG-20010904/DTD/svg10.dtd">
<svg version="1.0" xmlns="http://www.w3.org/2000/svg"
 width="512.000000pt" height="512.000000pt" viewBox="0 0 512.000000 512.000000"
 preserveAspectRatio="xMidYMid meet">
<metadata>
Created by potrace 1.16, written by Peter Selinger 2001-2019
</metadata>
<g transform="translate(0.000000,512.000000) scale(0.100000,-0.100000)"
fill="#000000" stroke="none">
<path d="M3664 5101 c-82 -30 -115 -51 -177 -109 -102 -98 -147 -205 -147
-349 0 -134 39 -229 134 -331 98 -104 209 -146 370 -140 88 3 110 8 169 36 89
41 140 82 193 154 63 86 89 171 88 288 -1 110 -22 178 -80 265 -48 74 -103
120 -194 164 -71 34 -81 36 -190 38 -91 2 -125 -1 -166 -16z"/>
<path d="M1700 5091 c-106 -34 -161 -107 -159 -213 1 -89 9 -95 49 -40 57 77
105 95 273 100 l139 5 -49 49 c-26 27 -66 60 -88 73 -44 26 -126 39 -165 26z"/>
<path d="M1735 4791 c-41 -17 -50 -40 -55 -148 l-5 -104 -70 -30 -69 -29 -71
70 c-64 63 -74 70 -110 70 -39 0 -47 -7 -199 -159 -148 -148 -158 -161 -158
-196 0 -33 8 -46 71 -109 l72 -72 -24 -55 c-14 -30 -27 -61 -30 -70 -4 -14
-25 -17 -111 -21 -157 -5 -150 5 -154 -260 -3 -230 -1 -249 28 -278 17 -17 34
-20 123 -20 l103 0 30 -74 31 -75 -60 -58 c-65 -64 -88 -104 -80 -144 3 -17
60 -82 162 -183 148 -146 160 -156 195 -156 34 0 47 8 111 70 l72 70 71 -27
72 -28 0 -93 c0 -97 14 -144 45 -156 21 -8 285 -8 285 0 0 3 -7 31 -16 62 -33
114 9 256 102 342 53 49 82 63 431 201 l262 104 20 45 c11 25 22 57 26 73 l7
27 97 0 96 0 33 40 32 39 0 214 0 214 -26 24 c-23 22 -36 24 -127 27 l-102 4
-29 70 -28 69 71 74 c63 64 71 77 71 111 0 36 -9 47 -158 196 -155 155 -158
158 -201 158 -40 0 -49 -5 -114 -69 l-70 -68 -74 30 -73 29 0 102 c0 97 -1
104 -26 127 -25 24 -28 24 -242 26 -119 1 -226 -2 -237 -6z m390 -622 c153
-47 291 -181 346 -335 29 -82 36 -220 15 -301 -48 -191 -193 -340 -385 -397
-69 -20 -195 -21 -275 0 -204 52 -367 236 -398 451 -40 275 165 553 444 602
69 13 175 4 253 -20z"/>
<path d="M3064 4223 c-16 -51 -39 -94 -60 -114 -34 -32 -30 -39 21 -39 81 0
159 -54 196 -135 15 -33 18 -64 18 -175 l0 -135 -118 -225 -117 -225 -385
-155 c-212 -85 -397 -163 -412 -173 -68 -44 -104 -159 -77 -241 16 -50 66
-105 115 -127 87 -40 106 -35 587 158 345 137 450 183 474 207 16 17 95 148
174 291 147 266 168 302 151 250 -6 -17 -47 -154 -91 -305 -84 -283 -102 -325
-149 -360 -16 -10 -239 -104 -497 -207 l-469 -188 -90 0 c-78 0 -97 4 -147 28
-36 18 -70 27 -90 25 l-31 -3 -129 -385 -129 -385 -59 -678 c-33 -372 -57
-692 -53 -710 9 -47 47 -118 80 -149 46 -44 110 -68 185 -68 37 0 79 5 95 11
77 28 140 97 162 175 6 21 36 323 66 669 l55 630 135 405 c74 223 137 410 139
417 4 8 19 6 55 -10 61 -25 58 34 30 -500 -15 -289 -17 -413 -10 -442 16 -62
558 -1225 590 -1265 72 -89 221 -118 329 -64 59 29 96 69 125 133 15 34 18 59
15 120 -5 75 -8 82 -265 636 l-261 560 15 279 14 279 339 766 c186 421 343
786 350 811 28 103 -10 229 -94 307 -44 42 -88 65 -331 173 -154 68 -300 129
-324 137 -64 19 -120 17 -127 -4z"/>
</g>
</svg>
