<?xml version="1.0" standalone="no"?>
<!DOCTYPE svg PUBLIC "-//W3C//DTD SVG 20010904//EN"
 "http://www.w3.org/TR/2001/REC-SVG-20010904/DTD/svg10.dtd">
<svg version="1.0" xmlns="http://www.w3.org/2000/svg"
 width="512.000000pt" height="512.000000pt" viewBox="0 0 512.000000 512.000000"
 preserveAspectRatio="xMidYMid meet">
<metadata>
Created by potrace 1.16, written by Peter Selinger 2001-2019
</metadata>
<g transform="translate(0.000000,512.000000) scale(0.100000,-0.100000)"
fill="#000000" stroke="none">
<path d="M2410 5100 c-78 -25 -140 -63 -199 -121 -58 -57 -92 -111 -122 -195
-32 -88 -30 -231 5 -339 69 -214 229 -373 408 -405 255 -47 522 220 553 550
13 138 -39 281 -138 381 -61 62 -138 110 -217 133 -72 22 -218 20 -290 -4z"/>
<path d="M2385 3993 c-102 -12 -247 -38 -355 -64 -130 -32 -1217 -388 -1282
-420 -116 -58 -139 -233 -43 -318 20 -17 39 -31 43 -31 41 -1 31 -24 -197
-474 -196 -388 -231 -462 -231 -500 0 -248 197 -472 449 -508 271 -40 530 144
587 414 9 42 13 90 9 113 -3 22 -106 238 -232 487 -124 247 -224 450 -222 452
2 2 249 85 549 184 l545 181 3 -655 2 -654 -80 -994 c-89 -1104 -88 -1046 -21
-1127 62 -75 193 -102 287 -60 51 23 108 90 123 144 8 28 151 1724 151 1781 0
1 40 1 89 1 l90 0 6 -55 c3 -30 35 -422 70 -870 36 -448 70 -834 76 -857 15
-54 72 -121 123 -144 26 -12 65 -19 104 -19 113 0 197 61 227 165 14 48 10
112 -65 1045 l-80 994 2 653 3 652 545 -181 c300 -99 547 -182 550 -185 2 -2
-101 -212 -230 -467 l-235 -463 13 -84 c33 -230 211 -413 440 -451 260 -43
526 134 587 393 31 135 40 112 -216 617 -127 251 -227 458 -221 460 6 2 26 13
44 25 104 70 115 215 24 302 -40 38 -66 48 -606 227 -703 233 -842 270 -1102
293 l-77 7 -25 -51 -26 -51 66 -509 65 -509 -73 -126 c-40 -69 -75 -126 -78
-126 -3 0 -38 57 -78 126 l-72 127 65 511 66 511 -22 47 c-22 46 -24 48 -63
47 -23 -1 -54 -4 -71 -6z m-1279 -1445 c86 -172 92 -187 68 -178 -135 52 -505
54 -646 4 -22 -7 -38 -10 -36 -6 2 4 81 162 176 351 l174 344 85 -164 c46 -90
127 -248 179 -351z m3348 167 c97 -190 176 -347 176 -349 0 -1 -33 6 -72 16
-149 39 -415 39 -565 0 l-72 -18 177 348 c97 191 178 348 179 348 1 0 80 -155
177 -345z"/>
</g>
</svg>
