<?xml version="1.0" standalone="no"?>
<!DOCTYPE svg PUBLIC "-//W3C//DTD SVG 20010904//EN"
 "http://www.w3.org/TR/2001/REC-SVG-20010904/DTD/svg10.dtd">
<svg version="1.0" xmlns="http://www.w3.org/2000/svg"
 width="512.000000pt" height="512.000000pt" viewBox="0 0 512.000000 512.000000"
 preserveAspectRatio="xMidYMid meet">
<metadata>
Created by potrace 1.16, written by Peter Selinger 2001-2019
</metadata>
<g transform="translate(0.000000,512.000000) scale(0.100000,-0.100000)"
fill="#000000" stroke="none">
<path d="M2228 4991 c-157 -50 -280 -172 -334 -331 -15 -42 -19 -81 -17 -165
0 -60 5 -122 10 -137 l8 -28 459 205 c252 112 463 208 469 214 12 12 -62 106
-120 153 -50 40 -126 78 -188 94 -72 20 -218 17 -287 -5z"/>
<path d="M2410 4341 l-485 -217 -3 -53 c-3 -53 -2 -55 47 -101 l50 -47 -24
-92 c-14 -51 -25 -98 -25 -104 0 -7 47 -27 103 -45 56 -18 144 -53 196 -77 51
-25 97 -45 101 -45 4 0 16 33 27 73 19 69 21 72 49 70 206 -16 198 -16 239 5
72 37 101 81 130 202 9 41 37 124 61 185 56 143 68 220 54 340 -10 95 -17 126
-29 124 -3 -1 -224 -99 -491 -218z"/>
<path d="M1795 3506 c-111 -35 -178 -105 -225 -233 -76 -211 -80 -277 -80
-1304 0 -835 1 -869 20 -931 12 -38 34 -81 56 -106 70 -82 22 -76 727 -82
l629 -5 29 -33 c53 -59 29 -140 -49 -162 -23 -6 -234 -10 -564 -10 l-528 0 0
-270 0 -270 1032 0 c1145 0 1096 -3 1191 66 52 38 101 107 117 164 15 55 12
276 -5 349 -36 151 -157 315 -291 393 -33 19 -233 102 -445 183 -211 81 -406
159 -433 172 -71 36 -151 116 -186 186 -16 33 -30 68 -30 78 0 17 -9 18 -133
12 -353 -16 -597 89 -702 302 -36 73 -53 150 -90 426 -20 140 -16 169 22 205
44 41 109 30 150 -26 6 -8 26 -114 43 -235 35 -241 51 -292 108 -348 88 -85
189 -112 412 -111 210 1 369 28 609 105 168 54 361 138 361 158 0 5 -51 114
-114 243 l-113 234 -329 -46 c-181 -26 -332 -44 -335 -41 -4 3 -16 85 -28 181
-11 97 -28 202 -36 234 -26 98 -82 194 -165 278 -70 71 -86 81 -240 156 -91
44 -183 85 -205 91 -52 14 -130 13 -180 -3z"/>
<path d="M3663 2798 l-162 -81 105 -209 c99 -198 105 -208 125 -197 45 23 112
103 142 167 30 63 32 74 32 177 0 99 -3 116 -27 168 -15 31 -33 57 -40 56 -7
0 -86 -37 -175 -81z"/>
<path d="M1338 629 c-164 -38 -341 -224 -356 -371 -7 -76 5 -116 41 -138 30
-18 52 -20 305 -20 l272 0 0 270 0 270 -112 -1 c-62 -1 -130 -5 -150 -10z"/>
</g>
</svg>
