<?xml version="1.0" standalone="no"?>
<!DOCTYPE svg PUBLIC "-//W3C//DTD SVG 20010904//EN"
 "http://www.w3.org/TR/2001/REC-SVG-20010904/DTD/svg10.dtd">
<svg version="1.0" xmlns="http://www.w3.org/2000/svg"
 width="512.000000pt" height="512.000000pt" viewBox="0 0 512.000000 512.000000"
 preserveAspectRatio="xMidYMid meet">
<metadata>
Created by potrace 1.16, written by Peter Selinger 2001-2019
</metadata>
<g transform="translate(0.000000,512.000000) scale(0.100000,-0.100000)"
fill="#000000" stroke="none">
<path d="M2270 5104 c-488 -74 -1005 -336 -1499 -758 -139 -118 -348 -323
-473 -463 -122 -137 -241 -284 -234 -290 2 -3 55 31 118 75 686 482 1388 763
2083 832 141 14 448 14 590 0 672 -66 1383 -345 2039 -801 87 -61 160 -108
163 -106 14 14 -280 348 -469 533 -330 322 -655 561 -998 733 -263 131 -501
209 -751 246 -134 19 -437 19 -569 -1z"/>
<path d="M2295 4213 c-118 -14 -205 -27 -303 -44 l-112 -21 -65 -82 c-74 -92
-144 -226 -176 -336 -30 -107 -38 -335 -14 -451 32 -159 97 -294 203 -422 l54
-65 81 -16 c192 -37 292 -48 514 -53 259 -6 411 4 623 43 135 25 135 25 172
67 95 106 169 241 210 384 20 68 23 101 23 253 0 152 -3 185 -23 253 -41 143
-115 278 -210 384 -37 42 -37 42 -172 67 -74 13 -184 29 -244 35 -100 10 -489
13 -561 4z m448 -340 c90 -43 177 -129 220 -220 30 -64 32 -74 32 -183 0 -109
-2 -119 -32 -183 -43 -91 -129 -177 -220 -220 -64 -30 -74 -32 -183 -32 -109
0 -119 2 -183 32 -91 43 -177 129 -220 220 -30 64 -32 74 -32 183 0 109 2 119
32 183 37 78 125 172 193 207 81 42 120 50 225 47 89 -2 108 -6 168 -34z"/>
<path d="M2476 3601 c-46 -31 -66 -69 -66 -131 0 -62 20 -100 66 -131 39 -26
129 -26 168 0 46 31 66 69 66 131 0 37 -6 64 -19 84 -31 46 -69 66 -131 66
-37 0 -64 -6 -84 -19z"/>
<path d="M1305 3964 c-149 -60 -485 -228 -618 -308 -171 -103 -277 -175 -277
-186 0 -25 332 -225 580 -349 163 -81 418 -192 441 -191 3 0 -9 37 -27 83 -65
160 -79 239 -79 457 0 218 14 297 79 458 19 46 28 82 22 81 -6 0 -60 -20 -121
-45z"/>
<path d="M3716 3928 c65 -161 79 -240 79 -458 0 -218 -14 -297 -79 -457 -18
-46 -29 -83 -23 -83 21 0 289 117 432 188 243 121 585 327 585 352 0 25 -342
231 -585 352 -143 71 -411 188 -432 188 -6 0 5 -37 23 -82z"/>
<path d="M69 3333 c22 -43 233 -284 374 -429 517 -532 1083 -891 1617 -1024
176 -44 307 -60 500 -60 358 0 661 77 1030 261 412 206 807 515 1193 934 129
140 281 324 274 332 -3 2 -74 -44 -158 -102 -189 -131 -293 -196 -474 -295
-517 -284 -1059 -460 -1570 -510 -142 -14 -449 -14 -590 0 -683 68 -1388 347
-2058 814 -75 53 -139 96 -142 96 -3 0 -1 -8 4 -17z"/>
<path d="M785 1814 c-16 -8 -132 -117 -257 -242 l-228 -227 0 121 c0 109 -2
124 -23 155 -60 90 -194 90 -254 0 -23 -34 -23 -37 -23 -370 0 -312 1 -338 19
-365 10 -15 32 -37 47 -47 27 -18 53 -19 365 -19 333 0 336 0 370 23 90 60 90
194 0 254 -31 21 -46 23 -155 23 l-120 0 236 238 c203 204 237 242 243 275 10
50 0 105 -23 137 -40 55 -135 76 -197 44z"/>
<path d="M4191 1812 c-19 -9 -43 -29 -54 -44 -28 -37 -34 -116 -12 -159 9 -19
119 -136 243 -261 l227 -228 -121 0 c-109 0 -124 -2 -155 -23 -19 -12 -42 -38
-51 -57 -35 -70 -13 -154 51 -197 34 -23 37 -23 370 -23 312 0 338 1 365 19
15 10 37 32 47 47 18 27 19 53 19 365 0 333 0 336 -23 370 -60 90 -194 90
-254 0 -21 -31 -23 -46 -23 -155 l0 -120 -232 231 c-128 128 -246 237 -261
242 -42 16 -97 13 -136 -7z"/>
<path d="M2476 1281 c-15 -10 -37 -32 -47 -47 -18 -27 -19 -53 -19 -369 l0
-339 -72 70 c-98 96 -112 104 -178 104 -62 0 -100 -20 -131 -66 -24 -37 -26
-129 -3 -164 24 -37 392 -407 438 -441 32 -24 49 -29 96 -29 47 0 64 5 96 29
46 34 414 404 438 441 23 35 21 127 -3 164 -31 46 -69 66 -131 66 -66 0 -80
-8 -177 -104 l-73 -70 0 339 c0 316 -1 342 -19 369 -31 46 -69 66 -131 66 -37
0 -64 -6 -84 -19z"/>
</g>
</svg>
