<?xml version="1.0" standalone="no"?>
<!DOCTYPE svg PUBLIC "-//W3C//DTD SVG 20010904//EN"
 "http://www.w3.org/TR/2001/REC-SVG-20010904/DTD/svg10.dtd">
<svg version="1.0" xmlns="http://www.w3.org/2000/svg"
 width="512.000000pt" height="512.000000pt" viewBox="0 0 512.000000 512.000000"
 preserveAspectRatio="xMidYMid meet">
<metadata>
Created by potrace 1.16, written by Peter Selinger 2001-2019
</metadata>
<g transform="translate(0.000000,512.000000) scale(0.100000,-0.100000)"
fill="#000000" stroke="none">
<path d="M920 4779 c-260 -67 -482 -276 -567 -534 -38 -116 -44 -316 -14 -436
52 -205 177 -377 357 -492 39 -25 77 -53 85 -63 21 -25 21 -1362 0 -1388 -8
-9 -50 -41 -95 -70 -241 -158 -366 -389 -366 -678 0 -65 3 -118 8 -118 4 0
104 97 222 216 118 118 234 227 258 241 63 37 160 43 228 14 74 -32 413 -375
439 -444 24 -65 17 -161 -18 -219 -14 -24 -123 -140 -241 -258 -119 -118 -216
-218 -216 -222 0 -5 53 -8 118 -8 234 0 423 79 579 243 l63 65 0 494 0 494
-72 71 c-40 39 -105 92 -144 116 -39 25 -77 53 -85 63 -21 25 -21 1362 0 1388
8 9 50 41 95 70 241 158 366 390 366 678 0 65 -3 118 -8 118 -4 0 -104 -97
-222 -216 -118 -118 -234 -227 -258 -241 -58 -35 -154 -42 -219 -18 -69 26
-412 365 -444 439 -29 68 -23 165 14 228 14 24 123 140 241 258 119 118 216
218 216 222 0 17 -244 7 -320 -13z m280 -2219 l0 -720 -80 0 -80 0 0 720 0
720 80 0 80 0 0 -720z"/>
<path d="M2913 4786 c-100 -32 -190 -113 -241 -216 -26 -53 -27 -63 -30 -232
l-4 -178 161 0 161 0 0 114 c0 137 11 173 56 192 48 20 640 20 688 0 45 -19
56 -55 56 -192 l0 -114 161 0 161 0 -4 178 c-3 173 -4 179 -32 237 -38 77
-114 153 -191 191 l-60 29 -420 2 c-329 2 -429 -1 -462 -11z"/>
<path d="M3120 4240 l0 -80 240 0 240 0 0 80 0 80 -240 0 -240 0 0 -80z"/>
<path d="M2620 3974 c0 -36 28 -91 58 -114 53 -43 89 -44 295 -9 171 29 213
33 387 33 174 0 216 -4 387 -33 206 -35 242 -34 295 9 30 23 58 78 58 114 l0
26 -740 0 -740 0 0 -26z"/>
<path d="M2470 3737 c-98 -65 -98 -209 0 -274 18 -13 46 -23 61 -23 l29 0 0
160 0 160 -29 0 c-15 0 -43 -10 -61 -23z"/>
<path d="M4160 3600 l0 -160 28 0 c72 0 132 73 132 160 0 87 -60 160 -132 160
l-28 0 0 -160z"/>
<path d="M3176 3730 c-43 -5 -81 -11 -83 -14 -3 -2 0 -13 6 -24 30 -57 2 -131
-59 -156 -37 -15 -43 -15 -80 0 -46 19 -70 55 -70 108 l0 34 -85 -1 -85 -2 0
-209 c0 -240 8 -285 73 -411 79 -153 242 -281 408 -320 82 -19 236 -19 317 0
177 42 339 173 420 340 54 109 62 161 62 391 l0 209 -85 2 -85 1 0 -35 c0 -91
-86 -141 -169 -99 -46 24 -63 97 -37 157 6 13 -1 18 -31 23 -66 11 -335 15
-417 6z m420 -490 l21 -69 -71 -16 c-77 -18 -251 -35 -358 -35 l-68 0 0 80 0
80 153 1 c83 0 177 7 207 14 95 22 93 23 116 -55z"/>
<path d="M3041 2548 c0 -74 8 -107 72 -313 l73 -230 174 0 174 0 73 230 c64
206 72 239 72 313 1 45 -1 82 -4 82 -3 0 -21 -6 -39 -14 -148 -62 -374 -62
-545 -2 -24 9 -45 16 -47 16 -2 0 -4 -37 -3 -82z"/>
<path d="M3731 2140 c-40 -131 -71 -245 -68 -253 5 -13 248 -157 265 -157 12
0 57 569 46 580 -7 7 -159 70 -167 70 -1 0 -35 -108 -76 -240z"/>
<path d="M2818 2329 c-43 -21 -78 -43 -78 -47 -2 -45 46 -552 52 -552 17 0
260 144 265 158 8 20 -138 482 -151 482 -6 -1 -46 -19 -88 -41z"/>
<path d="M4127 2213 c-4 -32 -16 -175 -27 -318 -11 -143 -23 -275 -26 -293 -7
-42 -36 -72 -71 -72 -17 0 -101 42 -212 105 -101 58 -185 104 -187 102 -2 -1
-39 -104 -83 -227 l-81 -225 0 -102 c0 -76 3 -103 13 -103 6 0 109 7 227 16
214 16 215 16 315 57 l99 42 -247 3 -247 2 0 80 0 80 320 0 320 0 0 120 0 120
80 0 80 0 0 -135 c0 -74 2 -135 4 -135 2 0 23 7 46 15 31 11 85 15 197 15
l154 0 -3 288 -3 288 -32 65 c-40 81 -112 150 -196 189 -48 22 -102 34 -241
54 -98 14 -182 26 -186 26 -4 0 -10 -26 -13 -57z"/>
<path d="M2375 2199 c-116 -25 -202 -50 -242 -69 -73 -36 -140 -106 -180 -188
l-28 -57 -3 -262 -3 -263 158 0 c111 -1 170 -5 198 -15 22 -8 41 -15 43 -15 1
0 2 61 2 135 l0 135 80 0 80 0 2 -172 3 -172 165 -71 165 -71 170 -13 c94 -7
198 -15 233 -18 l62 -6 0 104 0 104 -81 225 c-44 123 -81 226 -83 227 -2 2
-86 -44 -187 -102 -111 -63 -195 -105 -211 -105 -36 0 -65 30 -72 72 -3 18
-15 150 -26 293 -26 338 -27 345 -48 344 -9 0 -98 -18 -197 -40z m745 -839 l0
-80 -80 0 -80 0 0 80 0 80 80 0 80 0 0 -80z"/>
<path d="M3242 1831 c2 -5 28 -79 58 -165 30 -86 57 -156 60 -156 3 0 30 70
60 156 30 86 57 160 58 165 2 5 -51 9 -118 9 -67 0 -120 -4 -118 -9z"/>
<path d="M1920 1000 l0 -200 154 0 c85 0 167 -5 183 -11 15 -5 60 -41 98 -79
l70 -69 205 -7 205 -6 734 -154 733 -154 159 0 c177 0 209 7 268 63 62 59 71
93 71 270 0 86 -1 157 -2 157 -2 1 -455 36 -1008 79 l-1005 78 -272 117 -273
116 -160 0 -160 0 0 -200z"/>
<path d="M4275 1112 c-180 -78 -197 -87 -170 -94 17 -4 161 -16 320 -28 160
-11 309 -23 333 -26 l42 -6 0 121 0 121 -162 -1 -163 0 -200 -87z"/>
<path d="M1920 570 c0 -82 17 -130 63 -179 59 -62 92 -71 274 -71 159 0 169 1
425 55 145 30 272 59 282 63 15 6 -2 13 -65 25 -62 13 -137 17 -287 17 -151 0
-211 4 -235 14 -18 8 -61 44 -97 80 l-64 66 -148 0 -148 0 0 -70z"/>
</g>
</svg>
