<?xml version="1.0" standalone="no"?>
<!DOCTYPE svg PUBLIC "-//W3C//DTD SVG 20010904//EN"
 "http://www.w3.org/TR/2001/REC-SVG-20010904/DTD/svg10.dtd">
<svg version="1.0" xmlns="http://www.w3.org/2000/svg"
 width="512.000000pt" height="512.000000pt" viewBox="0 0 512.000000 512.000000"
 preserveAspectRatio="xMidYMid meet">
<metadata>
Created by potrace 1.16, written by Peter Selinger 2001-2019
</metadata>
<g transform="translate(0.000000,512.000000) scale(0.100000,-0.100000)"
fill="#000000" stroke="none">
<path d="M1857 4774 c-350 -78 -566 -416 -492 -769 8 -38 33 -108 56 -155 41
-84 47 -90 590 -635 l549 -550 549 550 c543 545 549 551 590 635 94 193 94
397 1 584 -76 153 -210 269 -373 322 -71 24 -98 28 -202 28 -103 0 -131 -4
-201 -27 -97 -32 -174 -81 -272 -170 -39 -37 -81 -67 -92 -67 -11 0 -55 32
-97 71 -97 88 -165 130 -268 164 -101 34 -238 42 -338 19z m883 -385 c48 -17
60 -56 60 -194 l0 -115 115 0 c138 0 177 -12 194 -60 15 -43 15 -317 0 -360
-17 -48 -56 -60 -194 -60 l-115 0 0 -114 c0 -137 -11 -173 -56 -192 -42 -18
-315 -19 -364 -3 -48 17 -60 56 -60 194 l0 115 -114 0 c-137 0 -173 11 -192
56 -18 42 -19 315 -3 364 17 48 56 60 194 60 l115 0 0 114 c0 134 11 173 54
192 39 17 318 19 366 3z"/>
<path d="M2480 4080 l0 -160 -160 0 -160 0 0 -80 0 -80 160 0 160 0 0 -160 0
-160 80 0 80 0 0 160 0 160 160 0 160 0 0 80 0 80 -160 0 -160 0 0 160 0 160
-80 0 -80 0 0 -160z"/>
<path d="M606 3850 c-38 -12 -93 -65 -101 -99 -3 -14 -8 -33 -11 -42 -4 -13 8
-19 55 -28 105 -21 210 -109 245 -204 8 -23 65 -196 126 -383 l110 -342 38 14
c20 7 48 13 61 14 18 0 22 4 16 18 -4 9 -80 230 -171 489 -90 260 -171 484
-180 498 -34 52 -126 84 -188 65z"/>
<path d="M4413 3849 c-18 -5 -48 -24 -66 -42 -28 -29 -54 -96 -204 -528 -143
-413 -168 -495 -155 -497 10 -2 36 -9 59 -17 l43 -14 115 357 c64 196 123 374
133 396 36 85 146 164 250 181 38 6 42 9 37 28 -4 12 -9 31 -12 42 -9 33 -65
84 -103 95 -41 12 -54 11 -97 -1z"/>
<path d="M446 3530 c-44 -14 -93 -67 -105 -114 -8 -32 -7 -56 4 -102 42 -180
349 -1303 365 -1334 21 -42 61 -79 386 -367 142 -127 252 -232 270 -260 48
-74 64 -133 71 -269 l6 -124 399 0 398 0 0 423 c0 464 -2 476 -62 597 -61 120
-128 174 -448 362 -535 312 -498 293 -555 293 -119 -2 -197 -120 -151 -228 20
-48 42 -64 291 -206 127 -73 240 -144 253 -158 17 -19 22 -33 17 -52 -8 -33
-40 -61 -72 -61 -36 0 -510 275 -559 325 -62 64 -87 126 -88 215 -1 57 5 87
22 124 l22 48 -130 399 c-71 219 -137 410 -146 423 -35 54 -125 86 -188 66z"/>
<path d="M4579 3530 c-37 -11 -75 -38 -93 -65 -9 -13 -74 -204 -146 -423
l-130 -400 22 -48 c34 -75 31 -181 -7 -257 -16 -32 -45 -73 -64 -90 -50 -45
-525 -317 -553 -317 -55 0 -93 61 -64 105 8 12 122 84 253 160 131 76 249 147
262 159 122 108 4 321 -154 277 -20 -5 -208 -110 -418 -233 -426 -249 -481
-291 -545 -418 -60 -121 -62 -133 -62 -597 l0 -423 398 0 399 0 6 124 c7 136
22 195 71 269 19 30 136 141 313 298 290 257 338 304 354 346 10 28 342 1264
358 1334 13 60 -1 114 -42 157 -43 44 -100 60 -158 42z"/>
<path d="M1360 560 l0 -240 480 0 480 0 0 240 0 240 -480 0 -480 0 0 -240z"/>
<path d="M2800 560 l0 -240 480 0 480 0 0 240 0 240 -480 0 -480 0 0 -240z"/>
</g>
</svg>
