<?xml version="1.0" standalone="no"?>
<!DOCTYPE svg PUBLIC "-//W3C//DTD SVG 20010904//EN"
 "http://www.w3.org/TR/2001/REC-SVG-20010904/DTD/svg10.dtd">
<svg version="1.0" xmlns="http://www.w3.org/2000/svg"
 width="512.000000pt" height="512.000000pt" viewBox="0 0 512.000000 512.000000"
 preserveAspectRatio="xMidYMid meet">
<metadata>
Created by potrace 1.16, written by Peter Selinger 2001-2019
</metadata>
<g transform="translate(0.000000,512.000000) scale(0.100000,-0.100000)"
fill="#000000" stroke="none">
<path d="M2400 5109 c-344 -37 -762 -117 -965 -183 -332 -110 -525 -250 -699
-511 -112 -168 -172 -311 -242 -579 -27 -105 -65 -218 -100 -300 -32 -72 -61
-147 -65 -166 -10 -44 10 -78 86 -144 70 -60 115 -146 115 -219 0 -93 -209
-467 -420 -748 -55 -73 -103 -144 -106 -157 -9 -32 19 -59 108 -106 109 -58
165 -103 196 -154 23 -40 27 -58 27 -123 0 -70 -4 -83 -44 -165 l-44 -88 38
-31 c120 -94 130 -118 79 -195 -27 -41 -28 -44 -10 -54 113 -68 157 -121 177
-214 9 -46 8 -71 -5 -138 -20 -105 -20 -163 1 -237 20 -74 63 -121 123 -137
40 -11 57 -9 185 24 221 57 405 115 802 251 441 152 550 201 638 288 64 62 85
105 85 170 0 40 40 77 84 77 26 0 40 -7 61 -32 25 -30 27 -37 21 -93 -9 -93
-53 -171 -142 -254 -95 -88 -247 -166 -486 -247 l-167 -56 65 -84 c105 -134
202 -318 245 -461 l12 -43 1044 0 c573 0 1043 2 1043 4 0 2 -17 33 -39 67
-137 227 -251 656 -276 1039 -8 122 7 303 35 434 11 49 20 94 20 98 0 4 -447
8 -993 8 -1137 0 -1063 -5 -1153 84 -90 91 -84 -12 -84 1376 0 1348 -3 1277
66 1358 20 24 59 55 88 70 l51 27 642 0 643 0 27 -28 28 -27 3 -199 3 -198 64
-6 c116 -11 214 -78 266 -182 33 -67 34 -188 2 -256 -49 -107 -149 -177 -268
-187 l-65 -5 0 -138 0 -139 139 0 138 0 5 63 c10 118 73 214 176 264 78 39
193 40 267 4 104 -52 171 -150 182 -267 l6 -64 57 0 c51 0 58 3 64 23 15 50
19 324 6 425 l-12 102 -152 0 c-176 0 -217 9 -267 59 -20 20 -42 54 -48 76 -6
23 -11 127 -11 248 0 234 6 265 59 287 29 12 37 10 83 -11 97 -45 191 -17 218
67 25 75 -5 144 -76 176 -50 22 -82 19 -151 -15 -37 -18 -45 -19 -73 -7 -39
16 -60 60 -60 128 l0 49 -107 61 c-182 103 -366 171 -586 218 -106 22 -152 26
-347 29 -124 2 -263 -1 -310 -6z m-969 -448 c54 -54 33 -103 -64 -153 -251
-126 -426 -377 -513 -737 -16 -66 -35 -122 -45 -132 -43 -43 -106 -33 -134 21
-16 30 -15 38 15 158 56 225 125 375 243 535 104 141 196 221 342 299 86 46
117 48 156 9z m-752 -1206 c55 -28 60 -104 9 -139 -66 -47 -153 18 -127 94 11
29 49 59 77 60 7 0 26 -7 41 -15z"/>
<path d="M3930 4981 l0 -138 65 -5 c125 -11 232 -89 275 -204 73 -195 -62
-401 -276 -421 l-64 -6 0 -138 0 -139 139 0 138 0 6 66 c25 263 324 386 520
213 60 -52 98 -130 105 -214 l5 -65 138 0 139 0 0 570 0 571 -25 24 -24 25
-571 0 -570 0 0 -139z"/>
<path d="M1867 4379 c-46 -27 -47 -46 -47 -629 l0 -550 145 0 145 0 0 50 c0
121 88 245 205 289 195 74 414 -72 419 -278 l1 -61 143 0 142 0 0 210 c0 234
5 257 61 280 29 12 36 11 77 -11 59 -31 129 -32 169 -3 83 61 79 195 -8 240
-40 20 -113 18 -159 -6 -51 -26 -73 -25 -107 4 l-28 24 -3 226 -3 226 -567 0
c-385 -1 -573 -4 -585 -11z"/>
<path d="M2361 3372 c-78 -39 -99 -116 -57 -205 22 -47 24 -60 15 -86 -20 -56
-44 -61 -284 -61 l-215 0 2 -570 3 -570 28 -27 27 -28 570 -3 570 -2 0 143 0
144 -67 5 c-87 6 -155 41 -216 108 -60 66 -81 130 -75 224 11 162 138 287 295
290 l63 1 0 142 0 142 -226 3 -226 3 -24 28 c-29 34 -30 66 -4 109 24 40 26
117 4 159 -16 33 -81 68 -124 69 -14 0 -40 -8 -59 -18z"/>
<path d="M3734 3376 c-76 -34 -101 -131 -55 -218 22 -41 23 -48 11 -77 -23
-56 -46 -61 -280 -61 l-210 0 0 -197 c0 -109 -5 -215 -10 -235 -19 -66 -77
-86 -135 -48 -41 27 -119 27 -163 0 -59 -36 -80 -126 -42 -187 43 -72 116 -89
202 -49 61 29 87 26 123 -14 19 -20 20 -39 23 -246 l3 -224 550 0 c586 0 603
1 628 48 8 14 11 200 11 586 l0 566 -212 0 c-230 0 -251 4 -278 52 -13 23 -13
32 -1 60 43 105 45 116 26 163 -9 25 -29 54 -45 65 -37 27 -106 34 -146 16z"/>
</g>
</svg>
