<?xml version="1.0" standalone="no"?>
<!DOCTYPE svg PUBLIC "-//W3C//DTD SVG 20010904//EN"
 "http://www.w3.org/TR/2001/REC-SVG-20010904/DTD/svg10.dtd">
<svg version="1.0" xmlns="http://www.w3.org/2000/svg"
 width="512.000000pt" height="512.000000pt" viewBox="0 0 512.000000 512.000000"
 preserveAspectRatio="xMidYMid meet">
<metadata>
Created by potrace 1.16, written by Peter Selinger 2001-2019
</metadata>
<g transform="translate(0.000000,512.000000) scale(0.100000,-0.100000)"
fill="#000000" stroke="none">
<path d="M3172 4860 c-247 -65 -449 -268 -513 -518 -10 -41 -19 -81 -19 -89 0
-11 66 -13 361 -13 l361 0 50 45 c27 24 75 57 106 72 51 25 67 28 162 28 93 0
111 -3 163 -27 32 -15 81 -51 113 -82 31 -32 67 -81 82 -113 24 -52 27 -70 27
-163 0 -93 -3 -111 -27 -163 -46 -98 -188 -216 -260 -217 -16 0 -18 -11 -18
-90 l0 -90 259 0 259 0 27 69 c72 189 95 328 95 571 0 153 -4 201 -20 264 -63
248 -268 453 -516 516 -68 18 -110 20 -348 19 -233 0 -281 -3 -344 -19z"/>
<path d="M1725 4348 c-265 -77 -457 -102 -755 -95 -251 5 -380 23 -597 83 -69
19 -127 34 -129 34 -2 0 -4 -65 -4 -145 l0 -145 640 0 640 0 0 -560 0 -560
-640 0 -640 0 0 -1258 0 -1258 97 -48 c129 -64 281 -113 428 -138 102 -17 148
-19 310 -15 258 7 349 28 627 145 l138 57 0 1968 c0 1082 -3 1966 -7 1966 -5
-1 -53 -14 -108 -31z"/>
<path d="M3575 4221 c-87 -40 -135 -120 -135 -223 1 -142 97 -238 240 -238
144 0 240 96 240 240 0 104 -53 187 -142 224 -52 22 -153 20 -203 -3z m185
-221 l0 -80 -80 0 -80 0 0 80 0 80 80 0 80 0 0 -80z"/>
<path d="M2480 3685 l0 -395 23 5 c12 3 229 44 482 91 252 47 475 92 495 100
42 18 77 49 96 86 20 39 19 42 -33 61 -104 37 -207 147 -238 251 -8 27 -15 83
-15 123 l0 73 -405 0 -405 0 0 -395z"/>
<path d="M240 3520 l0 -400 560 0 560 0 0 400 0 400 -560 0 -560 0 0 -400z"/>
<path d="M3550 3359 c-47 -25 -126 -43 -547 -122 -270 -51 -494 -95 -497 -98
-7 -6 44 -161 67 -204 43 -83 136 -134 240 -135 62 0 92 9 313 91 194 73 258
101 314 140 39 27 70 47 70 43 0 -17 62 -369 65 -373 3 -2 42 10 87 27 46 17
158 52 251 79 133 37 166 50 163 62 -3 9 -17 104 -32 212 l-27 197 -146 4
c-163 4 -197 15 -236 76 -11 17 -22 31 -25 31 -3 -1 -30 -14 -60 -30z"/>
<path d="M4090 2704 l-45 -14 -34 -122 c-19 -68 -45 -148 -59 -178 -32 -69
-111 -148 -182 -183 -75 -36 -161 -47 -392 -47 l-197 0 -21 -30 c-36 -50 -97
-190 -123 -280 -14 -47 -35 -159 -48 -249 -26 -191 -32 -177 86 -214 60 -19
92 -22 220 -22 139 1 155 3 225 29 81 30 204 101 235 136 18 20 18 23 3 34
-14 11 -3 35 103 221 66 115 141 238 167 274 62 88 181 211 261 271 l65 49 41
-62 42 -61 -56 -42 c-74 -54 -197 -184 -248 -259 -46 -69 -195 -326 -191 -330
4 -4 637 -384 659 -395 17 -9 28 4 100 112 145 219 179 313 179 493 0 208 -87
405 -232 527 -59 49 -482 347 -501 352 -7 2 -32 -2 -57 -10z m478 -730 c153
-63 191 -267 71 -381 -147 -139 -389 -36 -389 167 0 90 51 169 135 213 39 21
135 21 183 1z"/>
<path d="M4420 1820 c-13 -13 -20 -33 -20 -60 0 -53 27 -80 80 -80 53 0 80 27
80 80 0 27 -7 47 -20 60 -13 13 -33 20 -60 20 -27 0 -47 -7 -60 -20z"/>
<path d="M3775 2611 c-162 -55 -302 -136 -415 -240 l-55 -50 179 -1 c206 0
238 9 301 83 41 48 105 238 79 236 -5 0 -45 -13 -89 -28z"/>
<path d="M2000 1929 l0 -231 269 -317 c147 -174 297 -342 332 -372 139 -121
302 -208 474 -255 133 -35 373 -45 507 -20 178 34 349 108 485 210 83 62 293
246 293 255 0 3 -101 66 -225 139 l-224 134 -64 -55 c-164 -139 -350 -208
-561 -208 -152 0 -249 23 -381 89 -119 59 -151 86 -452 386 -288 285 -293 291
-293 330 0 73 -67 146 -132 146 l-28 0 0 -231z"/>
<path d="M4350 989 c-275 -245 -481 -356 -755 -404 -169 -30 -418 -17 -570 30
-27 8 -53 15 -57 15 -5 0 -8 -88 -8 -195 l0 -195 880 0 880 0 0 433 0 432 -28
-42 -28 -42 -83 49 c-45 28 -83 50 -84 49 -1 0 -67 -59 -147 -130z"/>
</g>
</svg>
