<?xml version="1.0" standalone="no"?>
<!DOCTYPE svg PUBLIC "-//W3C//DTD SVG 20010904//EN"
 "http://www.w3.org/TR/2001/REC-SVG-20010904/DTD/svg10.dtd">
<svg version="1.0" xmlns="http://www.w3.org/2000/svg"
 width="512.000000pt" height="512.000000pt" viewBox="0 0 512.000000 512.000000"
 preserveAspectRatio="xMidYMid meet">
<metadata>
Created by potrace 1.16, written by Peter Selinger 2001-2019
</metadata>
<g transform="translate(0.000000,512.000000) scale(0.100000,-0.100000)"
fill="#000000" stroke="none">
<path d="M2822 4595 c-18 -8 -56 -30 -85 -49 l-52 -34 -55 14 c-138 36 -311
40 -490 13 -36 -6 -168 -14 -295 -18 -208 -6 -234 -9 -275 -29 -54 -26 -96
-85 -106 -149 -15 -102 57 -248 148 -297 29 -15 33 -23 30 -46 -2 -15 1 -37 7
-49 11 -21 17 -21 284 -21 216 0 299 -4 402 -19 310 -46 529 -124 868 -310
101 -56 193 -101 204 -101 23 0 53 29 53 53 0 14 4 14 43 -3 107 -46 184 -32
217 42 26 57 25 74 -7 139 -34 68 -204 240 -358 363 -118 93 -380 272 -482
328 l-62 34 64 32 c60 30 65 34 65 65 0 18 -5 38 -12 45 -16 16 -65 15 -106
-3z"/>
<path d="M1815 3780 l-140 -5 -19 -65 c-27 -91 -29 -346 -4 -440 26 -96 109
-256 172 -331 101 -121 262 -225 418 -269 95 -28 263 -37 365 -20 336 54 603
301 685 633 12 48 19 89 17 91 -17 14 -322 178 -395 212 -329 154 -656 212
-1099 194z"/>
<path d="M739 3162 c-77 -79 -101 -143 -107 -282 -8 -212 59 -362 187 -418 21
-9 65 -16 106 -16 153 0 264 109 265 259 0 127 -35 177 -178 249 -48 24 -101
59 -119 78 -39 41 -72 112 -73 156 0 18 -5 32 -12 32 -7 0 -37 -26 -69 -58z"/>
<path d="M2900 2454 c-163 -56 -245 -69 -435 -69 -186 0 -268 13 -429 67 -85
28 -93 29 -150 18 -79 -15 -332 -99 -419 -139 l-68 -30 20 -38 c10 -21 34 -65
53 -98 19 -33 137 -340 263 -682 l230 -623 393 0 c312 0 392 3 386 13 -5 6
-23 32 -42 56 -81 107 -123 236 -123 381 1 315 197 505 436 421 l55 -19 0 66
c1 148 94 244 290 298 51 14 104 18 255 18 105 1 219 -3 254 -8 45 -6 62 -5
57 2 -11 19 -185 122 -305 182 -135 67 -258 114 -426 164 -194 57 -187 56
-295 20z"/>
<path d="M1063 2355 c-28 -13 -59 -35 -69 -50 -17 -26 -16 -30 35 -203 48
-159 81 -239 333 -792 155 -338 290 -625 301 -637 36 -40 140 -23 167 26 5 11
10 35 10 53 -1 18 -105 317 -233 663 -208 564 -241 647 -317 787 -103 192
-118 203 -227 153z"/>
<path d="M862 1941 c-70 -102 -72 -120 -72 -627 l0 -454 305 0 c168 0 305 3
305 6 0 3 -103 232 -229 509 -127 277 -237 528 -246 559 -9 31 -19 56 -23 56
-4 0 -22 -22 -40 -49z"/>
<path d="M3525 1950 c-188 -14 -281 -56 -305 -139 -15 -52 4 -89 90 -176 87
-90 98 -118 58 -155 -12 -11 -35 -20 -53 -20 -17 0 -103 31 -192 69 -196 85
-216 89 -276 63 -88 -39 -141 -193 -119 -347 67 -468 793 -731 1379 -499 119
47 203 102 293 193 91 92 128 153 155 256 94 368 -271 711 -805 755 -63 5
-117 9 -120 8 -3 0 -50 -4 -105 -8z m526 -199 c16 -16 29 -35 29 -41 0 -22
-58 -70 -87 -71 -92 -4 -146 35 -128 91 9 29 53 49 108 50 41 0 53 -5 78 -29z
m-413 -65 c4 -35 -54 -96 -92 -96 -55 0 -67 69 -19 112 50 45 105 37 111 -16z
m661 -92 c36 -30 39 -52 11 -81 -30 -33 -83 -47 -125 -33 -41 14 -75 46 -75
71 0 9 14 29 31 43 24 20 41 26 79 26 38 0 55 -6 79 -26z m109 -224 c28 -17
33 -25 30 -52 -9 -96 -197 -96 -206 0 -3 27 2 35 30 52 19 11 50 20 73 20 23
0 54 -9 73 -20z m-128 -243 c13 -7 31 -24 39 -38 13 -24 13 -29 -2 -52 -24
-37 -85 -54 -137 -38 -46 14 -75 50 -65 81 15 49 109 75 165 47z m-256 -137
c14 -5 33 -21 42 -35 16 -25 16 -27 -3 -53 -44 -59 -152 -63 -189 -7 -44 67
56 131 150 95z m-651 -19 c59 -23 74 -72 33 -110 -33 -31 -94 -38 -139 -16
-109 51 -9 170 106 126z m358 -67 c27 -25 21 -71 -12 -96 -35 -26 -113 -26
-148 0 -31 22 -40 72 -17 91 49 41 135 43 177 5z"/>
</g>
</svg>
