<?xml version="1.0" standalone="no"?>
<!DOCTYPE svg PUBLIC "-//W3C//DTD SVG 20010904//EN"
 "http://www.w3.org/TR/2001/REC-SVG-20010904/DTD/svg10.dtd">
<svg version="1.0" xmlns="http://www.w3.org/2000/svg"
 width="512.000000pt" height="512.000000pt" viewBox="0 0 512.000000 512.000000"
 preserveAspectRatio="xMidYMid meet">
<metadata>
Created by potrace 1.16, written by Peter Selinger 2001-2019
</metadata>
<g transform="translate(0.000000,512.000000) scale(0.100000,-0.100000)"
fill="#000000" stroke="none">
<path d="M2360 5104 c-327 -35 -721 -111 -927 -179 -330 -109 -523 -250 -697
-510 -112 -168 -172 -311 -242 -579 -27 -105 -65 -218 -100 -300 -32 -72 -61
-147 -65 -166 -10 -44 10 -78 86 -144 70 -60 115 -146 115 -219 0 -93 -209
-467 -420 -748 -55 -73 -103 -144 -106 -157 -9 -32 19 -59 108 -106 109 -58
165 -103 196 -154 23 -40 27 -58 27 -123 0 -70 -4 -83 -44 -165 l-44 -88 38
-31 c120 -94 130 -118 79 -195 -27 -41 -28 -44 -10 -54 113 -68 157 -121 177
-214 9 -46 8 -71 -5 -138 -20 -105 -20 -163 1 -237 20 -74 63 -121 123 -137
40 -11 57 -9 185 24 221 57 405 115 802 251 441 152 550 201 638 288 64 62 85
105 85 170 0 38 41 77 80 77 22 0 41 -10 62 -31 30 -29 30 -33 24 -92 -9 -95
-52 -172 -142 -256 -95 -88 -247 -166 -486 -247 l-167 -56 65 -84 c105 -134
202 -318 245 -461 l12 -43 1044 0 c573 0 1043 2 1043 4 0 2 -17 33 -39 67
-110 183 -200 472 -254 819 -28 186 -28 439 1 601 26 142 85 326 142 438 39
79 42 90 43 175 2 77 6 100 29 146 15 30 43 73 63 95 l36 39 -20 63 c-36 109
-23 209 39 306 l30 48 -162 190 c-145 169 -165 189 -188 184 -80 -16 -700
-117 -727 -118 -22 -1 -41 7 -59 24 -31 29 -35 -6 45 454 58 332 60 351 43
365 -507 434 -863 744 -872 759 -17 33 -11 61 18 90 26 25 54 32 542 120 591
107 561 101 555 111 -6 10 -194 73 -280 94 -193 47 -497 59 -765 30z m-749
-373 c33 -33 38 -74 14 -108 -9 -13 -47 -32 -97 -49 -356 -117 -569 -372 -674
-803 -16 -66 -35 -122 -45 -132 -44 -44 -110 -31 -137 24 -12 25 -10 43 18
155 117 471 374 778 763 913 104 36 122 36 158 0z m820 -484 c163 -79 246
-269 191 -432 l-20 -59 40 -44 c63 -69 92 -142 92 -237 1 -69 -3 -89 -30 -145
-54 -111 -145 -184 -262 -209 -67 -14 -599 -15 -673 -1 -255 48 -380 335 -241
550 21 33 31 63 36 109 7 74 39 151 85 203 64 73 183 128 278 128 38 0 47 5
85 46 54 59 86 81 151 105 76 28 195 22 268 -14z m-1752 -792 c55 -28 60 -104
9 -139 -66 -47 -153 18 -127 94 11 29 49 59 77 60 7 0 26 -7 41 -15z m2204
-535 c32 -26 41 -63 23 -98 -8 -15 -46 -58 -85 -96 -61 -61 -75 -70 -107 -70
-46 0 -84 40 -84 86 0 26 14 46 83 115 91 91 120 102 170 63z m-389 -425 c46
-43 37 -79 -45 -174 -39 -45 -82 -87 -96 -92 -36 -13 -87 11 -102 50 -19 44
-5 72 82 164 82 87 112 97 161 52z m-375 -441 c44 -37 42 -76 -9 -145 -60 -80
-106 -94 -157 -46 -37 33 -31 80 19 145 60 78 96 89 147 46z"/>
<path d="M2238 4110 c-58 -18 -97 -51 -122 -103 -13 -29 -34 -61 -46 -72 -19
-17 -27 -18 -88 -7 -98 16 -157 0 -206 -58 -33 -40 -49 -101 -41 -160 6 -43 4
-49 -31 -91 -20 -24 -43 -58 -50 -76 -31 -74 -4 -169 62 -219 l37 -29 321 -3
c177 -2 336 0 354 3 37 7 96 55 118 96 18 35 18 120 0 162 -14 35 -78 97 -101
97 -37 0 -75 106 -44 126 6 3 24 27 40 52 57 90 26 223 -63 265 -44 21 -105
29 -140 17z"/>
<path d="M3683 4847 c-606 -111 -1104 -205 -1108 -208 -9 -10 696 -611 710
-605 20 7 1515 1005 1515 1011 0 7 122 28 -1117 -198z"/>
<path d="M4125 4384 c-418 -278 -764 -509 -768 -513 -7 -7 -77 -413 -77 -449
0 -9 105 88 233 216 221 219 236 232 271 232 48 0 86 -36 86 -82 0 -30 -24
-57 -237 -270 -205 -205 -234 -238 -211 -238 14 0 118 16 230 35 112 19 206
35 210 35 9 0 1031 1530 1026 1535 -2 2 -345 -223 -763 -501z"/>
<path d="M4540 4050 c-276 -414 -504 -758 -506 -765 -6 -15 596 -719 606 -708
8 9 410 2216 405 2221 -2 2 -229 -334 -505 -748z"/>
<path d="M4311 2641 c-34 -62 -18 -163 34 -211 29 -27 41 -79 26 -108 -6 -11
-35 -34 -65 -50 -62 -35 -93 -80 -102 -144 -8 -54 8 -107 44 -150 48 -56 60
-58 418 -58 l327 0 41 24 c54 32 86 89 86 154 0 64 -12 96 -55 144 -34 36 -35
41 -35 115 0 62 -4 84 -24 117 -32 54 -92 88 -148 84 l-42 -3 -22 -114 c-18
-98 -25 -118 -48 -138 -36 -31 -69 -29 -108 6 -18 17 -94 102 -168 190 -74 88
-138 160 -142 160 -4 1 -12 -7 -17 -18z"/>
</g>
</svg>
