<?xml version="1.0" standalone="no"?>
<!DOCTYPE svg PUBLIC "-//W3C//DTD SVG 20010904//EN"
 "http://www.w3.org/TR/2001/REC-SVG-20010904/DTD/svg10.dtd">
<svg version="1.0" xmlns="http://www.w3.org/2000/svg"
 width="512.000000pt" height="512.000000pt" viewBox="0 0 512.000000 512.000000"
 preserveAspectRatio="xMidYMid meet">
<metadata>
Created by potrace 1.16, written by Peter Selinger 2001-2019
</metadata>
<g transform="translate(0.000000,512.000000) scale(0.100000,-0.100000)"
fill="#000000" stroke="none">
<path d="M3302 5113 c-30 -12 -42 -61 -42 -173 0 -60 -3 -110 -7 -110 -5 0
-47 13 -95 30 -286 95 -568 111 -998 56 -594 -77 -946 -183 -1179 -356 -137
-102 -272 -272 -369 -465 -60 -121 -89 -205 -137 -395 -23 -93 -59 -199 -101
-296 -35 -83 -64 -162 -64 -175 0 -16 23 -45 75 -95 86 -83 125 -152 125 -226
0 -92 -200 -451 -399 -718 -56 -74 -104 -145 -107 -158 -9 -32 11 -50 120
-112 140 -79 179 -120 195 -206 13 -67 -3 -145 -45 -222 -19 -34 -34 -66 -34
-70 0 -4 23 -26 52 -47 98 -75 107 -99 63 -170 -14 -22 -25 -43 -25 -47 0 -4
15 -15 32 -24 45 -22 106 -82 128 -125 29 -56 34 -125 16 -213 -21 -102 -20
-140 4 -218 27 -89 83 -138 157 -138 34 0 321 77 500 134 326 104 795 270 878
311 151 75 217 147 232 252 12 86 85 122 138 68 50 -49 23 -186 -56 -285 -85
-108 -248 -200 -514 -290 -82 -27 -156 -52 -163 -55 -9 -3 5 -27 41 -72 101
-126 194 -295 239 -435 l22 -68 1008 0 c554 0 1008 2 1008 5 0 2 -17 30 -37
62 -134 210 -249 648 -271 1036 l-7 112 -23 -47 c-32 -65 -119 -141 -190 -168
-87 -33 -195 -25 -280 20 -103 54 -171 156 -180 266 -4 56 -7 63 -29 69 -42
10 -118 95 -138 154 -24 73 -19 309 9 361 23 44 82 107 118 126 27 14 27 14
12 58 -24 69 -100 153 -244 268 -165 132 -246 212 -311 305 -169 244 -244 545
-209 833 33 264 137 483 319 673 202 209 433 324 722 358 285 33 620 -83 844
-293 36 -33 65 -56 65 -50 0 18 -114 154 -182 218 -94 87 -258 209 -384 283
-60 36 -119 71 -131 78 -22 13 -23 18 -23 172 0 157 0 160 -26 190 -21 26 -33
31 -67 30 -23 0 -48 -3 -55 -6z m-985 -605 c132 -132 144 -158 95 -208 -53
-53 -71 -45 -204 88 -104 104 -118 122 -118 152 0 46 33 80 78 80 32 0 48 -12
149 -112z m-757 57 c28 -30 31 -77 6 -104 -10 -11 -48 -30 -85 -41 -333 -107
-546 -352 -647 -747 -23 -88 -43 -146 -57 -160 -41 -45 -117 -21 -133 41 -8
32 55 268 101 379 106 252 283 452 499 563 177 92 274 113 316 69z m419 -1140
c31 -15 41 -33 41 -70 0 -72 -33 -85 -209 -85 -77 0 -151 4 -166 10 -58 22
-62 115 -6 145 38 20 301 21 340 0z m-1308 -104 c34 -34 37 -68 9 -104 -26
-33 -63 -41 -99 -23 -49 26 -57 91 -16 131 33 33 70 32 106 -4z"/>
<path d="M4378 4512 c-109 -109 -118 -121 -118 -156 0 -52 44 -96 96 -96 35 0
47 9 156 118 116 116 118 119 118 163 0 61 -29 89 -90 89 -43 0 -47 -3 -162
-118z"/>
<path d="M3186 4315 c-157 -33 -296 -98 -423 -200 -414 -331 -506 -936 -211
-1380 53 -80 134 -162 238 -243 141 -110 190 -154 246 -220 l54 -63 0 400 0
401 -72 0 c-130 0 -230 72 -264 188 -28 97 -1 185 78 259 80 73 183 87 282 39
97 -48 146 -134 146 -257 l0 -69 95 0 95 0 0 68 c0 86 13 131 53 184 71 93
209 128 310 79 201 -97 202 -374 2 -467 -39 -19 -67 -24 -127 -24 l-78 0 0
-400 c0 -220 3 -400 8 -400 4 0 21 19 37 41 42 57 137 145 252 232 169 128
269 253 341 421 60 143 76 231 77 406 0 218 -39 365 -141 530 -142 231 -359
398 -599 461 -104 27 -301 34 -399 14z"/>
<path d="M4718 3435 c-35 -20 -52 -71 -37 -113 18 -54 48 -62 219 -62 197 0
220 10 220 100 0 30 -6 44 -31 64 -30 26 -33 26 -187 26 -118 -1 -164 -4 -184
-15z"/>
<path d="M2939 3331 c-37 -38 -39 -88 -5 -127 20 -24 32 -28 90 -32 l66 -4 0
65 c0 80 -5 94 -41 112 -43 23 -77 18 -110 -14z"/>
<path d="M3659 3345 c-32 -18 -49 -61 -49 -128 l0 -49 71 4 c63 3 74 7 95 31
34 40 32 90 -5 128 -33 32 -70 37 -112 14z"/>
<path d="M3260 2520 l0 -490 95 0 95 0 0 490 0 490 -95 0 -95 0 0 -490z"/>
<path d="M4351 2743 c-67 -137 -166 -248 -368 -409 -156 -126 -210 -182 -250
-263 l-27 -54 25 -16 c13 -8 47 -38 76 -67 l51 -52 60 102 c33 55 101 157 152
226 179 242 246 356 296 503 27 80 27 77 16 77 -4 0 -18 -21 -31 -47z"/>
<path d="M3031 1834 l-31 -26 0 -129 c0 -125 1 -131 25 -154 l24 -25 306 0
306 0 24 25 c24 23 25 29 25 154 l0 129 -31 26 -31 26 -293 0 -293 0 -31 -26z"/>
<path d="M3175 1298 c12 -55 22 -73 54 -104 108 -102 273 -46 306 104 l7 32
-187 0 -187 0 7 -32z"/>
</g>
</svg>
