<?xml version="1.0" standalone="no"?>
<!DOCTYPE svg PUBLIC "-//W3C//DTD SVG 20010904//EN"
 "http://www.w3.org/TR/2001/REC-SVG-20010904/DTD/svg10.dtd">
<svg version="1.0" xmlns="http://www.w3.org/2000/svg"
 width="512.000000pt" height="512.000000pt" viewBox="0 0 512.000000 512.000000"
 preserveAspectRatio="xMidYMid meet">
<metadata>
Created by potrace 1.16, written by Peter Selinger 2001-2019
</metadata>
<g transform="translate(0.000000,512.000000) scale(0.100000,-0.100000)"
fill="#000000" stroke="none">
<path d="M2360 5105 c-330 -38 -728 -115 -926 -180 -331 -109 -524 -250 -698
-510 -112 -168 -172 -311 -242 -579 -27 -105 -65 -218 -100 -300 -32 -72 -61
-147 -65 -166 -10 -44 10 -78 86 -144 69 -59 115 -146 115 -217 0 -102 -229
-502 -459 -804 -34 -44 -64 -90 -67 -103 -9 -32 19 -59 108 -106 109 -58 165
-103 196 -154 23 -40 27 -58 27 -123 0 -70 -4 -83 -44 -165 l-44 -88 38 -31
c121 -95 130 -117 79 -194 -27 -42 -28 -45 -10 -55 113 -68 157 -121 177 -214
9 -46 8 -71 -5 -138 -20 -104 -20 -166 0 -234 20 -67 38 -95 78 -119 67 -40
110 -35 406 50 300 86 985 324 1109 385 156 77 241 174 241 277 0 40 40 77 84
77 26 0 40 -7 61 -32 25 -30 27 -37 21 -93 -9 -93 -53 -171 -142 -254 -95 -88
-247 -166 -486 -247 l-167 -56 65 -84 c105 -134 202 -318 245 -461 l12 -43
1044 0 c573 0 1043 2 1043 5 0 2 -16 29 -35 59 -107 167 -204 479 -257 826
-29 187 -29 440 0 601 26 141 86 327 141 439 23 45 40 84 38 87 -3 2 -23 1
-46 -3 -34 -5 -41 -10 -41 -29 0 -32 -26 -101 -50 -136 -31 -42 -103 -88 -160
-102 -42 -10 -52 -16 -56 -37 -31 -148 -138 -240 -278 -240 -106 0 -103 -3
-747 646 -1031 1039 -1007 1014 -1084 1177 -62 130 -87 236 -92 387 -10 264
59 474 225 680 125 157 338 292 537 342 125 31 353 31 467 0 175 -48 354 -148
451 -251 55 -59 61 -93 22 -135 -40 -43 -83 -36 -151 25 -110 99 -244 168
-389 200 -85 19 -274 16 -360 -5 -97 -24 -258 -105 -332 -166 -124 -103 -229
-264 -273 -420 -27 -95 -37 -263 -21 -355 18 -105 56 -212 108 -300 53 -91 92
-132 1011 -1057 629 -633 613 -619 680 -584 40 20 52 44 52 97 0 48 46 -1
-802 854 -335 337 -358 363 -358 396 0 57 56 101 109 84 11 -3 278 -267 593
-585 392 -396 582 -581 601 -586 37 -9 74 2 103 31 18 19 24 35 24 71 l0 46
-466 471 c-256 260 -476 475 -488 479 -11 4 -37 10 -57 13 -82 12 -175 105
-200 200 -15 55 -7 132 19 186 16 30 186 209 560 585 548 553 586 587 724 652
32 15 58 31 58 35 0 16 -250 171 -385 238 -157 78 -328 137 -491 170 -141 28
-493 35 -684 14z m-749 -374 c32 -33 36 -58 14 -101 -12 -23 -30 -33 -97 -56
-198 -65 -348 -168 -454 -314 -107 -146 -164 -272 -218 -481 -36 -143 -53
-169 -106 -169 -34 0 -76 32 -84 64 -8 31 51 263 94 371 62 157 177 334 283
438 104 102 259 195 412 248 102 36 120 36 156 0z m-932 -1276 c55 -28 60
-104 9 -139 -66 -47 -153 18 -127 94 11 29 49 59 77 60 7 0 26 -7 41 -15z"/>
<path d="M4215 4574 c-158 -22 -262 -60 -381 -139 -65 -44 -184 -159 -590
-571 -319 -323 -512 -526 -518 -544 -26 -85 67 -161 145 -120 10 6 174 168
365 359 201 204 355 352 370 355 32 9 56 -5 136 -79 76 -70 164 -117 259 -139
125 -29 266 15 378 118 69 64 102 71 147 32 21 -18 28 -32 28 -61 0 -34 -7
-45 -64 -99 -159 -150 -378 -207 -570 -147 -96 30 -153 59 -233 120 l-65 49
-43 -44 -42 -43 448 -455 c246 -251 451 -456 454 -456 7 0 308 303 442 445
154 165 225 326 236 537 10 185 -30 346 -123 495 -51 83 -154 191 -227 242
-68 46 -200 106 -277 125 -67 16 -222 27 -275 20z"/>
<path d="M3335 3420 l-70 -70 450 -450 c429 -429 452 -450 487 -450 73 0 128
82 96 143 -17 34 -866 897 -882 897 -6 0 -43 -32 -81 -70z"/>
<path d="M3068 3148 l-66 -70 441 -445 c421 -423 444 -445 484 -450 39 -5 46
-2 78 30 40 40 46 85 19 127 -25 38 -867 880 -879 879 -5 -1 -40 -33 -77 -71z"/>
</g>
</svg>
