<?xml version="1.0" standalone="no"?>
<!DOCTYPE svg PUBLIC "-//W3C//DTD SVG 20010904//EN"
 "http://www.w3.org/TR/2001/REC-SVG-20010904/DTD/svg10.dtd">
<svg version="1.0" xmlns="http://www.w3.org/2000/svg"
 width="512.000000pt" height="512.000000pt" viewBox="0 0 512.000000 512.000000"
 preserveAspectRatio="xMidYMid meet">
<metadata>
Created by potrace 1.16, written by Peter Selinger 2001-2019
</metadata>
<g transform="translate(0.000000,512.000000) scale(0.100000,-0.100000)"
fill="#000000" stroke="none">
<path d="M2410 5029 c-366 -32 -805 -111 -1030 -185 -330 -110 -524 -260 -703
-546 -73 -117 -130 -249 -172 -404 -20 -71 -45 -163 -56 -204 -11 -41 -45
-131 -74 -200 -81 -189 -81 -174 15 -275 92 -96 119 -147 120 -223 0 -46 -9
-70 -74 -195 -110 -214 -216 -380 -372 -585 -87 -113 -85 -119 31 -188 188
-110 226 -156 227 -269 0 -75 -4 -90 -49 -180 l-36 -69 44 -36 c109 -87 121
-117 74 -180 -14 -19 -25 -39 -25 -44 1 -6 24 -24 52 -41 67 -39 113 -99 129
-170 10 -47 10 -70 -6 -154 -21 -118 -15 -187 23 -262 48 -94 113 -108 281
-63 339 91 1093 344 1235 415 144 72 210 140 228 238 19 99 85 136 144 80 24
-22 26 -29 21 -89 -6 -93 -37 -152 -126 -240 -97 -95 -208 -154 -458 -241
l-182 -64 25 -30 c116 -142 221 -327 265 -470 l24 -78 344 7 c189 3 643 6
1009 6 l664 0 -21 33 c-129 195 -233 539 -276 912 -32 278 -9 488 81 750 25
72 47 138 51 148 5 16 -22 17 -476 17 -466 0 -482 1 -501 20 -28 28 -34 61
-27 164 9 150 57 258 158 357 61 61 176 125 241 135 l38 7 0 820 0 820 -27 43
c-18 28 -35 44 -48 44 -19 0 -525 -84 -572 -95 -20 -5 -6 -32 175 -357 l197
-353 3 -91 c10 -251 -72 -410 -257 -502 l-75 -37 -168 -4 c-147 -3 -176 0
-236 18 -124 37 -219 120 -275 241 -29 62 -31 73 -35 218 l-4 153 222 402
c123 221 235 413 250 428 24 23 54 30 375 83 193 31 360 61 373 66 13 6 22 18
22 32 0 39 49 131 93 176 23 24 64 55 91 69 27 14 45 28 40 33 -17 16 -176 80
-287 115 -214 67 -484 95 -717 74z m-855 -374 c33 -32 34 -84 3 -112 -13 -12
-43 -27 -68 -33 -62 -16 -195 -79 -261 -123 -154 -104 -293 -301 -362 -512
-15 -44 -35 -117 -46 -161 -24 -101 -33 -119 -69 -132 -37 -13 -88 8 -104 42
-13 29 -5 75 42 236 48 168 117 307 216 440 123 163 295 286 496 355 93 31
122 31 153 0z m-884 -1244 c17 -18 29 -40 29 -56 0 -30 -49 -85 -75 -85 -24 0
-72 27 -79 45 -17 46 -2 91 39 113 33 18 55 14 86 -17z"/>
<path d="M4201 4710 c-188 -32 -346 -61 -349 -64 -3 -3 0 -18 7 -32 6 -14 14
-53 18 -85 4 -42 10 -59 20 -59 8 0 123 18 255 40 133 23 244 39 249 38 4 -2
-71 -144 -168 -317 l-175 -314 4 -166 c3 -166 3 -166 37 -236 60 -121 163
-205 298 -240 77 -20 309 -20 386 0 135 35 238 118 298 240 l34 69 3 167 4
167 -227 409 c-125 224 -236 416 -248 425 -32 25 -64 22 -446 -42z m528 -728
c-76 -1 -201 -1 -277 0 l-139 3 131 235 c72 129 135 241 140 248 5 9 51 -64
146 -235 l138 -248 -139 -3z m211 -245 c0 -120 -55 -214 -155 -262 -52 -26
-58 -27 -207 -23 -146 3 -155 4 -200 30 -90 54 -138 141 -138 255 l0 53 350 0
350 0 0 -53z"/>
<path d="M3445 4661 c-92 -57 -119 -149 -72 -241 49 -98 168 -128 257 -67 55
37 74 70 77 140 5 77 -22 130 -82 164 -51 29 -137 31 -180 4z"/>
<path d="M3440 3403 l0 -763 90 0 90 0 0 763 0 764 -45 -7 c-25 -4 -65 -4 -90
0 l-45 7 0 -764z"/>
<path d="M2457 4128 c-40 -63 -277 -498 -277 -507 0 -8 91 -11 295 -11 162 0
295 3 295 6 0 6 -266 488 -286 517 -12 18 -13 18 -27 -5z"/>
<path d="M2113 3366 c9 -133 58 -210 162 -258 45 -20 64 -23 200 -22 169 0
196 8 266 71 62 56 82 103 87 206 l4 87 -362 0 -363 0 6 -84z"/>
<path d="M3281 2470 c-147 -31 -266 -159 -279 -302 l-5 -58 536 0 535 0 -5 43
c-16 139 -99 249 -225 300 -48 19 -75 21 -283 23 -126 2 -250 -1 -274 -6z"/>
</g>
</svg>
