<?xml version="1.0" standalone="no"?>
<!DOCTYPE svg PUBLIC "-//W3C//DTD SVG 20010904//EN"
 "http://www.w3.org/TR/2001/REC-SVG-20010904/DTD/svg10.dtd">
<svg version="1.0" xmlns="http://www.w3.org/2000/svg"
 width="512.000000pt" height="512.000000pt" viewBox="0 0 512.000000 512.000000"
 preserveAspectRatio="xMidYMid meet">
<metadata>
Created by potrace 1.16, written by Peter Selinger 2001-2019
</metadata>
<g transform="translate(0.000000,512.000000) scale(0.100000,-0.100000)"
fill="#000000" stroke="none">
<path d="M2649 5110 c-221 -37 -412 -135 -579 -296 -608 -586 -355 -1614 455
-1849 426 -123 888 21 1164 362 220 274 299 640 210 980 -104 398 -434 711
-837 793 -105 21 -316 26 -413 10z m-152 -576 c92 -44 147 -134 146 -239 0
-72 -18 -119 -69 -175 -104 -115 -275 -120 -384 -10 -106 105 -105 278 2 376
53 49 67 57 116 70 60 17 123 9 189 -22z m914 0 c59 -30 114 -93 135 -157 44
-131 -34 -284 -169 -334 -134 -49 -301 40 -342 182 -22 73 -13 138 28 206 75
124 221 168 348 103z m-981 -722 c17 -14 26 -38 37 -102 25 -148 92 -241 213
-299 48 -23 68 -26 155 -26 90 0 106 3 159 29 118 58 190 161 207 298 11 88
34 118 90 118 29 0 43 -7 63 -31 30 -35 31 -57 11 -153 -29 -135 -99 -247
-206 -328 -102 -77 -201 -109 -334 -109 -203 1 -382 116 -474 302 -43 88 -69
205 -57 253 15 61 88 87 136 48z"/>
<path d="M2305 4358 c-23 -27 -26 -39 -22 -71 7 -51 33 -77 84 -84 32 -4 44
-1 71 22 27 23 32 33 32 71 0 62 -32 94 -94 94 -38 0 -48 -5 -71 -32z"/>
<path d="M3225 4365 c-19 -18 -25 -35 -25 -69 0 -37 5 -48 31 -70 17 -14 42
-26 55 -26 64 0 113 58 99 119 -15 68 -111 96 -160 46z"/>
<path d="M1995 5053 c-265 -49 -445 -90 -562 -128 -330 -109 -523 -250 -697
-510 -112 -168 -172 -311 -242 -579 -27 -105 -65 -218 -100 -300 -32 -72 -61
-147 -65 -166 -10 -44 10 -78 86 -144 69 -59 115 -146 115 -217 0 -99 -226
-497 -444 -784 -42 -55 -79 -110 -82 -123 -9 -32 19 -59 108 -106 109 -58 165
-103 196 -154 23 -40 27 -58 27 -123 0 -70 -4 -83 -44 -165 l-44 -88 38 -31
c121 -95 130 -117 79 -194 -27 -42 -28 -45 -10 -55 113 -68 157 -121 177 -214
9 -46 8 -71 -5 -138 -20 -104 -20 -166 0 -234 20 -67 38 -95 78 -119 58 -35
91 -34 251 8 231 61 408 117 805 254 389 135 518 191 593 257 67 59 86 91 102
167 16 76 39 103 87 103 20 0 40 -10 60 -31 30 -29 30 -33 24 -92 -9 -95 -52
-172 -142 -256 -94 -88 -245 -164 -484 -246 -90 -31 -165 -57 -167 -58 -1 -2
16 -25 39 -53 104 -125 214 -322 260 -465 l22 -69 1043 0 c574 0 1043 2 1043
4 0 2 -17 33 -39 67 -148 245 -271 732 -275 1092 -1 129 -2 138 -21 142 -162
35 -252 66 -377 132 -179 94 -352 250 -462 416 -155 235 -223 475 -213 754 l5
142 -47 6 c-316 41 -567 161 -776 370 -179 179 -297 399 -352 655 -25 119 -25
372 1 490 66 305 232 569 481 767 45 36 42 37 -70 16z m-384 -322 c17 -18 29
-40 29 -56 0 -49 -26 -72 -113 -101 -350 -115 -561 -364 -667 -784 -35 -139
-56 -173 -109 -173 -34 0 -69 26 -82 61 -12 31 48 263 100 388 138 329 371
556 684 665 104 36 122 36 158 0z m-932 -1276 c55 -28 60 -104 9 -139 -66 -47
-153 18 -127 94 11 29 49 59 77 60 7 0 26 -7 41 -15z"/>
<path d="M3976 4584 c105 -209 153 -471 127 -681 l-9 -73 26 0 c57 0 209 -32
309 -66 57 -19 106 -32 109 -30 7 8 -37 192 -65 271 -60 166 -173 344 -302
475 -78 79 -213 190 -231 190 -4 0 12 -39 36 -86z"/>
<path d="M4041 3618 c-41 -139 -160 -335 -277 -458 l-78 -81 48 -42 c127 -108
129 -293 3 -403 -133 -117 -342 -69 -416 96 -11 25 -21 58 -21 74 0 33 4 33
-133 -7 -48 -15 -117 -29 -153 -33 -51 -5 -67 -11 -77 -28 -8 -14 -11 -75 -11
-186 1 -144 4 -177 27 -262 73 -274 231 -497 457 -646 287 -190 660 -234 985
-118 341 122 593 396 692 752 26 92 28 113 28 284 0 171 -2 192 -28 284 -117
421 -452 727 -876 800 -148 25 -155 24 -170 -26z m529 -533 c61 -21 112 -66
145 -127 25 -45 30 -64 30 -123 -1 -153 -113 -265 -265 -265 -152 0 -264 112
-265 265 0 59 5 78 30 123 65 118 200 171 325 127z m-421 -730 c214 -51 383
-240 411 -459 11 -86 -3 -126 -49 -145 -25 -11 -37 -11 -61 -1 -40 16 -50 38
-61 122 -28 225 -240 370 -459 314 -153 -40 -260 -164 -277 -326 -8 -80 -34
-114 -88 -114 -29 0 -43 7 -61 28 -28 32 -31 80 -9 173 70 296 360 477 654
408z"/>
<path d="M4432 2920 c-35 -14 -56 -73 -42 -116 14 -43 44 -64 90 -64 46 0 76
21 90 64 27 84 -52 150 -138 116z"/>
<path d="M3499 2901 c-78 -78 12 -197 114 -150 29 13 47 48 47 90 0 45 -48 89
-95 89 -27 0 -44 -8 -66 -29z"/>
</g>
</svg>
