<?xml version="1.0" standalone="no"?>
<!DOCTYPE svg PUBLIC "-//W3C//DTD SVG 20010904//EN"
 "http://www.w3.org/TR/2001/REC-SVG-20010904/DTD/svg10.dtd">
<svg version="1.0" xmlns="http://www.w3.org/2000/svg"
 width="512.000000pt" height="512.000000pt" viewBox="0 0 512.000000 512.000000"
 preserveAspectRatio="xMidYMid meet">
<metadata>
Created by potrace 1.16, written by Peter Selinger 2001-2019
</metadata>
<g transform="translate(0.000000,512.000000) scale(0.100000,-0.100000)"
fill="#000000" stroke="none">
<path d="M2670 5104 c-281 -30 -650 -97 -852 -154 -278 -78 -513 -212 -650
-373 -176 -205 -282 -412 -353 -693 -47 -183 -58 -216 -122 -366 -81 -191 -82
-181 19 -281 90 -88 128 -158 128 -230 -1 -93 -227 -493 -434 -766 -40 -53
-81 -111 -90 -130 l-18 -34 29 -23 c15 -12 69 -45 118 -73 135 -75 178 -122
194 -206 13 -71 -2 -145 -48 -234 l-39 -76 65 -49 c93 -71 102 -99 58 -171
-13 -22 -25 -43 -25 -47 0 -3 20 -18 44 -32 57 -33 123 -109 137 -156 11 -35
10 -58 -7 -281 -11 -142 39 -243 134 -268 49 -14 99 -3 397 82 267 77 994 331
1088 379 136 71 208 151 220 246 7 54 30 90 64 98 38 10 74 -7 97 -45 17 -30
18 -40 8 -93 -15 -81 -44 -138 -105 -204 -98 -108 -215 -171 -491 -268 -104
-36 -191 -68 -194 -70 -2 -3 15 -27 38 -53 99 -112 211 -312 261 -465 l22 -68
1044 0 1044 0 -26 43 c-139 226 -242 579 -284 969 -30 268 7 549 105 801 61
158 142 293 323 537 120 162 180 259 227 368 75 173 111 400 100 617 -34 640
-199 1001 -594 1298 -360 272 -691 423 -1034 472 -128 18 -427 18 -598 -1z
m535 -185 c310 -38 628 -179 956 -426 151 -113 234 -197 317 -321 153 -231
230 -567 219 -957 -6 -213 -27 -308 -107 -470 -57 -117 -129 -209 -232 -292
-140 -116 -259 -256 -323 -383 -46 -91 -54 -127 -65 -276 -10 -151 -29 -232
-72 -318 -59 -116 -134 -186 -200 -186 -55 0 -73 30 -82 132 -12 148 -57 213
-254 371 -183 147 -230 207 -274 347 -32 104 -31 275 1 409 l23 93 -78 80
c-204 206 -317 252 -604 251 -163 -1 -184 -3 -700 -73 -172 -23 -219 -24 -323
-5 -173 30 -309 129 -380 275 -57 116 -71 184 -71 340 0 118 5 152 32 265 57
229 108 358 197 497 197 306 428 445 901 542 479 98 873 135 1119 105z"/>
<path d="M2880 4723 c0 -92 -34 -143 -95 -143 -48 0 -77 38 -83 106 l-5 56
-41 -6 c-22 -3 -65 -8 -93 -12 l-53 -7 0 -38 c0 -53 -40 -99 -86 -99 -45 0
-84 37 -84 80 0 25 -3 30 -17 26 -10 -3 -58 -12 -108 -21 -49 -9 -147 -30
-217 -47 l-128 -31 0 -114 c0 -63 5 -123 10 -134 13 -23 61 -49 93 -49 36 0
77 -46 77 -85 0 -43 -47 -85 -94 -85 -84 0 -176 57 -223 138 -24 41 -28 59
-31 149 -3 71 -8 103 -16 103 -17 0 -123 -65 -175 -107 -52 -44 -158 -175
-195 -244 l-27 -49 116 0 c116 0 148 -7 172 -39 21 -27 15 -79 -12 -106 -24
-25 -27 -25 -189 -25 l-164 0 -16 -47 c-27 -85 -56 -211 -63 -274 l-6 -61 78
4 c70 3 79 6 101 31 13 16 24 41 24 57 0 44 44 90 86 90 103 0 114 -146 19
-258 -51 -61 -108 -86 -207 -90 -87 -4 -88 -5 -88 -31 1 -33 39 -128 70 -170
22 -31 95 -91 110 -91 4 0 11 11 14 25 17 65 94 87 141 40 18 -18 25 -35 25
-65 l0 -40 73 0 c39 0 117 7 172 15 276 43 387 56 573 66 l202 12 0 34 c0 45
14 69 50 88 62 32 112 -7 120 -92 l5 -55 81 -27 c135 -46 200 -89 359 -241 90
-85 263 -230 284 -238 5 -1 11 21 15 49 14 106 89 201 184 233 57 20 360 23
395 4 50 -26 62 -87 28 -129 -19 -23 -25 -24 -201 -29 l-182 -5 -24 -28 c-21
-25 -24 -38 -24 -111 0 -95 -6 -89 103 -112 87 -18 252 -18 340 1 158 33 301
152 381 317 25 52 46 99 46 106 0 8 -24 12 -79 12 -71 0 -83 3 -110 26 -40 33
-43 83 -6 119 22 23 31 25 128 25 86 0 106 3 111 16 3 9 6 54 6 100 l0 84
-110 0 c-104 0 -112 1 -135 25 -37 36 -34 86 6 119 28 24 38 26 130 26 l100 0
-7 53 c-13 111 -56 303 -83 374 -34 86 -95 191 -143 247 l-35 40 -6 -67 c-11
-118 -64 -200 -159 -246 -49 -23 -133 -28 -159 -8 -27 21 -41 56 -34 88 8 35
56 69 96 69 15 0 38 11 53 26 26 26 26 29 26 165 l0 139 -65 48 c-36 27 -79
56 -95 66 l-30 17 0 -106 c0 -104 -1 -107 -29 -136 -18 -17 -40 -29 -56 -29
-16 0 -38 12 -56 29 l-29 29 0 156 0 156 -57 29 c-95 47 -234 93 -390 127 -23
4 -23 4 -23 -126 l0 -130 45 0 c55 0 110 -21 124 -48 19 -36 13 -77 -15 -103
-24 -23 -32 -24 -151 -24 -124 0 -125 0 -149 28 -24 28 -24 31 -24 228 l0 199
-95 0 -95 0 0 -37z m-75 -367 c56 -26 119 -90 143 -145 10 -24 16 -67 16 -129
1 -91 0 -94 -27 -118 -36 -31 -78 -31 -114 0 -26 23 -28 31 -32 110 -3 81 -5
87 -33 111 -28 24 -36 25 -153 25 -116 0 -126 -1 -152 -24 -25 -22 -28 -32
-33 -110 -7 -100 -30 -136 -85 -136 -69 0 -102 64 -90 174 13 117 67 198 160
242 46 22 63 24 200 24 136 0 155 -2 200 -24z m839 -256 c32 -12 58 -62 50
-94 -12 -48 -42 -64 -131 -68 -74 -3 -85 -6 -110 -31 -38 -38 -38 -96 0 -134
25 -25 36 -28 110 -31 89 -4 119 -20 131 -68 8 -32 -18 -82 -50 -94 -39 -15
-144 -12 -204 6 -101 30 -190 149 -190 254 0 103 81 216 180 250 60 21 172 26
214 10z m-976 -116 c21 -23 22 -34 21 -157 0 -74 -6 -146 -12 -164 -22 -60
-72 -117 -128 -148 -47 -25 -67 -30 -151 -33 -93 -4 -98 -3 -122 21 -35 35
-35 89 -1 122 21 22 33 25 95 25 81 0 120 16 138 55 7 15 12 72 12 138 0 87 4
118 16 135 33 48 92 50 132 6z m-552 -87 c31 -36 31 -78 0 -114 -23 -26 -31
-28 -110 -32 -81 -3 -87 -5 -111 -33 -22 -26 -25 -39 -25 -110 0 -75 2 -81 29
-109 27 -27 35 -29 104 -29 67 0 79 -3 106 -26 40 -33 43 -83 6 -119 -22 -23
-32 -25 -117 -25 -107 0 -170 23 -225 81 -56 60 -73 111 -73 229 0 90 4 112
24 155 21 45 56 84 109 125 32 24 110 40 186 37 66 -2 75 -5 97 -30z m911
-271 c25 -22 28 -31 31 -102 5 -126 20 -140 151 -146 66 -3 76 -7 97 -31 51
-59 16 -129 -70 -142 -53 -8 -150 7 -201 31 -48 22 -119 103 -132 150 -20 67
-25 148 -14 192 20 71 84 94 138 48z m1008 -1 c24 -23 25 -29 25 -162 0 -123
-3 -143 -24 -188 -26 -56 -90 -119 -145 -143 -24 -10 -67 -16 -129 -16 -91 -1
-94 0 -118 27 -31 36 -31 78 0 114 23 26 31 28 110 32 81 3 87 5 111 33 24 28
25 36 25 150 0 119 0 120 29 149 38 37 82 39 116 4z"/>
<path d="M3256 2512 c-3 -5 -10 -49 -17 -98 -14 -110 -1 -208 37 -288 28 -59
84 -116 233 -236 101 -81 201 -191 229 -252 9 -21 20 -38 23 -38 13 0 30 96
39 219 12 171 58 314 133 420 18 25 36 51 39 57 5 7 -27 10 -100 11 -113 0
-186 11 -292 45 -79 25 -189 79 -250 122 -63 45 -68 47 -74 38z"/>
</g>
</svg>
