<?xml version="1.0" standalone="no"?>
<!DOCTYPE svg PUBLIC "-//W3C//DTD SVG 20010904//EN"
 "http://www.w3.org/TR/2001/REC-SVG-20010904/DTD/svg10.dtd">
<svg version="1.0" xmlns="http://www.w3.org/2000/svg"
 width="512.000000pt" height="512.000000pt" viewBox="0 0 512.000000 512.000000"
 preserveAspectRatio="xMidYMid meet">
<metadata>
Created by potrace 1.16, written by Peter Selinger 2001-2019
</metadata>
<g transform="translate(0.000000,512.000000) scale(0.100000,-0.100000)"
fill="#000000" stroke="none">
<path d="M1970 4265 l0 -814 568 -3 567 -3 62 -32 c34 -18 65 -33 68 -33 3 0
4 343 3 763 l-3 762 -22 41 c-28 53 -91 107 -142 122 -27 9 -195 12 -570 12
l-531 0 0 -815z m1051 506 c17 -18 29 -40 29 -56 0 -16 -12 -38 -29 -56 l-29
-29 -387 0 -387 0 -29 29 c-17 18 -29 40 -29 56 0 16 12 38 29 56 l29 29 387
0 387 0 29 -29z m1 -451 c25 -26 29 -36 24 -63 -4 -18 -16 -41 -27 -52 -19
-19 -33 -20 -415 -20 l-396 0 -24 28 c-32 38 -31 72 5 108 l29 29 387 0 387 0
30 -30z m2 -451 c28 -33 31 -45 16 -83 -20 -54 -37 -56 -435 -56 -398 0 -415
2 -435 56 -15 38 -12 50 16 83 l26 31 393 0 393 0 26 -31z"/>
<path d="M3567 5066 c-58 -21 -103 -61 -131 -118 l-26 -52 0 -759 c0 -417 3
-757 8 -755 4 2 34 17 67 33 l60 30 568 3 567 3 0 814 0 815 -537 0 c-423 -1
-546 -4 -576 -14z m874 -277 c31 -16 49 -66 37 -101 -20 -56 -31 -58 -442 -58
l-374 0 -31 26 c-47 40 -41 101 14 132 27 16 768 17 796 1z m7 -455 c32 -22
43 -57 31 -94 -21 -59 -30 -60 -444 -60 l-377 0 -29 29 c-37 38 -38 79 -3 115
l27 26 386 0 c338 0 389 -2 409 -16z m0 -450 c35 -24 44 -59 28 -98 -23 -56
-34 -57 -450 -54 l-378 3 -24 28 c-31 37 -31 81 1 112 l24 25 388 0 c340 0
391 -2 411 -16z"/>
<path d="M1370 4874 c-316 -108 -555 -310 -718 -608 -69 -126 -115 -246 -157
-415 -45 -179 -54 -205 -121 -362 -30 -69 -54 -140 -54 -158 0 -26 14 -45 83
-114 90 -88 117 -140 117 -222 0 -92 -208 -458 -428 -753 -51 -68 -92 -132
-92 -142 0 -25 43 -59 143 -114 191 -104 233 -226 142 -411 -21 -44 -41 -82
-42 -86 -2 -3 26 -27 61 -54 36 -27 71 -62 78 -79 11 -26 9 -35 -15 -78 -15
-26 -27 -52 -27 -58 0 -5 17 -18 39 -29 58 -30 119 -105 138 -170 14 -49 14
-65 2 -131 -17 -95 -17 -212 0 -270 17 -58 75 -116 126 -126 74 -13 396 78
954 271 441 152 495 175 588 241 77 55 119 115 128 187 9 67 36 97 85 97 26 0
43 -7 59 -24 21 -22 23 -33 19 -93 -4 -84 -32 -144 -101 -219 -95 -105 -222
-174 -477 -262 -80 -28 -157 -55 -173 -61 l-27 -11 47 -57 c108 -133 195 -291
248 -448 l24 -70 693 -3 c381 -2 842 0 1024 4 l331 6 -38 63 c-79 130 -153
334 -203 556 -54 242 -60 300 -60 549 0 205 3 247 22 334 59 263 158 474 336
715 39 53 89 120 110 149 l38 52 -255 0 -255 0 1 -73 c2 -63 -1 -78 -23 -110
-13 -20 -41 -45 -62 -57 -36 -20 -48 -21 -365 -18 l-328 3 -34 24 c-47 34 -71
91 -71 174 l0 67 -655 0 c-736 -1 -702 -5 -753 73 l-27 41 0 1125 c0 619 4
1138 9 1154 10 33 10 33 -84 1z m-175 -336 c27 -12 55 -54 55 -83 0 -9 -35
-52 -79 -94 -171 -170 -267 -349 -335 -626 -27 -108 -53 -145 -102 -145 -30 0
-84 50 -84 77 0 61 73 304 126 421 88 194 306 454 386 461 4 1 19 -4 33 -11z
m-510 -1113 c51 -51 16 -138 -56 -138 -41 0 -82 41 -82 84 0 68 89 104 138 54z"/>
<path d="M4923 4813 l-73 -4 0 -902 c0 -627 -3 -914 -11 -942 -14 -51 -73
-110 -124 -124 -27 -7 -242 -11 -672 -11 l-631 0 -4 -106 c-3 -102 -4 -107
-31 -130 -31 -26 -54 -30 -90 -13 -37 17 -47 50 -47 154 l0 94 -652 3 c-737 3
-702 0 -756 81 l-27 41 -3 928 -2 928 -95 0 -95 0 0 -1085 0 -1086 653 1 c358
1 661 -2 672 -6 76 -28 114 -93 115 -196 l0 -68 223 0 c122 0 245 3 273 6 l52
7 4 78 c2 59 8 84 24 105 31 42 67 65 115 75 24 4 326 8 672 9 l627 0 0 1085
0 1085 -22 -2 c-13 -1 -56 -4 -95 -5z"/>
<path d="M1970 3140 l0 -140 635 0 635 0 0 33 c0 89 -62 185 -144 223 l-51 24
-537 0 -538 0 0 -140z"/>
<path d="M3564 3266 c-83 -36 -154 -139 -154 -224 l0 -42 633 2 632 3 3 138 3
137 -543 0 c-431 -1 -549 -4 -574 -14z"/>
</g>
</svg>
