<?xml version="1.0" standalone="no"?>
<!DOCTYPE svg PUBLIC "-//W3C//DTD SVG 20010904//EN"
 "http://www.w3.org/TR/2001/REC-SVG-20010904/DTD/svg10.dtd">
<svg version="1.0" xmlns="http://www.w3.org/2000/svg"
 width="512.000000pt" height="512.000000pt" viewBox="0 0 512.000000 512.000000"
 preserveAspectRatio="xMidYMid meet">
<metadata>
Created by potrace 1.16, written by Peter Selinger 2001-2019
</metadata>
<g transform="translate(0.000000,512.000000) scale(0.100000,-0.100000)"
fill="#000000" stroke="none">
<path d="M2360 5104 c-325 -35 -723 -112 -927 -179 -330 -109 -523 -250 -697
-510 -112 -168 -172 -311 -242 -579 -27 -105 -65 -218 -100 -300 -32 -72 -61
-147 -65 -166 -10 -44 10 -78 86 -144 70 -60 115 -146 115 -219 0 -93 -209
-467 -420 -748 -55 -73 -103 -144 -106 -157 -9 -32 19 -59 108 -106 109 -58
165 -103 196 -154 23 -40 27 -58 27 -123 0 -70 -4 -83 -44 -165 l-44 -88 38
-31 c120 -94 130 -118 79 -195 -27 -41 -28 -44 -10 -54 113 -68 157 -121 177
-214 9 -46 8 -71 -5 -138 -20 -105 -20 -163 1 -237 20 -74 63 -121 123 -137
40 -11 57 -9 185 24 221 57 405 115 802 251 441 152 550 201 638 288 64 62 85
105 85 170 0 38 41 77 80 77 22 0 41 -10 62 -31 30 -29 30 -33 24 -92 -9 -95
-52 -172 -142 -256 -95 -88 -247 -166 -486 -247 l-167 -56 65 -84 c105 -134
202 -318 245 -461 l12 -43 1044 0 c573 0 1043 2 1043 4 0 2 -17 33 -39 67
-138 229 -253 662 -277 1046 -12 195 23 430 95 643 22 63 39 115 38 116 -1 1
-33 -4 -72 -12 -273 -53 -581 -33 -857 56 -127 41 -353 155 -468 237 -121 86
-315 280 -403 403 -81 115 -196 341 -237 468 -113 351 -113 728 1 1074 42 129
156 355 236 468 133 186 363 392 559 501 41 22 74 42 74 45 0 9 -313 1 -430
-12z m-751 -370 c23 -19 31 -34 31 -58 0 -51 -23 -72 -112 -102 -352 -116
-563 -364 -669 -789 -19 -74 -40 -136 -50 -146 -43 -43 -106 -33 -134 21 -16
30 -15 38 15 158 54 219 127 378 242 534 133 179 303 302 523 379 100 35 116
35 154 3z m-930 -1279 c55 -28 60 -104 9 -139 -66 -47 -153 18 -127 94 11 29
49 59 77 60 7 0 26 -7 41 -15z"/>
<path d="M3290 5100 c-619 -112 -1101 -575 -1246 -1195 -26 -112 -28 -135 -29
-335 0 -189 3 -227 23 -318 141 -628 592 -1078 1216 -1214 86 -19 132 -22 311
-22 179 0 225 3 311 22 611 133 1067 578 1211 1182 37 157 44 436 14 609 -55
324 -198 598 -436 837 -217 218 -451 348 -755 421 -148 35 -463 42 -620 13z
m151 -209 l29 -29 0 -608 0 -608 -452 -453 c-248 -248 -462 -454 -474 -457
-39 -10 -71 11 -113 73 -91 134 -170 324 -208 501 -24 116 -25 380 0 502 36
181 112 362 214 517 70 106 250 288 355 359 144 98 333 180 498 216 99 21 118
20 151 -13z m391 14 c172 -36 337 -105 490 -207 111 -73 290 -249 364 -358
104 -151 181 -334 221 -520 25 -119 25 -401 0 -518 -38 -173 -103 -332 -191
-467 -57 -88 -87 -110 -130 -99 -12 3 -225 207 -472 455 l-449 449 -3 600 c-3
650 -3 648 51 670 31 12 36 12 119 -5z m-388 -1696 l26 -31 0 -443 c0 -258 -4
-454 -10 -469 -5 -14 -23 -32 -41 -41 -29 -15 -37 -15 -132 5 -176 38 -328
103 -485 208 -90 60 -102 74 -102 124 0 30 30 62 323 355 305 306 324 323 359
323 28 0 42 -7 62 -31z m662 -291 c178 -177 325 -332 329 -345 9 -38 -19 -77
-97 -131 -145 -100 -336 -181 -512 -217 -64 -13 -85 -14 -108 -4 -58 24 -58
27 -58 513 l0 444 26 31 c20 24 34 31 62 31 34 0 54 -18 358 -322z"/>
<path d="M3200 4701 c-684 -223 -1018 -994 -713 -1643 25 -54 49 -98 52 -98 3
0 176 170 384 378 l377 377 0 508 c0 279 -3 507 -7 507 -5 -1 -46 -13 -93 -29z"/>
<path d="M3840 4217 l0 -512 373 -373 c204 -204 375 -372 378 -372 12 0 87
164 114 250 76 243 69 530 -19 763 -38 100 -109 233 -166 309 -72 94 -223 234
-323 296 -84 53 -206 107 -304 136 l-53 15 0 -512z"/>
<path d="M3100 2754 c-212 -212 -205 -185 -66 -255 61 -32 240 -99 262 -99 2
0 4 122 4 270 0 149 -3 270 -8 270 -4 0 -90 -83 -192 -186z"/>
<path d="M3840 2673 l0 -272 53 15 c107 32 307 126 314 149 2 6 -80 93 -182
195 l-185 185 0 -272z"/>
</g>
</svg>
