<?xml version="1.0" standalone="no"?>
<!DOCTYPE svg PUBLIC "-//W3C//DTD SVG 20010904//EN"
 "http://www.w3.org/TR/2001/REC-SVG-20010904/DTD/svg10.dtd">
<svg version="1.0" xmlns="http://www.w3.org/2000/svg"
 width="512.000000pt" height="512.000000pt" viewBox="0 0 512.000000 512.000000"
 preserveAspectRatio="xMidYMid meet">
<metadata>
Created by potrace 1.16, written by Peter Selinger 2001-2019
</metadata>
<g transform="translate(0.000000,512.000000) scale(0.100000,-0.100000)"
fill="#000000" stroke="none">
<path d="M2360 5104 c-322 -35 -732 -114 -928 -179 -332 -111 -522 -250 -696
-510 -112 -168 -172 -311 -242 -579 -27 -105 -65 -218 -100 -300 -32 -72 -61
-147 -65 -166 -10 -44 10 -78 86 -144 70 -60 115 -146 115 -219 0 -93 -209
-467 -420 -748 -55 -73 -103 -144 -106 -157 -9 -32 19 -59 108 -106 109 -58
165 -103 196 -154 23 -40 27 -58 27 -123 0 -70 -4 -83 -44 -165 l-44 -88 38
-31 c120 -94 130 -118 79 -195 -27 -41 -28 -44 -10 -54 113 -68 157 -121 177
-214 9 -46 8 -71 -5 -138 -20 -105 -20 -163 1 -237 20 -74 63 -121 123 -137
40 -11 57 -9 185 24 221 57 405 115 802 251 441 152 550 201 638 288 64 62 85
105 85 170 0 38 41 77 80 77 22 0 41 -10 62 -31 30 -29 30 -33 24 -92 -9 -95
-52 -172 -142 -256 -95 -88 -247 -166 -486 -247 l-167 -56 65 -84 c105 -134
202 -318 245 -461 l12 -43 1044 0 c573 0 1043 2 1043 4 0 2 -17 33 -39 67
-138 229 -253 662 -277 1046 -13 221 37 510 131 744 5 15 0 15 -63 3 -277 -52
-588 -33 -857 53 -593 190 -1042 688 -1165 1292 -93 459 -2 934 255 1316 159
236 344 409 593 551 l77 44 -155 -1 c-85 -1 -211 -7 -280 -15z m-677 -356 c32
-17 46 -39 47 -74 0 -49 -27 -70 -132 -108 -257 -90 -417 -234 -545 -491 -44
-87 -94 -234 -113 -332 -22 -110 -64 -150 -131 -122 -51 21 -60 56 -38 155 47
211 121 385 231 545 130 191 301 321 530 404 103 38 120 40 151 23z m-1004
-1293 c55 -28 60 -104 9 -139 -66 -47 -153 18 -127 94 11 29 49 59 77 60 7 0
26 -7 41 -15z"/>
<path d="M3372 5100 c-251 -66 -458 -274 -522 -526 -27 -105 -27 -263 0 -368
54 -212 192 -382 385 -476 109 -53 180 -69 347 -80 227 -14 371 -65 536 -190
126 -95 218 -215 287 -377 45 -104 65 -210 65 -338 0 -173 -47 -345 -128 -471
-56 -87 -55 -84 -39 -84 23 0 216 133 302 208 240 210 413 507 488 840 19 84
22 127 22 327 0 205 -3 241 -23 334 -46 206 -136 408 -255 578 -79 112 -247
280 -360 360 -186 131 -414 226 -635 264 -154 26 -368 26 -470 -1z m289 -366
c63 -18 148 -73 182 -117 145 -190 88 -446 -121 -549 -60 -30 -75 -33 -157
-33 -77 0 -98 4 -145 26 -78 37 -131 87 -171 161 -32 60 -34 68 -34 163 0 89
3 106 28 157 78 159 254 240 418 192z"/>
<path d="M3518 4570 c-86 -27 -138 -96 -138 -184 0 -176 228 -252 336 -111 23
31 29 50 32 104 3 59 0 71 -26 112 -42 66 -134 102 -204 79z"/>
<path d="M2739 4891 c-305 -191 -528 -468 -643 -798 -68 -197 -81 -281 -81
-528 0 -177 4 -237 19 -305 137 -631 590 -1089 1208 -1221 132 -29 388 -36
488 -15 183 39 353 158 458 319 272 421 55 978 -433 1113 -27 8 -115 18 -195
24 -148 9 -256 33 -365 80 -143 61 -324 222 -406 361 -96 161 -135 318 -126
509 8 175 47 302 137 444 23 37 40 69 38 72 -3 2 -47 -22 -99 -55z m979 -1825
c149 -76 229 -227 201 -380 -22 -122 -95 -216 -209 -270 -56 -26 -77 -31 -145
-31 -71 0 -88 4 -147 33 -84 41 -158 120 -188 200 -31 80 -25 205 13 278 48
94 97 139 196 181 79 34 202 29 279 -11z"/>
<path d="M3490 2914 c-69 -30 -110 -93 -110 -168 0 -56 14 -93 48 -129 40 -43
75 -57 138 -57 73 0 130 31 163 90 33 59 27 152 -13 205 -51 67 -149 93 -226
59z"/>
</g>
</svg>
