<?xml version="1.0" standalone="no"?>
<!DOCTYPE svg PUBLIC "-//W3C//DTD SVG 20010904//EN"
 "http://www.w3.org/TR/2001/REC-SVG-20010904/DTD/svg10.dtd">
<svg version="1.0" xmlns="http://www.w3.org/2000/svg"
 width="512.000000pt" height="512.000000pt" viewBox="0 0 512.000000 512.000000"
 preserveAspectRatio="xMidYMid meet">
<metadata>
Created by potrace 1.16, written by Peter Selinger 2001-2019
</metadata>
<g transform="translate(0.000000,512.000000) scale(0.100000,-0.100000)"
fill="#000000" stroke="none">
<path d="M2360 5105 c-338 -38 -724 -113 -925 -179 -332 -110 -525 -251 -699
-511 -112 -168 -172 -311 -242 -579 -27 -105 -65 -218 -100 -300 -32 -72 -61
-147 -65 -166 -10 -44 10 -78 86 -144 69 -59 115 -146 115 -217 0 -99 -226
-497 -444 -784 -42 -55 -79 -110 -82 -123 -9 -32 19 -59 108 -106 109 -58 165
-103 196 -154 23 -40 27 -58 27 -123 0 -71 -4 -84 -45 -164 l-44 -88 26 -21
c14 -11 46 -38 72 -59 39 -32 46 -44 46 -73 0 -21 -11 -51 -27 -76 -26 -39
-27 -42 -9 -52 113 -68 157 -121 177 -214 9 -46 8 -71 -5 -138 -20 -105 -20
-163 1 -237 20 -72 65 -121 125 -138 37 -10 58 -7 183 25 220 57 431 123 825
259 389 135 518 191 593 257 67 59 86 91 102 167 16 76 39 103 87 103 20 0 40
-10 60 -31 30 -29 30 -33 24 -92 -9 -95 -52 -172 -142 -256 -94 -88 -245 -164
-484 -246 -90 -31 -165 -57 -167 -58 -1 -2 16 -25 39 -53 104 -125 214 -322
260 -465 l22 -69 1043 0 c574 0 1043 2 1043 4 0 2 -17 33 -39 67 -110 183
-200 472 -253 819 -29 187 -29 440 0 601 42 229 111 402 263 655 44 73 79 135
79 138 0 3 -533 6 -1184 6 -730 0 -1194 4 -1210 10 -31 12 -59 63 -50 93 3 12
16 32 27 45 19 20 29 22 134 22 l113 0 0 210 c0 228 2 241 57 292 43 41 74 48
210 48 156 0 198 -15 241 -88 27 -46 27 -49 31 -254 l3 -208 94 0 94 0 0 390
c0 371 1 393 20 430 20 40 82 90 110 90 40 1 40 15 0 95 -94 187 -135 385
-127 610 13 335 135 607 383 852 l112 112 -56 17 c-156 45 -243 56 -477 59
-155 3 -271 -1 -355 -10z m-749 -374 c32 -33 36 -58 14 -101 -12 -23 -30 -33
-97 -56 -355 -117 -569 -372 -673 -802 -23 -95 -32 -116 -57 -137 -34 -29 -48
-31 -87 -10 -52 26 -55 60 -17 208 57 221 122 362 238 519 133 179 303 302
523 379 102 36 120 36 156 0z m-932 -1276 c55 -28 60 -104 9 -139 -66 -47
-153 18 -127 94 11 29 49 59 77 60 7 0 26 -7 41 -15z"/>
<path d="M3800 5100 c-220 -47 -379 -131 -540 -286 -104 -100 -174 -198 -235
-327 -156 -331 -133 -732 60 -1043 35 -55 51 -73 74 -77 53 -11 121 -86 121
-135 0 -10 15 -32 33 -49 36 -35 146 -113 158 -113 5 0 9 126 11 279 l3 279
31 39 c53 67 79 74 245 71 142 -3 147 -4 182 -31 72 -55 72 -52 75 -439 l3
-348 37 0 c187 1 438 87 611 210 l73 52 -401 402 -401 402 0 567 0 567 -27 -1
c-16 0 -66 -9 -113 -19z"/>
<path d="M4110 4615 l0 -505 505 0 c488 0 505 1 505 19 0 41 -32 187 -57 254
-134 378 -448 648 -836 722 -43 8 -88 15 -98 15 -18 0 -19 -17 -19 -505z"/>
<path d="M4240 3932 c0 -4 140 -147 310 -317 l310 -310 25 30 c50 60 119 179
156 268 34 83 79 263 79 316 0 21 0 21 -440 21 -242 0 -440 -3 -440 -8z"/>
<path d="M3650 3015 l0 -555 95 0 95 0 0 555 0 555 -95 0 -95 0 0 -555z"/>
<path d="M2920 2830 l0 -370 95 0 95 0 0 370 0 370 -95 0 -95 0 0 -370z"/>
<path d="M3290 2721 l0 -261 95 0 95 0 0 204 0 204 -67 39 c-38 22 -80 47 -95
57 l-28 18 0 -261z"/>
<path d="M4487 2840 c-99 -42 -257 -79 -369 -87 l-98 -6 0 -144 0 -143 108 0
c98 0 111 -2 132 -22 l23 -22 16 25 c9 13 50 69 91 124 42 55 85 116 97 135
24 39 83 156 83 164 0 9 -11 6 -83 -24z"/>
<path d="M2190 2650 l0 -190 95 0 95 0 0 190 0 190 -95 0 -95 0 0 -190z"/>
</g>
</svg>
