<?xml version="1.0" standalone="no"?>
<!DOCTYPE svg PUBLIC "-//W3C//DTD SVG 20010904//EN"
 "http://www.w3.org/TR/2001/REC-SVG-20010904/DTD/svg10.dtd">
<svg version="1.0" xmlns="http://www.w3.org/2000/svg"
 width="512.000000pt" height="512.000000pt" viewBox="0 0 512.000000 512.000000"
 preserveAspectRatio="xMidYMid meet">
<metadata>
Created by potrace 1.16, written by Peter Selinger 2001-2019
</metadata>
<g transform="translate(0.000000,512.000000) scale(0.100000,-0.100000)"
fill="#000000" stroke="none">
<path d="M4357 4933 c-104 -104 -195 -202 -203 -220 -11 -24 -14 -86 -14 -246
0 -258 -3 -266 -74 -182 -168 196 -600 471 -892 568 -180 59 -408 97 -588 97
-105 0 -375 -27 -566 -56 -674 -103 -1000 -241 -1223 -516 -166 -206 -246
-374 -323 -682 -21 -85 -58 -196 -94 -281 -87 -206 -88 -189 8 -288 91 -93
122 -148 122 -222 0 -42 -11 -71 -65 -179 -105 -208 -198 -356 -357 -569 -48
-65 -88 -128 -88 -140 0 -23 42 -55 154 -117 127 -71 169 -132 168 -243 0 -59
-6 -80 -41 -154 -23 -47 -41 -86 -41 -88 0 -2 29 -26 65 -54 81 -64 89 -87 50
-155 -25 -47 -26 -51 -10 -61 96 -57 148 -120 166 -202 11 -46 10 -68 -4 -142
-20 -106 -21 -140 -3 -207 19 -73 43 -109 89 -134 52 -30 106 -24 301 30 315
87 1014 327 1151 394 145 71 212 142 229 241 11 65 16 75 46 90 40 21 54 19
90 -12 32 -26 32 -28 28 -92 -12 -156 -139 -295 -363 -396 -38 -17 -145 -58
-237 -90 l-168 -58 49 -61 c104 -131 186 -277 237 -423 l29 -83 1008 0 1008 0
-26 43 c-136 222 -230 544 -276 947 -13 117 -6 320 15 438 15 86 28 83 -119
21 -343 -144 -751 -156 -1108 -33 -530 184 -930 639 -1041 1184 -112 550 87
1136 508 1502 485 421 1148 512 1726 237 107 -51 280 -160 314 -198 l20 -22
-56 -56 -56 -55 -52 41 c-155 123 -383 225 -598 268 -126 26 -433 25 -557 -1
-813 -170 -1317 -964 -1119 -1764 133 -541 557 -946 1114 -1068 68 -15 126
-19 290 -19 187 1 215 3 318 28 284 67 518 201 723 414 261 273 394 607 394
993 0 346 -107 648 -323 916 l-50 62 58 57 58 57 51 -62 c28 -34 70 -88 93
-121 24 -33 44 -55 46 -50 6 17 -27 108 -76 214 l-45 98 33 34 34 35 193 0
c143 0 202 4 226 14 18 8 116 99 220 203 184 186 187 190 187 232 0 31 -6 48
-25 66 -24 25 -25 25 -220 25 l-195 0 0 195 c0 195 0 196 -25 220 -18 19 -35
25 -66 25 -42 0 -46 -3 -232 -187z m143 -215 l0 -83 -85 -90 -84 -90 -1 90 0
90 82 82 c46 46 84 83 85 83 2 0 3 -37 3 -82z m-2855 -153 c29 -28 32 -70 10
-102 -9 -12 -43 -30 -82 -43 -174 -55 -327 -155 -424 -277 -116 -146 -180
-282 -232 -488 -33 -136 -52 -165 -104 -165 -40 0 -83 37 -83 72 0 13 11 68
24 123 110 454 362 753 744 885 78 27 117 26 147 -5z m3075 -150 l-85 -85 -78
0 -79 0 77 85 77 85 87 0 86 0 -85 -85z m-1509 -291 c111 -21 248 -66 334
-109 71 -36 225 -135 225 -145 0 -3 -24 -31 -53 -64 l-53 -58 -66 46 c-90 63
-219 122 -336 154 -88 24 -113 26 -277 26 -152 0 -192 -4 -257 -22 -412 -113
-705 -418 -794 -827 -25 -117 -23 -331 4 -452 51 -225 149 -393 325 -559 99
-93 212 -164 339 -211 123 -47 201 -63 339 -70 723 -37 1267 637 1089 1349
-26 104 -112 282 -178 369 l-50 66 52 58 c35 39 56 56 65 51 26 -17 129 -166
174 -253 247 -478 157 -1045 -227 -1429 -251 -251 -564 -375 -916 -361 -307
12 -574 126 -798 341 -503 480 -512 1268 -20 1757 175 175 383 286 636 339
113 24 328 26 443 4z m22 -368 c94 -28 185 -70 256 -119 l43 -29 -57 -58 -57
-58 -57 34 c-89 52 -202 85 -312 91 -219 13 -405 -62 -557 -221 -199 -210
-248 -527 -122 -791 42 -88 121 -185 197 -244 363 -280 889 -156 1078 254 103
223 81 502 -55 700 l-32 46 56 59 57 59 34 -47 c266 -362 219 -867 -109 -1169
-170 -156 -368 -233 -600 -233 -237 0 -432 79 -604 244 -185 177 -272 383
-272 639 0 176 54 352 150 492 90 130 252 261 395 319 178 72 391 84 568 32z
m-128 -331 c73 -16 178 -61 173 -75 -2 -5 -27 -33 -56 -64 l-52 -55 -38 17
c-25 11 -67 16 -132 16 -84 1 -102 -2 -150 -26 -75 -37 -137 -100 -173 -177
-26 -54 -31 -77 -31 -140 -1 -213 146 -361 359 -361 143 0 254 69 317 198 30
61 33 74 32 157 0 71 -5 101 -23 139 l-22 50 59 59 59 58 30 -58 c44 -83 63
-155 63 -243 0 -145 -51 -270 -152 -370 -213 -211 -552 -202 -751 20 -229 255
-153 655 153 810 112 56 215 70 335 45z m-2344 -104 c32 -33 37 -65 13 -99
-37 -53 -110 -47 -140 9 -18 36 -10 73 23 99 36 28 70 25 104 -9z"/>
</g>
</svg>
