<?xml version="1.0" standalone="no"?>
<!DOCTYPE svg PUBLIC "-//W3C//DTD SVG 20010904//EN"
 "http://www.w3.org/TR/2001/REC-SVG-20010904/DTD/svg10.dtd">
<svg version="1.0" xmlns="http://www.w3.org/2000/svg"
 width="512.000000pt" height="512.000000pt" viewBox="0 0 512.000000 512.000000"
 preserveAspectRatio="xMidYMid meet">
<metadata>
Created by potrace 1.16, written by Peter Selinger 2001-2019
</metadata>
<g transform="translate(0.000000,512.000000) scale(0.100000,-0.100000)"
fill="#000000" stroke="none">
<path d="M2360 5105 c-331 -38 -728 -115 -926 -180 -331 -109 -524 -250 -698
-510 -112 -168 -172 -311 -242 -579 -27 -105 -65 -218 -100 -300 -32 -72 -61
-147 -65 -166 -10 -44 10 -78 86 -144 70 -60 115 -146 115 -219 0 -93 -209
-467 -420 -748 -55 -73 -103 -144 -106 -157 -9 -32 19 -59 108 -106 109 -58
165 -103 196 -154 23 -40 27 -58 27 -123 0 -70 -4 -83 -44 -165 l-44 -88 38
-31 c120 -94 130 -118 79 -195 -27 -41 -28 -44 -10 -54 113 -68 157 -121 177
-214 9 -46 8 -71 -5 -138 -20 -105 -20 -163 1 -237 20 -74 63 -121 123 -137
40 -11 57 -9 185 24 221 57 405 115 802 251 441 152 550 201 638 288 64 62 85
105 85 170 0 40 40 77 84 77 26 0 40 -7 61 -32 25 -30 27 -37 21 -93 -9 -93
-53 -171 -142 -254 -95 -88 -247 -166 -486 -247 l-167 -56 65 -84 c105 -134
202 -318 245 -461 l12 -43 1044 0 c573 0 1043 2 1043 4 0 2 -17 33 -39 67
-131 217 -238 602 -270 977 l-10 113 -49 47 c-56 54 -87 114 -104 197 -30 152
65 323 217 386 l55 23 0 106 0 106 -57 24 c-79 33 -162 116 -194 195 l-24 60
0 450 c0 442 0 451 22 497 30 66 69 114 120 149 64 44 116 60 234 70 210 17
357 103 454 264 186 310 33 713 -310 817 -179 55 -405 4 -539 -120 -55 -52
-114 -142 -145 -223 -40 -104 -81 -161 -152 -208 -74 -49 -131 -65 -222 -59
-92 6 -152 33 -221 98 -79 75 -111 150 -111 260 1 75 6 97 39 180 76 188 166
320 315 463 51 49 91 91 88 93 -7 7 -157 43 -252 60 -125 23 -461 27 -625 9z
m-749 -374 c33 -33 38 -74 14 -108 -9 -13 -47 -32 -97 -49 -217 -71 -369 -184
-487 -361 -96 -143 -132 -234 -208 -521 -11 -44 -19 -55 -48 -69 -28 -14 -38
-14 -65 -3 -17 7 -38 26 -46 42 -14 27 -13 38 16 156 56 225 125 376 242 534
133 179 303 302 523 379 102 36 120 36 156 0z m-932 -1276 c55 -28 60 -104 9
-139 -66 -47 -153 18 -127 94 11 29 49 59 77 60 7 0 26 -7 41 -15z"/>
<path d="M3850 5113 c-154 -26 -330 -97 -457 -185 -159 -110 -280 -255 -368
-440 -78 -164 -81 -237 -12 -315 57 -64 143 -81 222 -43 52 25 74 56 110 149
80 211 257 372 485 442 96 30 271 33 370 6 203 -54 385 -204 474 -390 54 -112
70 -186 70 -317 0 -136 -17 -207 -77 -330 -33 -69 -58 -102 -132 -175 -140
-141 -267 -199 -467 -214 -122 -10 -170 -29 -205 -81 -23 -33 -23 -33 -23
-469 0 -412 1 -438 19 -467 79 -129 272 -123 332 10 17 37 19 70 19 318 l0
278 28 29 c18 20 47 34 92 45 91 24 272 114 354 176 196 149 336 355 402 592
32 115 44 343 24 466 -73 458 -426 820 -883 907 -74 14 -312 19 -377 8z"/>
<path d="M3945 1634 c-74 -38 -105 -89 -105 -171 0 -114 70 -183 185 -183 70
0 108 19 150 75 48 62 45 165 -7 231 -45 57 -159 82 -223 48z"/>
</g>
</svg>
